STARTFONT 2.1
COMMENT
COMMENT Converted from OpenType font "Ubuntu-Regular.ttf" by "otf2bdf 3.0".
COMMENT
FONT -FreeType-Ubuntu-Medium-R-Normal--66-480-100-100-P-352-ISO10646-1
SIZE 48 100 100
FONTBOUNDINGBOX 243 77 -11 -13
STARTPROPERTIES 19
FOUNDRY "FreeType"
FAMILY_NAME "Ubuntu"
WEIGHT_NAME "Medium"
SLANT "R"
SETWIDTH_NAME "Normal"
ADD_STYLE_NAME ""
PIXEL_SIZE 66
POINT_SIZE 480
RESOLUTION_X 100
RESOLUTION_Y 100
SPACING "P"
AVERAGE_WIDTH 352
CHARSET_REGISTRY "ISO10646"
CHARSET_ENCODING "1"
FONT_ASCENT 62
FONT_DESCENT 12
COPYRIGHT "Copyright 2011 Canonical Ltd.  Licensed under the Ubuntu Font Licence 1.0"
_OTF_FONTFILE "Ubuntu-Regular.ttf"
_OTF_PSNAME "Ubuntu-Regular"
ENDPROPERTIES
CHARS 1194
STARTCHAR 0000
ENCODING 0
SWIDTH 0 0
DWIDTH 0 0
BBX 0 0 0 0
BITMAP
ENDCHAR
STARTCHAR 0008
ENCODING 8
SWIDTH 0 0
DWIDTH 0 0
BBX 0 0 0 0
BITMAP
ENDCHAR
STARTCHAR 0009
ENCODING 9
SWIDTH 225 0
DWIDTH 15 0
BBX 0 0 0 0
BITMAP
ENDCHAR
STARTCHAR 000D
ENCODING 13
SWIDTH 225 0
DWIDTH 15 0
BBX 0 0 0 0
BITMAP
ENDCHAR
STARTCHAR 001D
ENCODING 29
SWIDTH 0 0
DWIDTH 0 0
BBX 0 0 0 0
BITMAP
ENDCHAR
STARTCHAR 0020
ENCODING 32
SWIDTH 225 0
DWIDTH 15 0
BBX 0 0 0 0
BITMAP
ENDCHAR
STARTCHAR 0021
ENCODING 33
SWIDTH 270 0
DWIDTH 18 0
BBX 9 47 5 -1
BITMAP
7F00
7F00
7F00
7F00
7F00
7F00
7F00
7F00
7F00
7F00
7F00
7F00
7F00
7F00
7F00
7E00
7E00
7E00
7E00
7E00
7E00
7E00
7E00
7E00
7E00
3E00
3E00
3E00
3E00
3C00
3C00
3C00
0000
0000
0000
0000
0000
0000
3C00
7F00
FF00
FF80
FF80
FF80
FF00
7F00
3C00
ENDCHAR
STARTCHAR 0022
ENCODING 34
SWIDTH 405 0
DWIDTH 27 0
BBX 18 18 5 33
BITMAP
FC0FC0
FC0FC0
FC0FC0
FC0FC0
FC0FC0
FC0FC0
FC0FC0
FC0FC0
FC0FC0
FC0FC0
FC0FC0
FC0FC0
FC0F80
780F80
780F80
780780
780780
780780
ENDCHAR
STARTCHAR 0023
ENCODING 35
SWIDTH 660 0
DWIDTH 44 0
BBX 38 46 3 0
BITMAP
0007C007E0
000FC007C0
000FC007C0
000FC00FC0
000F800FC0
000F800FC0
001F800F80
001F800F80
001F801F80
001F001F80
001F001F80
003F001F00
FFFFFFFFFC
FFFFFFFFFC
FFFFFFFFFC
FFFFFFFFFC
FFFFFFFFFC
007E003E00
007E007E00
007E007E00
007C007E00
00FC007C00
00FC007C00
00FC00FC00
00FC00FC00
00F800FC00
01F800FC00
01F800F800
01F800F800
FFFFFFFFFC
FFFFFFFFFC
FFFFFFFFFC
FFFFFFFFFC
FFFFFFFFFC
03F003F000
03E003F000
03E003F000
07E003E000
07E003E000
07E007E000
07C007E000
07C007E000
0FC007C000
0FC007C000
0FC00FC000
0FC00FC000
ENDCHAR
STARTCHAR 0024
ENCODING 36
SWIDTH 555 0
DWIDTH 37 0
BBX 29 59 4 -7
BITMAP
000FC000
000FC000
000FC000
000FC000
000FC000
000FC000
000FC000
000FC000
007FFE00
01FFFFE0
07FFFFE0
0FFFFFE0
1FFFFFC0
3FF007C0
3FC00040
3F800000
7F000000
7F000000
7F000000
7E000000
7F000000
7F000000
7F800000
3FC00000
3FF00000
1FFE0000
0FFF8000
07FFF000
03FFFC00
00FFFF00
001FFF80
0007FFC0
0000FFE0
00003FF0
00000FF0
000007F8
000003F8
000003F8
000001F8
000001F8
000001F8
000003F8
000003F8
200007F8
78000FF0
7FC1FFF0
7FFFFFE0
FFFFFFC0
7FFFFF80
1FFFFE00
01FFE000
000FC000
000FC000
000FC000
000FC000
000FC000
000FC000
000FC000
000FC000
ENDCHAR
STARTCHAR 0025
ENCODING 37
SWIDTH 855 0
DWIDTH 57 0
BBX 51 48 3 -1
BITMAP
01FE0000000000
07FF80001F8000
0FFFC0001F8000
1FFFE0003F0000
3FCFF0003F0000
3F03F0007E0000
7E01F800FC0000
7C01F800FC0000
7C00F801F80000
FC00F801F80000
FC00F803F00000
FC00FC03F00000
FC00FC07E00000
FC00F80FE00000
FC00F80FC00000
7C00F81F800000
7C00F81F800000
7E01F83F000000
3F03F03F000000
3F8FF07E000000
1FFFE0FE000000
0FFFC0FC000000
07FF81F8000000
01FE01F8008000
000003F00FF800
000003F03FFE00
000007E07FFF00
000007E0FFFF80
00000FC1FC3F80
00001F81F80FC0
00001F83F00FC0
00003F03F007C0
00003F03E007E0
00007E03E007E0
00007E03E003E0
0000FC03E003E0
0001FC03E003E0
0001F803E003E0
0003F003E007E0
0003F003E007C0
0007E003F007C0
0007E001F00FC0
000FC001F81F80
001FC000FFFF80
001F8000FFFF00
003F00007FFE00
003F00001FFC00
0000000007F000
ENDCHAR
STARTCHAR 0026
ENCODING 38
SWIDTH 660 0
DWIDTH 44 0
BBX 40 48 3 -1
BITMAP
000FFC0000
003FFF0000
007FFF8000
00FFFFC000
01FFFFE000
03F80FE000
03F007F000
07F003F000
07E003F000
07E003F000
07E003F000
07E003F000
07E003F000
07E003E000
07F007E000
03F00FE000
03F81FC000
01FC3F8000
01FE7F0000
00FFFE0000
007FFC0000
003FF00000
00FFE00000
03FFF00000
07FFF800E0
0FF3FC00FC
1FC1FE00F8
3F80FF00F8
3F007F80F8
7F003FC1F8
7E001FE1F0
FE000FF3F0
FC0007FBF0
FC0003FFE0
FC0001FFE0
FC0000FFC0
FE00007FC0
FE00003F80
7E00003FC0
7F0000FFE0
7F8001FFF0
3FE007FFF8
1FFFFFF9FC
0FFFFFE1FC
07FFFFC0FE
03FFFF007F
00FFFC003F
000B000000
ENDCHAR
STARTCHAR 0027
ENCODING 39
SWIDTH 240 0
DWIDTH 16 0
BBX 6 18 5 33
BITMAP
FC
FC
FC
FC
FC
FC
FC
FC
FC
FC
FC
FC
FC
78
78
78
78
78
ENDCHAR
STARTCHAR 0028
ENCODING 40
SWIDTH 315 0
DWIDTH 21 0
BBX 16 64 5 -12
BITMAP
0018
003C
003F
007F
00FE
00FC
01FC
01F8
03F0
07F0
07E0
07E0
0FC0
0FC0
1F80
1F80
1F80
3F00
3F00
3F00
7F00
7E00
7E00
7E00
7E00
7E00
FE00
FE00
FE00
FC00
FC00
FC00
FC00
FC00
FC00
FC00
FE00
FE00
7E00
7E00
7E00
7E00
7E00
7F00
3F00
3F00
3F00
1F80
1F80
1F80
0FC0
0FC0
0FE0
07E0
07F0
03F0
03F8
01F8
00FC
00FE
007F
003F
003C
0018
ENDCHAR
STARTCHAR 0029
ENCODING 41
SWIDTH 315 0
DWIDTH 21 0
BBX 15 64 1 -12
BITMAP
1000
7800
FC00
FE00
7E00
7F00
3F00
1F80
1FC0
0FC0
0FE0
07E0
07E0
03F0
03F0
03F8
01F8
01F8
01FC
00FC
00FC
00FC
00FE
007E
007E
007E
007E
007E
007E
007E
007E
007E
007E
007E
007E
007E
007E
007E
007E
007E
007E
00FE
00FC
00FC
00FC
01FC
01F8
01F8
03F8
03F0
03F0
07F0
07E0
0FE0
0FC0
1FC0
1F80
3F80
7F00
7E00
FE00
FC00
7800
1800
ENDCHAR
STARTCHAR 002A
ENCODING 42
SWIDTH 480 0
DWIDTH 32 0
BBX 26 25 3 21
BITMAP
003F0000
003F0000
003F0000
003F0000
003F0000
003F0000
601E0180
781E0780
FE1E1F80
FF9E7FC0
FFFFFFC0
FFFFFFC0
3FFFFF00
00FF8000
003F0000
007F8000
00F3C000
03F3F000
07E1F800
07E1F800
0FC0FC00
1FC0FE00
0F807C00
07807800
03003000
ENDCHAR
STARTCHAR 002B
ENCODING 43
SWIDTH 555 0
DWIDTH 37 0
BBX 30 32 4 4
BITMAP
000F8000
000F8000
000F8000
000F8000
000F8000
000F8000
000F8000
000F8000
000F8000
000F8000
000F8000
000F8000
000F8000
FFFFFFFC
FFFFFFFC
FFFFFFFC
FFFFFFFC
FFFFFFFC
FFFFFFFC
000F8000
000F8000
000F8000
000F8000
000F8000
000F8000
000F8000
000F8000
000F8000
000F8000
000F8000
000F8000
000F8000
ENDCHAR
STARTCHAR 002C
ENCODING 44
SWIDTH 240 0
DWIDTH 16 0
BBX 9 18 3 -11
BITMAP
3F80
3F80
3F80
3F80
3F80
3F80
3F80
3F00
3F00
3F00
3F00
7E00
7E00
7E00
7C00
FC00
F800
7800
ENDCHAR
STARTCHAR 002D
ENCODING 45
SWIDTH 285 0
DWIDTH 19 0
BBX 16 6 2 17
BITMAP
FFFF
FFFF
FFFF
FFFF
FFFF
FFFF
ENDCHAR
STARTCHAR 002E
ENCODING 46
SWIDTH 240 0
DWIDTH 16 0
BBX 9 9 4 -1
BITMAP
3C00
7F00
FF00
FF80
FF80
FF80
FF00
7F00
3C00
ENDCHAR
STARTCHAR 002F
ENCODING 47
SWIDTH 375 0
DWIDTH 25 0
BBX 28 64 -1 -12
BITMAP
000003F0
000007F0
000007E0
000007E0
00000FE0
00000FC0
00000FC0
00001FC0
00001F80
00001F80
00003F00
00003F00
00003F00
00007E00
00007E00
0000FE00
0000FC00
0000FC00
0001FC00
0001F800
0001F800
0003F800
0003F000
0003F000
0007F000
0007E000
0007E000
000FE000
000FC000
000FC000
001FC000
001F8000
001F8000
003F0000
003F0000
007F0000
007E0000
007E0000
00FE0000
00FC0000
00FC0000
01FC0000
01F80000
01F80000
03F80000
03F00000
03F00000
07F00000
07E00000
07E00000
0FE00000
0FC00000
0FC00000
1FC00000
1F800000
3F800000
3F000000
3F000000
7F000000
7E000000
7E000000
FE000000
FC000000
FC000000
ENDCHAR
STARTCHAR 0030
ENCODING 48
SWIDTH 555 0
DWIDTH 37 0
BBX 31 48 3 -1
BITMAP
001FF000
007FFE00
00FFFF00
03FFFF80
03FFFFC0
07FC3FE0
0FF00FE0
0FE007F0
1FC003F8
1F8003F8
3F8001F8
3F0001FC
3F0001FC
7F0000FC
7F0000FC
7E0000FE
7E0000FE
7E0000FE
7E0000FE
FE00007E
FE00007E
FE00007E
FE00007E
FE00007E
FE00007E
FE00007E
FE00007E
FE00007E
FE00007E
7E0000FE
7E0000FE
7E0000FE
7F0000FE
7F0000FC
7F0000FC
3F0001FC
3F8001FC
3F8001F8
1F8003F8
1FC007F0
0FE007F0
0FF01FE0
07FFFFE0
03FFFFC0
01FFFF80
00FFFF00
007FFC00
000FF000
ENDCHAR
STARTCHAR 0031
ENCODING 49
SWIDTH 555 0
DWIDTH 37 0
BBX 19 46 6 0
BITMAP
0003E0
0007E0
000FE0
003FE0
007FE0
00FFE0
03FFE0
0FFFE0
3FFFE0
FFEFE0
7FCFE0
7F0FE0
3C0FE0
300FE0
000FE0
000FE0
000FE0
000FE0
000FE0
000FE0
000FE0
000FE0
000FE0
000FE0
000FE0
000FE0
000FE0
000FE0
000FE0
000FE0
000FE0
000FE0
000FE0
000FE0
000FE0
000FE0
000FE0
000FE0
000FE0
000FE0
000FE0
000FE0
000FE0
000FE0
000FE0
000FE0
ENDCHAR
STARTCHAR 0032
ENCODING 50
SWIDTH 555 0
DWIDTH 37 0
BBX 29 47 4 0
BITMAP
00FFE000
07FFF800
1FFFFE00
3FFFFF00
FFFFFF80
FFC3FF80
7E007FC0
7C001FC0
30001FE0
00000FE0
00000FE0
00000FE0
000007E0
00000FE0
00000FE0
00000FE0
00000FC0
00001FC0
00001FC0
00003F80
00007F00
0000FF00
0001FE00
0001FC00
0003F800
000FF000
001FE000
003FC000
003FC000
007F8000
00FE0000
01FE0000
03FC0000
07F80000
0FF00000
0FE00000
1FC00000
1F800000
3F800000
3F000000
7F000000
7E000000
7FFFFFF8
7FFFFFF8
7FFFFFF8
7FFFFFF8
7FFFFFF8
ENDCHAR
STARTCHAR 0033
ENCODING 51
SWIDTH 555 0
DWIDTH 37 0
BBX 29 48 4 -1
BITMAP
01FFC000
0FFFF800
3FFFFC00
7FFFFE00
7FFFFF00
3F81FF80
3C007F80
10003FC0
00001FC0
00000FC0
00000FC0
00000FE0
00000FE0
00000FC0
00000FC0
00001FC0
00001F80
00003F80
0000FF00
0003FE00
00FFFC00
00FFF000
00FFF800
00FFFE00
00FFFF00
0001FF80
00003FC0
00001FE0
00000FE0
000007F0
000003F0
000003F0
000003F8
000003F8
000003F8
000003F8
000003F0
000007F0
000007F0
00000FF0
40001FE0
70007FE0
FFFFFFC0
FFFFFF80
FFFFFF00
FFFFFC00
3FFFF000
03FF8000
ENDCHAR
STARTCHAR 0034
ENCODING 52
SWIDTH 555 0
DWIDTH 37 0
BBX 32 46 3 0
BITMAP
00000FC0
00001FC0
00003FC0
00007FC0
0000FFC0
0001FFC0
0003FFC0
0003FFC0
0007EFC0
000FCFC0
001F8FC0
001F8FC0
003F0FC0
007E0FC0
007C0FC0
00FC0FC0
01F80FC0
01F00FC0
03F00FC0
07E00FC0
07C00FC0
0FC00FC0
1F800FC0
1F800FC0
3F000FC0
3F000FC0
7E000FC0
7C000FC0
FC000FC0
FFFFFFFF
FFFFFFFF
FFFFFFFF
FFFFFFFF
FFFFFFFF
00000FC0
00000FC0
00000FC0
00000FC0
00000FC0
00000FC0
00000FC0
00000FC0
00000FC0
00000FC0
00000FC0
00000FC0
ENDCHAR
STARTCHAR 0035
ENCODING 53
SWIDTH 555 0
DWIDTH 37 0
BBX 29 47 4 -1
BITMAP
07FFFFE0
07FFFFE0
07FFFFE0
07FFFFE0
07FFFFE0
07C00000
07C00000
0FC00000
0FC00000
0FC00000
0FC00000
0FC00000
0FC00000
0FC00000
0FC00000
0F800000
0F800000
0F800000
0FFF8000
0FFFF000
1FFFFC00
1FFFFE00
1FFFFF80
0007FFC0
0000FFC0
00003FE0
00000FE0
000007F0
000007F0
000003F0
000003F8
000003F8
000003F8
000003F8
000003F8
000003F8
000003F0
000007F0
00000FF0
40001FE0
78007FE0
7FFFFFC0
7FFFFF80
7FFFFF00
FFFFFC00
1FFFF000
01FF8000
ENDCHAR
STARTCHAR 0036
ENCODING 54
SWIDTH 555 0
DWIDTH 37 0
BBX 30 47 4 -1
BITMAP
00001FE0
0000FFE0
0007FFE0
000FFFE0
003FFFE0
007FF800
00FFC000
01FE0000
03FC0000
07F80000
0FF00000
0FE00000
1FC00000
1FC00000
3F800000
3F800000
3F000000
7F000000
7F3FFC00
7FFFFF00
7FFFFF80
7FFFFFC0
FFFFFFE0
FFC01FF0
FE0007F8
FE0003F8
FE0001F8
FE0001FC
FE0001FC
FE0000FC
FE0000FC
FE0000FC
7E0000FC
7E0000FC
7E0000FC
7F0001FC
7F0001FC
3F0001F8
3F8003F8
1FC007F0
1FE00FF0
0FF83FE0
07FFFFC0
03FFFF80
01FFFF00
007FFC00
001FF000
ENDCHAR
STARTCHAR 0037
ENCODING 55
SWIDTH 555 0
DWIDTH 37 0
BBX 29 46 4 0
BITMAP
FFFFFFF8
FFFFFFF8
FFFFFFF8
FFFFFFF8
FFFFFFF8
000003F8
000007F0
000007E0
00000FE0
00001FC0
00001F80
00003F80
00003F00
00007F00
0000FE00
0000FE00
0001FC00
0001F800
0003F800
0003F800
0003F000
0007F000
0007E000
000FE000
000FC000
000FC000
001FC000
001F8000
001F8000
003F8000
003F0000
003F0000
007F0000
007E0000
007E0000
007E0000
00FE0000
00FC0000
00FC0000
00FC0000
00FC0000
01FC0000
01FC0000
01FC0000
01F80000
01F80000
ENDCHAR
STARTCHAR 0038
ENCODING 56
SWIDTH 555 0
DWIDTH 37 0
BBX 30 48 4 -1
BITMAP
003FF000
01FFFE00
03FFFF00
07FFFF80
0FFFFFC0
1FE03FE0
3FC00FF0
3F8007F0
7F0003F0
7E0003F8
7E0003F8
7E0001F8
7E0001F8
7E0003F8
7E0003F0
7F0003F0
7F0003F0
3F8007E0
3FC00FE0
1FE01FC0
0FF83F80
07FFFF00
03FFFE00
01FFFE00
03FFFF00
0FF7FFC0
1FC0FFE0
1F803FE0
3F000FF0
7F0007F8
7E0003F8
FE0001F8
FC0001FC
FC0001FC
FC0000FC
FC0000FC
FC0000FC
FC0001FC
FE0001FC
FE0003F8
7F0003F8
7F800FF0
3FF03FF0
1FFFFFE0
0FFFFFC0
07FFFF80
01FFFE00
003FF000
ENDCHAR
STARTCHAR 0039
ENCODING 57
SWIDTH 555 0
DWIDTH 37 0
BBX 30 47 3 0
BITMAP
003FF000
00FFFC00
03FFFF00
07FFFF80
0FFFFFC0
1FF03FE0
1FC00FE0
3F8007F0
3F0003F8
7F0003F8
7E0001F8
7E0001FC
7E0001FC
FE0001FC
FE0000FC
FE0000FC
FE0000FC
7E0000FC
7E0000FC
7F0000FC
7F0000FC
3F8000FC
3FC001FC
1FF81FFC
0FFFFFFC
07FFFFFC
03FFFFFC
00FFFDFC
003FE1F8
000001F8
000003F8
000003F8
000003F0
000007F0
00000FE0
00000FE0
00001FC0
00003FC0
00007F80
0001FF00
0007FE00
007FFC00
1FFFF800
1FFFE000
1FFF8000
1FFC0000
1FC00000
ENDCHAR
STARTCHAR 003A
ENCODING 58
SWIDTH 240 0
DWIDTH 16 0
BBX 9 36 4 -1
BITMAP
1C00
7E00
FF00
FF00
FF80
FF80
FF00
7F00
3E00
0000
0000
0000
0000
0000
0000
0000
0000
0000
0000
0000
0000
0000
0000
0000
0000
0000
0000
3C00
7F00
FF00
FF80
FF80
FF80
FF00
7F00
3C00
ENDCHAR
STARTCHAR 003B
ENCODING 59
SWIDTH 240 0
DWIDTH 16 0
BBX 10 45 3 -11
BITMAP
0E00
3F00
7F80
7F80
7FC0
7FC0
7F80
3F80
1F00
0000
0000
0000
0000
0000
0000
0000
0000
0000
0000
0000
0000
0000
0000
0000
0000
0000
0000
3F80
3F80
3F80
3F80
3F80
3F80
3F80
3F00
3F00
3F00
3F00
7E00
7E00
7E00
7C00
FC00
F800
7800
ENDCHAR
STARTCHAR 003C
ENCODING 60
SWIDTH 555 0
DWIDTH 37 0
BBX 30 29 4 6
BITMAP
00000078
000001F8
000007F8
00003FFC
0000FFFC
0007FFE0
001FFF80
007FFC00
03FFF000
0FFFC000
3FFE0000
FFF80000
FFC00000
FF000000
FF000000
FFC00000
FFF00000
7FFE0000
0FFF8000
03FFF000
00FFFC00
001FFF80
0007FFE0
0001FFF8
00003FFC
00000FFC
000001F8
00000078
00000010
ENDCHAR
STARTCHAR 003D
ENCODING 61
SWIDTH 555 0
DWIDTH 37 0
BBX 30 20 4 10
BITMAP
FFFFFFFC
FFFFFFFC
FFFFFFFC
FFFFFFFC
FFFFFFFC
FFFFFFFC
00000000
00000000
00000000
00000000
00000000
00000000
00000000
00000000
00000000
FFFFFFFC
FFFFFFFC
FFFFFFFC
FFFFFFFC
FFFFFFFC
ENDCHAR
STARTCHAR 003E
ENCODING 62
SWIDTH 555 0
DWIDTH 37 0
BBX 30 30 4 5
BITMAP
40000000
70000000
FE000000
FF800000
FFE00000
FFFC0000
3FFF0000
07FFE000
01FFF800
003FFE00
000FFFC0
0001FFF0
00007FFC
00001FFC
000003FC
000003FC
00000FFC
00007FFC
0001FFF0
000FFFC0
003FFF00
00FFF800
07FFE000
1FFF0000
FFFC0000
FFF00000
FF800000
FE000000
78000000
40000000
ENDCHAR
STARTCHAR 003F
ENCODING 63
SWIDTH 390 0
DWIDTH 26 0
BBX 24 48 1 -1
BITMAP
07FF80
3FFFE0
FFFFF8
7FFFFC
7FFFFC
7C03FE
2000FE
00007F
00007F
00007F
00003F
00003F
00003F
00007F
00007E
0000FE
0000FC
0001FC
0003F8
0007F0
000FE0
001FC0
003F80
007F00
007E00
00FC00
00FC00
01F800
01F800
01F800
01F800
01F800
01F800
000000
000000
000000
000000
000000
000000
00F800
01FC00
03FC00
03FE00
03FE00
03FE00
03FC00
01FC00
00F000
ENDCHAR
STARTCHAR 0040
ENCODING 64
SWIDTH 945 0
DWIDTH 63 0
BBX 55 57 4 -10
BITMAP
000007FFE00000
00003FFFFE0000
0001FFFFFF8000
0007FFFFFFE000
000FFFFFFFF000
003FFC003FFC00
007FE00007FE00
00FF800001FF00
01FE0000007F80
03FC0000003FC0
03F80000001FC0
07F00000000FE0
0FE000000007F0
0FC0007FF003F0
1FC003FFFF03F8
1F800FFFFF01F8
3F801FFFFF01FC
3F003FFFFF00FC
3F007FC03F00FC
7E00FF003F007C
7E00FE003F007E
7E01FC003F007E
7E01FC003F007E
7C01F8003F007E
FC03F8003F007E
FC03F8003F007E
FC03F0003F007E
FC03F0003F007E
FC03F0003F007E
FC03F0003F007E
FC03F0003F007E
FC03F8003F007C
FC03F8003F00FC
7C01F8003F00FC
7E01FC003F00FC
7E01FC003F01F8
7E00FE003F03F8
7E00FF003F03F0
3F007FE1FF8FF0
3F003FFFFFFFE0
3F801FFFFFFFC0
1F800FFFFFFF80
1FC003FFE7FF00
0FC0007F03FC00
0FE00000000000
07F00000000000
07F80000000000
03FC0000000000
01FF0000000000
00FF8000000000
007FF000000000
003FFE00060000
000FFFFFFE0000
0007FFFFFE0000
0001FFFFFF0000
00003FFFFF0000
000003FFF80000
ENDCHAR
STARTCHAR 0041
ENCODING 65
SWIDTH 660 0
DWIDTH 44 0
BBX 42 46 1 0
BITMAP
00003F000000
00007F800000
00007F800000
0000FFC00000
0000FFC00000
0001FFE00000
0001FFE00000
0001FFF00000
0003F7F00000
0003F3F00000
0007E3F80000
0007E1F80000
000FE1FC0000
000FC0FC0000
000FC0FE0000
001F80FE0000
001F807E0000
003F807F0000
003F003F0000
003F003F8000
007E003F8000
007E001F8000
00FE001FC000
00FC000FC000
00FC000FE000
01FC000FE000
01F80007E000
03F80007F000
03F00007F000
03FFFFFFF800
07FFFFFFF800
07FFFFFFF800
0FFFFFFFFC00
0FFFFFFFFC00
0FC00000FC00
1FC00000FE00
1FC00000FE00
1F8000007F00
3F8000007F00
3F8000007F00
3F0000003F80
7F0000003F80
7F0000003F80
FE0000001FC0
FE0000001FC0
FC0000001FC0
ENDCHAR
STARTCHAR 0042
ENCODING 66
SWIDTH 630 0
DWIDTH 42 0
BBX 33 47 6 0
BITMAP
00FF000000
FFFFFC0000
FFFFFF8000
FFFFFFE000
FFFFFFF000
FFFFFFF800
FC001FFC00
FC0007FC00
FC0001FE00
FC0000FE00
FC0000FE00
FC0000FE00
FC00007E00
FC0000FE00
FC0000FE00
FC0000FE00
FC0000FE00
FC0001FC00
FC0003FC00
FC001FF800
FFFFFFF000
FFFFFFC000
FFFFFF8000
FFFFFFF000
FFFFFFF800
FC01FFFC00
FC0003FE00
FC0000FF00
FC00007F80
FC00003F80
FC00003F80
FC00001F80
FC00001F80
FC00001F80
FC00001F80
FC00001F80
FC00003F80
FC00003F80
FC00007F80
FC0000FF00
FC0003FF00
FC001FFE00
FFFFFFFC00
FFFFFFF800
FFFFFFE000
FFFFFF8000
7FFFFC0000
ENDCHAR
STARTCHAR 0043
ENCODING 67
SWIDTH 615 0
DWIDTH 41 0
BBX 36 48 4 -1
BITMAP
0000FFF800
0007FFFF00
001FFFFFE0
007FFFFFE0
00FFFFFFE0
01FFF8FFC0
03FF0007C0
07FC0000C0
0FF8000000
0FF0000000
1FE0000000
1FC0000000
3F80000000
3F80000000
7F00000000
7F00000000
7F00000000
FE00000000
FE00000000
FE00000000
FE00000000
FE00000000
FE00000000
FE00000000
FE00000000
FE00000000
FE00000000
FE00000000
FE00000000
FE00000000
FE00000000
7F00000000
7F00000000
7F00000000
3F80000000
3F80000000
3FC0000000
1FE0000000
1FF0000000
0FF8000000
07FC0000C0
03FF8007E0
01FFFFFFE0
00FFFFFFE0
007FFFFFF0
001FFFFFE0
0007FFFF00
0000FFF000
ENDCHAR
STARTCHAR 0044
ENCODING 68
SWIDTH 705 0
DWIDTH 47 0
BBX 38 47 6 0
BITMAP
01FE000000
FFFFF80000
FFFFFF8000
FFFFFFE000
FFFFFFF000
FFFFFFFC00
FC003FFE00
FC0007FF00
FC0001FF80
FC00007FC0
FC00003FC0
FC00001FE0
FC00000FE0
FC00000FF0
FC000007F0
FC000007F8
FC000003F8
FC000003F8
FC000003F8
FC000003F8
FC000001F8
FC000001FC
FC000001FC
FC000001FC
FC000001FC
FC000001FC
FC000001FC
FC000001F8
FC000003F8
FC000003F8
FC000003F8
FC000003F8
FC000007F0
FC000007F0
FC00000FF0
FC00000FE0
FC00001FE0
FC00003FC0
FC00007F80
FC0001FF80
FC0007FF00
FC00FFFE00
FFFFFFF800
FFFFFFF000
FFFFFFC000
FFFFFF0000
7FFFF00000
ENDCHAR
STARTCHAR 0045
ENCODING 69
SWIDTH 570 0
DWIDTH 38 0
BBX 30 46 6 0
BITMAP
FFFFFFF0
FFFFFFF0
FFFFFFF0
FFFFFFF0
FFFFFFF0
FC000000
FC000000
FC000000
FC000000
FC000000
FC000000
FC000000
FC000000
FC000000
FC000000
FC000000
FC000000
FC000000
FC000000
FFFFFFC0
FFFFFFC0
FFFFFFC0
FFFFFFC0
FFFFFFC0
FC000000
FC000000
FC000000
FC000000
FC000000
FC000000
FC000000
FC000000
FC000000
FC000000
FC000000
FC000000
FC000000
FC000000
FC000000
FC000000
FFFFFFFC
FFFFFFFC
FFFFFFFC
FFFFFFFC
FFFFFFFC
FFFFFFFC
ENDCHAR
STARTCHAR 0046
ENCODING 70
SWIDTH 525 0
DWIDTH 35 0
BBX 28 46 6 0
BITMAP
FFFFFFF0
FFFFFFF0
FFFFFFF0
FFFFFFF0
FFFFFFF0
FC000000
FC000000
FC000000
FC000000
FC000000
FC000000
FC000000
FC000000
FC000000
FC000000
FC000000
FC000000
FC000000
FC000000
FFFFFF80
FFFFFF80
FFFFFF80
FFFFFF80
FFFFFF80
FFFFFF80
FC000000
FC000000
FC000000
FC000000
FC000000
FC000000
FC000000
FC000000
FC000000
FC000000
FC000000
FC000000
FC000000
FC000000
FC000000
FC000000
FC000000
FC000000
FC000000
FC000000
FC000000
ENDCHAR
STARTCHAR 0047
ENCODING 71
SWIDTH 660 0
DWIDTH 44 0
BBX 36 48 4 -1
BITMAP
0000FFFC00
0007FFFF80
001FFFFFE0
007FFFFFF0
00FFFFFFF0
01FFF8FFE0
03FF0003E0
07FC000040
0FF8000000
0FF0000000
1FE0000000
1FC0000000
3F80000000
3F80000000
7F00000000
7F00000000
7F00000000
FE00000000
FE00000000
FE00000000
FE00000000
FE00000000
FE00000000
FE00000000
FE000003F0
FE000003F0
FE000003F0
FE000003F0
FE000003F0
FE000003F0
FE000003F0
7F000003F0
7F000003F0
7F000003F0
3F800003F0
3F800003F0
3FC00003F0
1FE00003F0
1FF00003F0
0FF80003F0
07FE0003F0
03FF8003F0
01FFFFFFF0
00FFFFFFF0
007FFFFFF0
001FFFFFF0
0007FFFFC0
00007FF000
ENDCHAR
STARTCHAR 0048
ENCODING 72
SWIDTH 705 0
DWIDTH 47 0
BBX 35 46 6 0
BITMAP
FC000007E0
FC000007E0
FC000007E0
FC000007E0
FC000007E0
FC000007E0
FC000007E0
FC000007E0
FC000007E0
FC000007E0
FC000007E0
FC000007E0
FC000007E0
FC000007E0
FC000007E0
FC000007E0
FC000007E0
FC000007E0
FC000007E0
FFFFFFFFE0
FFFFFFFFE0
FFFFFFFFE0
FFFFFFFFE0
FFFFFFFFE0
FFFFFFFFE0
FC000007E0
FC000007E0
FC000007E0
FC000007E0
FC000007E0
FC000007E0
FC000007E0
FC000007E0
FC000007E0
FC000007E0
FC000007E0
FC000007E0
FC000007E0
FC000007E0
FC000007E0
FC000007E0
FC000007E0
FC000007E0
FC000007E0
FC000007E0
FC000007E0
ENDCHAR
STARTCHAR 0049
ENCODING 73
SWIDTH 255 0
DWIDTH 17 0
BBX 6 46 6 0
BITMAP
FC
FC
FC
FC
FC
FC
FC
FC
FC
FC
FC
FC
FC
FC
FC
FC
FC
FC
FC
FC
FC
FC
FC
FC
FC
FC
FC
FC
FC
FC
FC
FC
FC
FC
FC
FC
FC
FC
FC
FC
FC
FC
FC
FC
FC
FC
ENDCHAR
STARTCHAR 004A
ENCODING 74
SWIDTH 495 0
DWIDTH 33 0
BBX 27 47 1 -1
BITMAP
00000FE0
00000FE0
00000FE0
00000FE0
00000FE0
00000FE0
00000FE0
00000FE0
00000FE0
00000FE0
00000FE0
00000FE0
00000FE0
00000FE0
00000FE0
00000FE0
00000FE0
00000FE0
00000FE0
00000FE0
00000FE0
00000FE0
00000FE0
00000FE0
00000FE0
00000FE0
00000FE0
00000FE0
00000FE0
00000FE0
00000FE0
00000FE0
00000FE0
00000FE0
00000FE0
00000FE0
00000FC0
00001FC0
20001FC0
70003FC0
7C00FF80
FFFFFF00
FFFFFF00
FFFFFE00
7FFFF800
1FFFF000
01FF8000
ENDCHAR
STARTCHAR 004B
ENCODING 75
SWIDTH 615 0
DWIDTH 41 0
BBX 35 46 6 0
BITMAP
FC00003F80
FC00007F00
FC0000FE00
FC0001FE00
FC0003FC00
FC0007F800
FC000FF000
FC001FE000
FC003FC000
FC007F8000
FC00FF0000
FC01FE0000
FC03FC0000
FC07F80000
FC0FF00000
FC1FE00000
FC3FC00000
FC7F800000
FCFF000000
FDFE000000
FFFC000000
FFF8000000
FFFC000000
FFFF000000
FDFF800000
FCFFC00000
FC3FE00000
FC1FF00000
FC0FF80000
FC07FC0000
FC01FE0000
FC00FF0000
FC007F8000
FC003FC000
FC001FE000
FC000FF000
FC0007F800
FC0007FC00
FC0003FC00
FC0001FE00
FC0000FF00
FC00007F80
FC00003F80
FC00003FC0
FC00001FE0
FC00000FE0
ENDCHAR
STARTCHAR 004C
ENCODING 76
SWIDTH 510 0
DWIDTH 34 0
BBX 28 46 6 0
BITMAP
FC000000
FC000000
FC000000
FC000000
FC000000
FC000000
FC000000
FC000000
FC000000
FC000000
FC000000
FC000000
FC000000
FC000000
FC000000
FC000000
FC000000
FC000000
FC000000
FC000000
FC000000
FC000000
FC000000
FC000000
FC000000
FC000000
FC000000
FC000000
FC000000
FC000000
FC000000
FC000000
FC000000
FC000000
FC000000
FC000000
FC000000
FC000000
FC000000
FC000000
FFFFFFF0
FFFFFFF0
FFFFFFF0
FFFFFFF0
FFFFFFF0
FFFFFFF0
ENDCHAR
STARTCHAR 004D
ENCODING 77
SWIDTH 870 0
DWIDTH 58 0
BBX 50 46 4 0
BITMAP
0FC0000000FC00
0FE0000000FC00
0FE0000001FE00
1FF0000003FE00
1FF0000003FE00
1FF8000007FE00
1FF8000007FE00
1FFC00000FFE00
1FFC00000FFE00
1FFE00001FFE00
1FFE00001FFE00
1FFF00003FFE00
1FBF00003F3E00
3FBF80007F3F00
3F1F80007E3F00
3F1FC000FE3F00
3F0FC000FC3F00
3F0FE001FC3F00
3F07E001F83F00
3F07F001F83F00
3F03F003F03F00
3F03F003F03F00
3F01F807E03F00
3F01F807E03F00
3F00FC0FC03F00
3F00FC0FC03F00
7F007E1F803F80
7F007E1F801F80
7F003F1F801F80
7E003F3F001F80
7E003F3F001F80
7E001FFE001F80
7E001FFE001F80
7E000FFC001F80
7E000FFC001F80
7E0007F8001F80
7E0007F8001F80
7E0003F8001F80
7E0003F0001F80
7E0003F0001F80
7E000000001F80
7E000000001F80
7E000000001F80
7E000000001FC0
7E000000001FC0
FE000000001FC0
ENDCHAR
STARTCHAR 004E
ENCODING 78
SWIDTH 720 0
DWIDTH 48 0
BBX 37 46 6 0
BITMAP
FC000003F8
FC000003F8
FE000003F8
FF000003F8
FF800003F8
FFC00003F8
FFE00003F8
FFF00003F8
FFF00003F8
FFF80003F8
FDFC0003F8
FDFE0003F8
FCFE0003F8
FC7F0003F8
FC3F8003F8
FC1FC003F8
FC1FC003F8
FC0FE003F8
FC07F003F8
FC03F803F8
FC03F803F8
FC01FC03F8
FC00FE03F8
FC007F03F8
FC007F03F8
FC003F83F8
FC001FC3F8
FC001FC3F8
FC000FE3F8
FC0007F3F8
FC0007F3F8
FC0003FBF8
FC0001FFF8
FC0000FFF8
FC0000FFF8
FC00007FF8
FC00007FF8
FC00003FF8
FC00001FF8
FC00001FF8
FC00000FF8
FC000007F8
FC000007F8
FC000003F8
FC000003F8
FC000001F8
ENDCHAR
STARTCHAR 004F
ENCODING 79
SWIDTH 765 0
DWIDTH 51 0
BBX 44 48 4 -1
BITMAP
0000FFF00000
0007FFFE0000
001FFFFF8000
007FFFFFE000
00FFFFFFF000
01FFF9FFF800
03FF000FFC00
07FC0003FE00
0FF80001FF00
0FF00000FF00
1FE000007F80
3FC000003F80
3F8000003FC0
3F8000001FC0
7F0000001FE0
7F0000000FE0
7F0000000FE0
FE0000000FE0
FE00000007F0
FE00000007F0
FE00000007F0
FE00000007F0
FE00000007F0
FE00000007F0
FE00000007F0
FE00000007F0
FE00000007F0
FE00000007F0
FE00000007F0
FE00000007F0
FE0000000FE0
7F0000000FE0
7F0000000FE0
7F0000001FE0
3F8000001FC0
3F8000003FC0
1FC000003F80
1FE000007F80
0FF00000FF00
0FF80001FE00
07FE0007FE00
03FF801FFC00
01FFFFFFF800
00FFFFFFF000
003FFFFFC000
001FFFFF8000
0003FFFC0000
00007FE00000
ENDCHAR
STARTCHAR 0050
ENCODING 80
SWIDTH 600 0
DWIDTH 40 0
BBX 32 47 6 0
BITMAP
01FF0000
FFFFFC00
FFFFFF00
FFFFFFC0
FFFFFFF0
FFFFFFF8
FC003FFC
FC0007FC
FC0001FE
FC0000FE
FC0000FF
FC00007F
FC00007F
FC00007F
FC00007F
FC00007F
FC00007F
FC00007F
FC00007F
FC0000FF
FC0000FE
FC0001FE
FC0007FC
FC001FFC
FFFFFFF8
FFFFFFF0
FFFFFFE0
FFFFFF80
FFFFFC00
FFFFC000
FC000000
FC000000
FC000000
FC000000
FC000000
FC000000
FC000000
FC000000
FC000000
FC000000
FC000000
FC000000
FC000000
FC000000
FC000000
FC000000
FC000000
ENDCHAR
STARTCHAR 0051
ENCODING 81
SWIDTH 765 0
DWIDTH 51 0
BBX 44 59 4 -12
BITMAP
0000FFF00000
0007FFFE0000
001FFFFF8000
007FFFFFE000
00FFFFFFF000
01FFF9FFF800
03FF000FFC00
07FC0003FE00
0FF80001FF00
0FF00000FF00
1FE000007F80
3FC000003F80
3F8000003FC0
3F8000001FC0
7F0000001FE0
7F0000000FE0
7F0000000FE0
FE0000000FE0
FE00000007F0
FE00000007F0
FE00000007F0
FE00000007F0
FE00000007F0
FE00000007F0
FE00000007F0
FE00000007F0
FE00000007F0
FE00000007F0
FE00000007F0
FE00000007F0
FE0000000FE0
7F0000000FE0
7F0000000FE0
7F0000001FE0
3F8000001FC0
3F8000003FC0
1FC000003F80
1FE000007F80
0FF00000FF00
0FF80001FE00
07FE0007FE00
03FF801FFC00
01FFFFFFF800
00FFFFFFF000
003FFFFFC000
001FFFFF8000
0007FFFC0000
00007FE00000
00000FE00000
000007E00000
000007F00000
000003FC0000
000003FF0000
000001FFF000
000000FFFF80
0000003FFF00
0000000FFF00
00000003FF00
000000003E00
ENDCHAR
STARTCHAR 0052
ENCODING 82
SWIDTH 615 0
DWIDTH 41 0
BBX 34 47 6 0
BITMAP
01FF000000
FFFFFC0000
FFFFFF0000
FFFFFFC000
FFFFFFE000
FFFFFFF800
FC003FF800
FC0007FC00
FC0003FE00
FC0001FE00
FC0000FE00
FC00007F00
FC00007F00
FC00007F00
FC00007F00
FC00007F00
FC00007F00
FC00007F00
FC00007F00
FC0000FE00
FC0001FE00
FC0003FC00
FC000FFC00
FC0FFFF800
FFFFFFF000
FFFFFFE000
FFFFFF8000
FFFFFE0000
FFFFFE0000
FC00FF0000
FC007F8000
FC003F8000
FC003FC000
FC001FE000
FC000FE000
FC0007F000
FC0007F800
FC0003F800
FC0001FC00
FC0001FE00
FC0000FE00
FC00007F00
FC00007F00
FC00003F80
FC00003FC0
FC00001FC0
FC00001FC0
ENDCHAR
STARTCHAR 0053
ENCODING 83
SWIDTH 525 0
DWIDTH 35 0
BBX 31 48 2 -1
BITMAP
001FFF00
00FFFFE0
03FFFFF8
07FFFFF8
0FFFFFF8
1FFE1FF0
1FE000F0
3FC00010
3F800000
3F000000
7F000000
7F000000
7F000000
7F000000
7F000000
3F800000
3FC00000
3FE00000
1FF80000
1FFE0000
0FFF8000
07FFF000
01FFFC00
00FFFF00
003FFFC0
0007FFE0
0000FFF0
00003FF8
00000FFC
000003FC
000001FE
000001FE
000000FE
000000FE
0000007E
0000007E
0000007E
000000FE
000000FE
000001FE
380003FC
7E000FFC
7FFFFFF8
7FFFFFF0
FFFFFFE0
3FFFFFC0
0FFFFF00
007FF000
ENDCHAR
STARTCHAR 0054
ENCODING 84
SWIDTH 555 0
DWIDTH 37 0
BBX 36 46 1 0
BITMAP
FFFFFFFFF0
FFFFFFFFF0
FFFFFFFFF0
FFFFFFFFF0
FFFFFFFFF0
0001F80000
0001F80000
0001F80000
0001F80000
0001F80000
0001F80000
0001F80000
0001F80000
0001F80000
0001F80000
0001F80000
0001F80000
0001F80000
0001F80000
0001F80000
0001F80000
0001F80000
0001F80000
0001F80000
0001F80000
0001F80000
0001F80000
0001F80000
0001F80000
0001F80000
0001F80000
0001F80000
0001F80000
0001F80000
0001F80000
0001F80000
0001F80000
0001F80000
0001F80000
0001F80000
0001F80000
0001F80000
0001F80000
0001F80000
0001F80000
0001F80000
ENDCHAR
STARTCHAR 0055
ENCODING 85
SWIDTH 675 0
DWIDTH 45 0
BBX 35 47 5 -1
BITMAP
FE000007E0
FE000007E0
FE000007E0
FE000007E0
FE000007E0
FE000007E0
FE000007E0
FE000007E0
FE000007E0
FE000007E0
FE000007E0
FE000007E0
FE000007E0
FE000007E0
FE000007E0
FE000007E0
FE000007E0
FE000007E0
FE000007E0
FE000007E0
FE000007E0
FE000007E0
FE000007E0
FE000007E0
FE000007E0
FE000007E0
FE000007E0
FE000007E0
FE000007E0
FE000007E0
FE000007E0
7E000007E0
7E000007E0
7E00000FE0
7F00000FE0
7F00000FE0
3F80001FC0
3F80003FC0
3FC0003F80
1FF000FF80
0FFC03FF00
0FFFFFFE00
07FFFFFE00
03FFFFF800
00FFFFF000
003FFFC000
0007FE0000
ENDCHAR
STARTCHAR 0056
ENCODING 86
SWIDTH 645 0
DWIDTH 43 0
BBX 42 46 1 0
BITMAP
FE0000001FC0
FE0000001F80
7F0000003F80
7F0000003F80
7F0000003F00
3F8000007F00
3F8000007F00
3F8000007E00
1FC00000FE00
1FC00000FE00
1FC00001FC00
0FE00001FC00
0FE00001FC00
07F00003F800
07F00003F800
07F00003F000
03F80007F000
03F80007F000
03F80007E000
01FC000FE000
01FC000FE000
00FC000FC000
00FE001FC000
00FE001F8000
007E001F8000
007F003F8000
003F003F0000
003F807F0000
003F807E0000
001F807E0000
001FC0FE0000
000FC0FC0000
000FE1FC0000
000FE1F80000
0007E1F80000
0007F3F80000
0003F3F00000
0003FFF00000
0001FFE00000
0001FFE00000
0001FFC00000
0000FFC00000
0000FF800000
00007F800000
00007F800000
00003F000000
ENDCHAR
STARTCHAR 0057
ENCODING 87
SWIDTH 915 0
DWIDTH 61 0
BBX 58 46 2 0
BITMAP
FE00000000001FC0
FE00000000001FC0
FE00000000001FC0
FE00000000001F80
7F00000000001F80
7F00003F00003F80
7F00003F00003F80
7F00003F80003F80
7F00007F80003F00
3F00007F80003F00
3F80007F80007F00
3F8000FFC0007F00
3F8000FFC0007F00
3F8000FFC0007E00
1F8001FFE0007E00
1FC001FFE000FE00
1FC001F3E000FE00
1FC003F3F000FE00
0FC003F3F000FC00
0FC003E1F000FC00
0FE007E1F801FC00
0FE007E1F801FC00
0FE007C0F801F800
07E00FC0FC01F800
07F00FC0FC01F800
07F00F807E03F800
07F01F807E03F000
03F01F807E03F000
03F83F003F03F000
03F83F003F07F000
03F83F003F07E000
01F87E001F87E000
01F87E001F87E000
01FC7C001FCFE000
01FCFC000FCFC000
00FCFC000FCFC000
00FEF80007EFC000
00FFF80007FF8000
007FF80007FF8000
007FF00003FF8000
007FF00003FF8000
003FE00001FF0000
003FE00001FF0000
003FE00001FF0000
001FC00000FE0000
001FC00000FE0000
ENDCHAR
STARTCHAR 0058
ENCODING 88
SWIDTH 630 0
DWIDTH 42 0
BBX 38 46 2 0
BITMAP
7F000003F8
7F800007F8
3F80000FF0
1FC0000FE0
1FE0001FE0
0FE0001FC0
07F0003F80
07F8007F00
03F8007F00
01FC00FE00
01FE01FC00
00FE01FC00
007F03F800
007F87F000
003F87F000
001FCFE000
001FFFC000
000FFFC000
0007FF8000
0003FF0000
0003FF0000
0001FE0000
0003FF0000
0003FF8000
0007FF8000
000FFFC000
000FFFE000
001FCFE000
003F87F000
003F87F800
007F03F800
00FE01FC00
00FE01FE00
01FC00FE00
03F8007F00
03F8007F80
07F0003F80
0FF0001FC0
0FE0001FE0
1FC0000FE0
1FC0000FF0
3F800007F0
7F800003F8
7F000003F8
FE000001FC
FE000001FC
ENDCHAR
STARTCHAR 0059
ENCODING 89
SWIDTH 585 0
DWIDTH 39 0
BBX 38 46 1 0
BITMAP
FE000001FC
FF000003FC
7F000003F8
7F800007F0
3F800007F0
1FC0000FE0
1FC0000FE0
0FE0001FC0
0FE0001FC0
07F0003F80
07F0003F00
03F8007F00
01FC007E00
01FC00FE00
00FE01FC00
00FE01FC00
007F03F800
007F83F000
003F87F000
001FC7E000
001FCFC000
000FFFC000
0007FF8000
0007FF8000
0003FF0000
0003FE0000
0001FE0000
0000FC0000
0000FC0000
0000FC0000
0000FC0000
0000FC0000
0000FC0000
0000FC0000
0000FC0000
0000FC0000
0000FC0000
0000FC0000
0000FC0000
0000FC0000
0000FC0000
0000FC0000
0000FC0000
0000FC0000
0000FC0000
0000FC0000
ENDCHAR
STARTCHAR 005A
ENCODING 90
SWIDTH 570 0
DWIDTH 38 0
BBX 34 46 2 0
BITMAP
7FFFFFFF80
7FFFFFFF80
7FFFFFFF80
7FFFFFFF80
7FFFFFFF80
0000007F80
000000FF00
000001FE00
000003FC00
000003F800
000007F000
00000FF000
00001FE000
00001FC000
00003F8000
00007F0000
0000FF0000
0000FE0000
0001FC0000
0003F80000
0007F80000
0007F00000
000FE00000
001FE00000
001FC00000
003F800000
007F000000
007F000000
00FE000000
01FC000000
01FC000000
03F8000000
07F0000000
07F0000000
0FE0000000
0FE0000000
1FC0000000
3F80000000
3F80000000
7F00000000
7FFFFFFFC0
FFFFFFFFC0
FFFFFFFFC0
FFFFFFFFC0
FFFFFFFFC0
FFFFFFFFC0
ENDCHAR
STARTCHAR 005B
ENCODING 91
SWIDTH 315 0
DWIDTH 21 0
BBX 15 64 6 -12
BITMAP
FFFE
FFFE
FFFE
FFFE
FFFE
FC00
FC00
FC00
FC00
FC00
FC00
FC00
FC00
FC00
FC00
FC00
FC00
FC00
FC00
FC00
FC00
FC00
FC00
FC00
FC00
FC00
FC00
FC00
FC00
FC00
FC00
FC00
FC00
FC00
FC00
FC00
FC00
FC00
FC00
FC00
FC00
FC00
FC00
FC00
FC00
FC00
FC00
FC00
FC00
FC00
FC00
FC00
FC00
FC00
FC00
FC00
FC00
FC00
FC00
FFFE
FFFE
FFFE
FFFE
FFFE
ENDCHAR
STARTCHAR 005C
ENCODING 92
SWIDTH 375 0
DWIDTH 25 0
BBX 28 64 -1 -12
BITMAP
FC000000
FC000000
FE000000
7E000000
7E000000
7F000000
3F000000
3F000000
3F800000
1F800000
1F800000
1FC00000
0FC00000
0FC00000
07E00000
07E00000
07E00000
03F00000
03F00000
03F80000
01F80000
01F80000
01FC0000
00FC0000
00FC0000
00FE0000
007E0000
007E0000
007F0000
003F0000
003F0000
003F8000
001F8000
001F8000
001FC000
000FC000
000FC000
0007E000
0007E000
0007F000
0003F000
0003F000
0003F800
0001F800
0001F800
0001FC00
0000FC00
0000FC00
0000FE00
00007E00
00007E00
00007F00
00003F00
00003F00
00003F80
00001F80
00001F80
00000FC0
00000FC0
00000FE0
000007E0
000007E0
000007F0
000003F0
ENDCHAR
STARTCHAR 005D
ENCODING 93
SWIDTH 315 0
DWIDTH 21 0
BBX 15 64 1 -12
BITMAP
FFFE
FFFE
FFFE
FFFE
FFFE
007E
007E
007E
007E
007E
007E
007E
007E
007E
007E
007E
007E
007E
007E
007E
007E
007E
007E
007E
007E
007E
007E
007E
007E
007E
007E
007E
007E
007E
007E
007E
007E
007E
007E
007E
007E
007E
007E
007E
007E
007E
007E
007E
007E
007E
007E
007E
007E
007E
007E
007E
007E
007E
007E
FFFE
FFFE
FFFE
FFFE
FFFE
ENDCHAR
STARTCHAR 005E
ENCODING 94
SWIDTH 555 0
DWIDTH 37 0
BBX 31 25 3 21
BITMAP
0007E000
000FF000
000FF000
001FF800
003FF800
003FFC00
007FFC00
007E7E00
00FC7F00
00FC3F00
01F83F80
03F81F80
03F01FC0
07F00FC0
07E007E0
0FE007E0
0FC003F0
1F8003F8
3F8001F8
3F0001FC
7F0000FC
7E00007E
FE00007E
3C000038
08000030
ENDCHAR
STARTCHAR 005F
ENCODING 95
SWIDTH 480 0
DWIDTH 32 0
BBX 33 5 0 -12
BITMAP
FFFFFFFF80
FFFFFFFF80
FFFFFFFF80
FFFFFFFF80
FFFFFFFF80
ENDCHAR
STARTCHAR 0060
ENCODING 96
SWIDTH 375 0
DWIDTH 25 0
BBX 13 12 4 40
BITMAP
1800
3C00
7E00
FF00
7F00
3F80
1FC0
0FE0
03F0
01F8
00F0
0040
ENDCHAR
STARTCHAR 0061
ENCODING 97
SWIDTH 510 0
DWIDTH 34 0
BBX 27 37 3 -1
BITMAP
000C0000
07FFF000
0FFFFC00
0FFFFE00
0FFFFF00
0FFFFF80
0C007F80
00003FC0
00001FC0
00000FC0
00000FE0
000007E0
000007E0
000007E0
000007E0
007FE7E0
03FFFFE0
0FFFFFE0
1FFFFFE0
3FFFFFE0
7FC00FE0
7F0007E0
FE0007E0
FE0007E0
FC0007E0
FC0007E0
FC0007E0
FC0007E0
FE0007E0
FE0007E0
7F8007E0
7FFDFFE0
3FFFFFE0
1FFFFFE0
0FFFFFE0
03FFFFC0
003FC000
ENDCHAR
STARTCHAR 0062
ENCODING 98
SWIDTH 585 0
DWIDTH 39 0
BBX 31 53 5 -1
BITMAP
06000000
FE000000
FE000000
FE000000
FE000000
FE000000
FE000000
FE000000
FE000000
FE000000
FE000000
FE000000
FE000000
FE000000
FE000000
FE000000
FE000000
FE7FF800
FFFFFE00
FFFFFF80
FFFFFFC0
FFFFFFE0
FFE03FE0
FF000FF0
FE0007F8
FE0003F8
FE0001FC
FE0001FC
FE0000FC
FE0000FC
FE0000FE
FE0000FE
FE0000FE
FE0000FE
FE0000FE
FE0000FE
FE0000FE
FE0000FE
FE0000FE
FE0000FC
FE0001FC
FE0001FC
FE0001FC
FE0003F8
FE0007F8
FE000FF0
FE003FE0
FFFFFFE0
FFFFFFC0
FFFFFF00
FFFFFE00
3FFFF800
00FF8000
ENDCHAR
STARTCHAR 0063
ENCODING 99
SWIDTH 465 0
DWIDTH 31 0
BBX 27 37 3 -1
BITMAP
00008000
001FFF00
007FFFC0
01FFFFC0
03FFFFC0
07FFFF80
0FFC0380
1FF00000
1FC00000
3F800000
3F800000
3F000000
7F000000
7E000000
7E000000
7E000000
FE000000
FE000000
FE000000
FE000000
FE000000
7E000000
7E000000
7E000000
7F000000
7F000000
3F800000
3F800000
3FC00000
1FE00000
0FF800C0
0FFFFFC0
07FFFFC0
01FFFFC0
00FFFFE0
003FFFC0
0003F800
ENDCHAR
STARTCHAR 0064
ENCODING 100
SWIDTH 585 0
DWIDTH 39 0
BBX 31 53 3 -1
BITMAP
00000002
0000007E
0000007E
0000007E
0000007E
0000007E
0000007E
0000007E
0000007E
0000007E
0000007E
0000007E
0000007E
0000007E
0000007E
0000007E
0000007E
003FFC7E
00FFFF7E
01FFFFFE
07FFFFFE
07FFFFFE
0FF80FFE
1FE001FE
1FC000FE
3F80007E
3F80007E
7F00007E
7F00007E
7E00007E
7E00007E
7E00007E
FE00007E
FE00007E
FE00007E
FE00007E
FE00007E
7E00007E
7E00007E
7E00007E
7F00007E
7F00007E
3F80007E
3F80007E
1FC0007E
1FF0007E
0FF8007E
07FFFFFE
03FFFFFE
01FFFFFE
00FFFFFE
003FFFF8
0003FF00
ENDCHAR
STARTCHAR 0065
ENCODING 101
SWIDTH 555 0
DWIDTH 37 0
BBX 31 37 3 -1
BITMAP
00018000
001FFC00
00FFFF00
01FFFFC0
03FFFFE0
07FFFFE0
0FF80FF0
1FE007F8
1FC003F8
3F8001F8
3F0001FC
7F0000FC
7F0000FC
7E0000FC
7E0000FC
7FFFFFFE
FFFFFFFE
FFFFFFFE
FFFFFFFE
FFFFFFFE
FE000000
7E000000
7E000000
7E000000
7F000000
7F000000
3F800000
3F800000
3FC00000
1FE00000
0FF80070
0FFFFFF0
07FFFFF0
01FFFFF0
00FFFFF0
003FFFE0
0003FC00
ENDCHAR
STARTCHAR 0066
ENCODING 102
SWIDTH 375 0
DWIDTH 25 0
BBX 21 52 5 0
BITMAP
001F80
01FFF8
07FFF8
0FFFF8
1FFFF8
3FFFF0
3FC000
7F8000
7F0000
7E0000
7E0000
FE0000
FE0000
FE0000
FE0000
FE0000
FE0000
FFFFF0
FFFFF0
FFFFF0
FFFFF0
FFFFF0
FFFFF0
FE0000
FE0000
FE0000
FE0000
FE0000
FE0000
FE0000
FE0000
FE0000
FE0000
FE0000
FE0000
FE0000
FE0000
FE0000
FE0000
FE0000
FE0000
FE0000
FE0000
FE0000
FE0000
FE0000
FE0000
FE0000
FE0000
FE0000
FE0000
FE0000
ENDCHAR
STARTCHAR 0067
ENCODING 103
SWIDTH 570 0
DWIDTH 38 0
BBX 30 48 3 -13
BITMAP
001FFFC0
007FFFFC
01FFFFFC
03FFFFFC
07FFFFFC
0FFC01FC
1FF000FC
1FC000FC
3F8000FC
3F8000FC
7F0000FC
7F0000FC
7E0000FC
7E0000FC
7E0000FC
FE0000FC
FE0000FC
FE0000FC
FE0000FC
FE0000FC
7E0000FC
7E0000FC
7F0000FC
7F0000FC
3F8000FC
3FC000FC
1FE001FC
1FF007FC
0FFFFFFC
07FFFFFC
03FFFFFC
01FFFFFC
007FFCFC
0007E0FC
000000FC
000000FC
000000FC
000001FC
000001F8
000003F8
100007F8
1E001FF0
1FFFFFE0
1FFFFFE0
1FFFFF80
3FFFFF00
07FFF800
00040000
ENDCHAR
STARTCHAR 0068
ENCODING 104
SWIDTH 570 0
DWIDTH 38 0
BBX 28 52 5 0
BITMAP
06000000
FE000000
FE000000
FE000000
FE000000
FE000000
FE000000
FE000000
FE000000
FE000000
FE000000
FE000000
FE000000
FE000000
FE000000
FE000000
FE000000
FEFFF000
FFFFFC00
FFFFFF00
FFFFFF80
FFFFFFC0
FF807FC0
FE001FE0
FE000FE0
FE0007F0
FE0007F0
FE0007F0
FE0003F0
FE0003F0
FE0003F0
FE0003F0
FE0003F0
FE0003F0
FE0003F0
FE0003F0
FE0003F0
FE0003F0
FE0003F0
FE0003F0
FE0003F0
FE0003F0
FE0003F0
FE0003F0
FE0003F0
FE0003F0
FE0003F0
FE0003F0
FE0003F0
FE0003F0
FE0003F0
FE0003F0
ENDCHAR
STARTCHAR 0069
ENCODING 105
SWIDTH 240 0
DWIDTH 16 0
BBX 8 49 4 0
BITMAP
3E
7F
7F
FF
FF
7F
7F
3E
00
00
00
00
00
00
7F
7F
7F
7F
7F
7F
7F
7F
7F
7F
7F
7F
7F
7F
7F
7F
7F
7F
7F
7F
7F
7F
7F
7F
7F
7F
7F
7F
7F
7F
7F
7F
7F
7F
7F
ENDCHAR
STARTCHAR 006A
ENCODING 106
SWIDTH 240 0
DWIDTH 16 0
BBX 17 61 -5 -12
BITMAP
001F00
003F80
003F80
007F80
007F80
003F80
003F80
001F00
000000
000000
000000
000000
000000
000000
003F80
003F80
003F80
003F80
003F80
003F80
003F80
003F80
003F80
003F80
003F80
003F80
003F80
003F80
003F80
003F80
003F80
003F80
003F80
003F80
003F80
003F80
003F80
003F80
003F80
003F80
003F80
003F80
003F80
003F80
003F80
003F80
003F80
003F80
003F80
003F80
003F00
003F00
003F00
007F00
007F00
01FE00
7FFE00
7FFC00
7FF800
7FF000
FFC000
ENDCHAR
STARTCHAR 006B
ENCODING 107
SWIDTH 510 0
DWIDTH 34 0
BBX 29 52 5 0
BITMAP
06000000
FE000000
FE000000
FE000000
FE000000
FE000000
FE000000
FE000000
FE000000
FE000000
FE000000
FE000000
FE000000
FE000000
FE000000
FE000000
FE000000
FE000FE0
FE001FC0
FE003FC0
FE007F80
FE007F00
FE00FE00
FE01FC00
FE03F800
FE07F000
FE0FE000
FE1FC000
FE3F8000
FE7F0000
FEFE0000
FFFC0000
FFF80000
FFFC0000
FFFE0000
FFFF0000
FEFF8000
FE7FC000
FE3FE000
FE0FF000
FE07F800
FE03F800
FE03FC00
FE01FE00
FE00FF00
FE007F80
FE003F80
FE001FC0
FE001FE0
FE000FE0
FE0007F0
FE0007F8
ENDCHAR
STARTCHAR 006C
ENCODING 108
SWIDTH 270 0
DWIDTH 18 0
BBX 12 53 5 -1
BITMAP
0400
FC00
FC00
FC00
FC00
FC00
FC00
FC00
FC00
FC00
FC00
FC00
FC00
FC00
FC00
FC00
FC00
FC00
FC00
FC00
FC00
FC00
FC00
FC00
FC00
FC00
FC00
FC00
FC00
FC00
FC00
FC00
FC00
FC00
FC00
FC00
FC00
FC00
FC00
FC00
FC00
FC00
FC00
FC00
FE00
FE00
7F00
7FF0
7FE0
3FE0
1FE0
0FE0
00E0
ENDCHAR
STARTCHAR 006D
ENCODING 109
SWIDTH 855 0
DWIDTH 57 0
BBX 47 35 5 0
BITMAP
0FFFF007FF00
FFFFFC3FFFC0
FFFFFEFFFFF0
FFFFFFFFFFF8
FFFFFFFFFFF8
FF00FFFC07FC
FE003FE001FC
FE001FC000FE
FE000FC000FE
FE000FC0007E
FE000FE0007E
FE000FE0007E
FE0007E0007E
FE0007E0007E
FE0007E0007E
FE0007E0007E
FE0007E0007E
FE0007E0007E
FE0007E0007E
FE0007E0007E
FE0007E0007E
FE0007E0007E
FE0007E0007E
FE0007E0007E
FE0007E0007E
FE0007E0007E
FE0007E0007E
FE0007E0007E
FE0007E0007E
FE0007E0007E
FE0007E0007E
FE0007E0007E
FE0007E0007E
FE0007E0007E
FE0007E0007E
ENDCHAR
STARTCHAR 006E
ENCODING 110
SWIDTH 570 0
DWIDTH 38 0
BBX 28 35 5 0
BITMAP
0FFFF000
FFFFFC00
FFFFFF00
FFFFFF80
FFFFFFC0
FF007FC0
FE001FE0
FE000FE0
FE0007F0
FE0007F0
FE0007F0
FE0003F0
FE0003F0
FE0003F0
FE0003F0
FE0003F0
FE0003F0
FE0003F0
FE0003F0
FE0003F0
FE0003F0
FE0003F0
FE0003F0
FE0003F0
FE0003F0
FE0003F0
FE0003F0
FE0003F0
FE0003F0
FE0003F0
FE0003F0
FE0003F0
FE0003F0
FE0003F0
FE0003F0
ENDCHAR
STARTCHAR 006F
ENCODING 111
SWIDTH 585 0
DWIDTH 39 0
BBX 33 37 3 -1
BITMAP
0000800000
001FFE0000
007FFF8000
01FFFFC000
03FFFFE000
07FFFFF000
0FF80FF800
1FE003FC00
1FC001FE00
3F8000FE00
3F80007E00
7F00007F00
7F00007F00
7F00003F00
7E00003F80
7E00003F80
FE00003F80
FE00003F80
FE00003F80
FE00003F80
FE00003F80
7E00003F80
7E00003F80
7E00003F00
7F00003F00
7F00007F00
3F80007F00
3F8000FE00
1FC001FE00
1FE003FC00
0FF807F800
07FFFFF800
03FFFFF000
01FFFFE000
00FFFF8000
003FFE0000
0007F00000
ENDCHAR
STARTCHAR 0070
ENCODING 112
SWIDTH 585 0
DWIDTH 39 0
BBX 31 47 5 -12
BITMAP
0FFFF000
FFFFFC00
FFFFFF00
FFFFFF80
FFFFFFC0
FF00FFE0
FE001FF0
FE000FF0
FE0007F8
FE0003F8
FE0001FC
FE0001FC
FE0000FC
FE0000FE
FE0000FE
FE0000FE
FE0000FE
FE0000FE
FE0000FE
FE0000FE
FE0000FE
FE0000FE
FE0000FC
FE0000FC
FE0001FC
FE0001FC
FE0003F8
FE0007F8
FF000FF0
FFC01FF0
FFFFFFE0
FFFFFFC0
FFFFFF80
FFFFFF00
FE7FFC00
FE0FC000
FE000000
FE000000
FE000000
FE000000
FE000000
FE000000
FE000000
FE000000
FE000000
FE000000
FE000000
ENDCHAR
STARTCHAR 0071
ENCODING 113
SWIDTH 585 0
DWIDTH 39 0
BBX 31 47 3 -12
BITMAP
000FFFE0
007FFFFE
01FFFFFE
03FFFFFE
07FFFFFE
0FFE01FE
1FF0007E
1FE0007E
3FC0007E
3F80007E
7F00007E
7F00007E
7F00007E
7E00007E
7E00007E
FE00007E
FE00007E
FE00007E
FE00007E
FE00007E
7E00007E
7E00007E
7E00007E
7F00007E
7F00007E
3F00007E
3F80007E
3FC0007E
1FE001FE
0FF807FE
0FFFFFFE
07FFFFFE
03FFFFFE
00FFFFFE
007FFE7E
0007E07E
0000007E
0000007E
0000007E
0000007E
0000007E
0000007E
0000007E
0000007E
0000007E
0000007E
0000007E
ENDCHAR
STARTCHAR 0072
ENCODING 114
SWIDTH 375 0
DWIDTH 25 0
BBX 20 35 5 0
BITMAP
07FFF0
7FFFF0
FFFFF0
FFFFF0
FFFFE0
FF0060
FE0000
FE0000
FE0000
FE0000
FE0000
FE0000
FE0000
FE0000
FE0000
FE0000
FE0000
FE0000
FE0000
FE0000
FE0000
FE0000
FE0000
FE0000
FE0000
FE0000
FE0000
FE0000
FE0000
FE0000
FE0000
FE0000
FE0000
FE0000
FE0000
ENDCHAR
STARTCHAR 0073
ENCODING 115
SWIDTH 435 0
DWIDTH 29 0
BBX 24 37 3 -1
BITMAP
000800
01FFF8
07FFFC
1FFFFC
3FFFFC
7FFFFC
7F8018
7E0000
FE0000
FC0000
FC0000
FE0000
FE0000
7F0000
7FC000
3FF000
3FFE00
0FFF80
07FFE0
01FFF8
007FFC
000FFE
0003FE
0000FF
00007F
00003F
00003F
00003F
00003F
00007F
7000FF
FFDFFE
FFFFFC
FFFFFC
FFFFF0
7FFFC0
03FC00
ENDCHAR
STARTCHAR 0074
ENCODING 116
SWIDTH 390 0
DWIDTH 26 0
BBX 21 46 5 -1
BITMAP
7C0000
FC0000
FC0000
FC0000
FC0000
FC0000
FC0000
FC0000
FC0000
FC0000
FFFFE0
FFFFE0
FFFFE0
FFFFE0
FFFFE0
FFFFE0
FC0000
FC0000
FC0000
FC0000
FC0000
FC0000
FC0000
FC0000
FC0000
FC0000
FC0000
FC0000
FC0000
FC0000
FC0000
FC0000
FC0000
FC0000
FC0000
FC0000
FE0000
FE0000
7F0000
7F8070
7FFFF0
3FFFF0
1FFFF0
0FFFF8
07FFE0
007E00
ENDCHAR
STARTCHAR 0075
ENCODING 117
SWIDTH 570 0
DWIDTH 38 0
BBX 28 36 5 -1
BITMAP
FC0003F0
FC0003F0
FC0003F0
FC0003F0
FC0003F0
FC0003F0
FC0003F0
FC0003F0
FC0003F0
FC0003F0
FC0003F0
FC0003F0
FC0003F0
FC0003F0
FC0003F0
FC0003F0
FC0003F0
FC0003F0
FC0003F0
FC0003F0
FC0003F0
FC0003F0
FC0003F0
FE0003F0
FE0003F0
FE0003F0
7F0003F0
7F0003F0
7F8003F0
3FE003F0
3FFFFFF0
1FFFFFF0
0FFFFFF0
07FFFFF0
01FFFFC0
001FE000
ENDCHAR
STARTCHAR 0076
ENCODING 118
SWIDTH 495 0
DWIDTH 33 0
BBX 31 35 1 0
BITMAP
FE00007E
FE00007E
7E0000FE
7F0000FE
7F0000FC
7F0000FC
3F0001FC
3F8001F8
3F8001F8
1F8003F8
1FC003F0
1FC003F0
0FC007F0
0FE007E0
0FE007E0
07E00FE0
07F00FC0
03F00FC0
03F01F80
03F81F80
01F81F80
01F83F00
00FC3F00
00FC3E00
00FE7E00
007E7E00
007EFC00
003FFC00
003FF800
003FF800
001FF800
001FF000
000FF000
000FE000
0007E000
ENDCHAR
STARTCHAR 0077
ENCODING 119
SWIDTH 765 0
DWIDTH 51 0
BBX 50 35 1 0
BITMAP
FE0003F0001FC0
FE0003F0001F80
7E0003F0001F80
7F0003F0003F80
7F0003F8003F00
3F0007F8003F00
3F0007F8003F00
3F8007F8007F00
3F800FFC007E00
1F800FFC007E00
1F800FFC007E00
1FC00FFC00FE00
0FC01FFE00FC00
0FC01F7E00FC00
0FC01F3E00FC00
0FE01F3E01F800
07E03E3F01F800
07E03E1F01F800
07F03E1F03F000
03F07E1F83F000
03F07C0F83F000
03F87C0F87E000
01F8FC0FC7E000
01F8F807C7E000
00FCF807CFC000
00FDF807EFC000
00FDF003EFC000
007FF003FF8000
007FF003FF8000
007FE001FF0000
003FE001FF0000
003FC001FF0000
001FC000FE0000
001FC000FE0000
001F8000FC0000
ENDCHAR
STARTCHAR 0078
ENCODING 120
SWIDTH 510 0
DWIDTH 34 0
BBX 32 35 1 0
BITMAP
7F0000FE
7F0001FC
3F8001F8
1FC003F8
1FC007F0
0FE007E0
07F00FE0
03F01FC0
03F81F80
01FC3F00
00FE7F00
00FE7E00
007FFC00
003FFC00
003FF800
001FF000
000FF000
000FF000
001FF800
003FFC00
007FFE00
007EFE00
00FC7F00
01FC3F80
01F83F80
03F01FC0
07F00FE0
0FE007E0
0FC007F0
1FC003F8
1F8003F8
3F0001FC
7F0000FE
7E0000FE
FE00007F
ENDCHAR
STARTCHAR 0079
ENCODING 121
SWIDTH 495 0
DWIDTH 33 0
BBX 32 48 0 -13
BITMAP
7F00007F
7F00007F
3F00007E
3F80007E
3F80007E
3F8000FE
1F8000FC
1FC000FC
1FC000FC
0FC001FC
0FE001F8
0FE001F8
07E001F8
07F003F0
03F003F0
03F003F0
03F807E0
01F807E0
01F807E0
01FC07C0
00FC0FC0
00FE0FC0
007E0F80
007E1F80
003F1F80
003F1F00
001FBF00
001FBF00
001FFE00
000FFE00
000FFE00
0007FC00
0007FC00
0003F800
0003F800
0001F800
0003F000
0003F000
0007E000
000FE000
000FC000
003F8000
7FFF8000
7FFF0000
7FFE0000
FFF80000
FFE00000
0C000000
ENDCHAR
STARTCHAR 007A
ENCODING 122
SWIDTH 465 0
DWIDTH 31 0
BBX 27 35 2 0
BITMAP
7FFFFFC0
7FFFFFC0
7FFFFFC0
7FFFFFC0
7FFFFFC0
7FFFFFC0
00003F80
00007F00
0000FE00
0001FC00
0003FC00
0003F800
0007F000
000FE000
001FC000
001FC000
003F8000
007F0000
00FE0000
00FE0000
01FC0000
03F80000
03F80000
07F00000
0FE00000
0FE00000
1FC00000
3F800000
3F800000
7F000000
7FFFFFE0
FFFFFFE0
FFFFFFE0
FFFFFFE0
FFFFFFE0
ENDCHAR
STARTCHAR 007B
ENCODING 123
SWIDTH 330 0
DWIDTH 22 0
BBX 19 64 3 -12
BITMAP
0007E0
003FE0
007FE0
00FFE0
01FFE0
01FC00
03F800
03F000
03F000
03F000
03F000
03F000
03F000
03F000
03F000
03F000
03F000
03F000
03F000
03F000
03F000
03F000
03F000
03F000
03E000
07E000
07E000
0FE000
1FC000
7FC000
FF8000
FF0000
FF0000
FF8000
FFC000
1FC000
0FE000
07E000
07E000
03E000
03F000
03F000
03F000
03F000
03F000
03F000
03F000
03F000
03F000
03F000
03F000
03F000
03F000
03F000
03F000
03F000
03F000
03F800
01FC00
01FFE0
00FFE0
007FE0
003FE0
000FE0
ENDCHAR
STARTCHAR 007C
ENCODING 124
SWIDTH 270 0
DWIDTH 18 0
BBX 6 64 6 -12
BITMAP
FC
FC
FC
FC
FC
FC
FC
FC
FC
FC
FC
FC
FC
FC
FC
FC
FC
FC
FC
FC
FC
FC
FC
FC
FC
FC
FC
FC
FC
FC
FC
FC
FC
FC
FC
FC
FC
FC
FC
FC
FC
FC
FC
FC
FC
FC
FC
FC
FC
FC
FC
FC
FC
FC
FC
FC
FC
FC
FC
FC
FC
FC
FC
FC
ENDCHAR
STARTCHAR 007D
ENCODING 125
SWIDTH 330 0
DWIDTH 22 0
BBX 19 64 1 -12
BITMAP
FC0000
FF0000
FF8000
FFC000
FFE000
0FF000
07F000
03F000
03F000
03F000
01F000
01F000
01F000
01F000
01F000
01F000
01F000
01F000
01F000
01F000
01F000
01F000
01F000
01F000
01F800
01F800
01F800
01FC00
00FE00
00FF80
007FE0
003FE0
003FE0
007FE0
007FC0
00FE00
01FC00
01F800
01F800
01F800
01F000
01F000
01F000
01F000
01F000
01F000
01F000
01F000
01F000
01F000
01F000
01F000
01F000
01F000
03F000
03F000
03F000
07F000
0FF000
FFE000
FFE000
FFC000
FF0000
FC0000
ENDCHAR
STARTCHAR 007E
ENCODING 126
SWIDTH 555 0
DWIDTH 37 0
BBX 32 11 3 14
BITMAP
07F80018
0FFE001F
1FFF803E
3FFFC03E
7FFFF07E
7E1FFFFC
FC07FFFC
F801FFF8
F800FFF0
30003FE0
00000300
ENDCHAR
STARTCHAR 00A0
ENCODING 160
SWIDTH 225 0
DWIDTH 15 0
BBX 0 0 0 0
BITMAP
ENDCHAR
STARTCHAR 00A1
ENCODING 161
SWIDTH 270 0
DWIDTH 18 0
BBX 9 47 5 -12
BITMAP
1C00
7E00
FF00
FF00
FF80
FF80
FF00
7F00
3E00
0000
0000
0000
0000
0000
0000
0000
3C00
3C00
3C00
3E00
3E00
3E00
7E00
7E00
7E00
7E00
7E00
7E00
7E00
7E00
7E00
7E00
7F00
7F00
7F00
7F00
7F00
7F00
7F00
7F00
7F00
7F00
7F00
7F00
7F00
7F00
7F00
ENDCHAR
STARTCHAR 00A2
ENCODING 162
SWIDTH 555 0
DWIDTH 37 0
BBX 26 53 6 -7
BITMAP
0007C000
0007C000
0007C000
0007C000
0007C000
0007C000
0007C000
0007C000
0007C000
000FFC00
007FFF80
01FFFF80
03FFFF80
07FFFF80
0FFE1F00
1FE00100
3FC00000
3F800000
7F000000
7F000000
7E000000
FE000000
FE000000
FC000000
FC000000
FC000000
FC000000
FC000000
FC000000
FC000000
FE000000
FE000000
FE000000
7F000000
7F000000
3F800000
3FC00000
1FF00080
1FFE1F80
0FFFFFC0
07FFFFC0
01FFFFC0
007FFFC0
000FFC00
0007C000
0007C000
0007C000
0007C000
0007C000
0007C000
0007C000
0007C000
0007C000
ENDCHAR
STARTCHAR 00A3
ENCODING 163
SWIDTH 555 0
DWIDTH 37 0
BBX 31 47 4 0
BITMAP
0001FFC0
0007FFF8
001FFFF8
003FFFF8
007FFFF8
00FFE7F0
00FF0030
00FE0000
01FC0000
01FC0000
01F80000
01F80000
03F80000
03F80000
03F00000
03F00000
03F00000
03F00000
03F00000
03F00000
03F00000
03F00000
FFFFFF80
FFFFFF80
FFFFFF80
FFFFFF80
FFFFFF80
03F00000
03F00000
03F00000
03F00000
03F00000
03F00000
03F00000
03F00000
03F00000
03F00000
03F00000
07F00000
07F00000
07F00000
07E00000
07FFFFFE
07FFFFFE
07FFFFFE
07FFFFFE
0FFFFFFE
ENDCHAR
STARTCHAR 00A4
ENCODING 164
SWIDTH 555 0
DWIDTH 37 0
BBX 31 31 3 7
BITMAP
10000010
38000038
7C00007C
FE0FE0FE
7F3FFDFE
3FFFFFFC
1FFFFFF8
0FFFFFF0
0FF00FE0
0FE007E0
0FC003F0
0F8001F0
1F8001F0
1F0001F0
1F0000F8
1F0000F8
1F0000F8
1F0000F8
1F0001F0
1F8001F0
0F8003F0
0FC003F0
0FE007E0
0FF81FE0
1FFFFFF0
3FFFFFF8
7FFFFFFC
FF3FF9FE
7E03807E
3C00003C
18000018
ENDCHAR
STARTCHAR 00A5
ENCODING 165
SWIDTH 555 0
DWIDTH 37 0
BBX 35 46 1 0
BITMAP
FE00000FE0
7F00000FE0
3F00001FC0
3F80001FC0
1F80003F80
1FC0003F00
0FC0007F00
0FE0007E00
07E000FE00
07F000FC00
03F001FC00
03F801F800
01F803F800
00FC03F000
00FE07E000
007E07E000
007F0FC000
003F0FC000
001F9F8000
001FFF0000
000FFF0000
000FFE0000
0007FE0000
0FFFFFFF00
0FFFFFFF00
0FFFFFFF00
0FFFFFFF00
0001F80000
0001F80000
0001F80000
0001F80000
0001F80000
0001F80000
0001F80000
0FFFFFFF00
0FFFFFFF00
0FFFFFFF00
0FFFFFFF00
0FFFFFFF00
0001F80000
0001F80000
0001F80000
0001F80000
0001F80000
0001F80000
0001F80000
ENDCHAR
STARTCHAR 00A6
ENCODING 166
SWIDTH 270 0
DWIDTH 18 0
BBX 6 64 6 -12
BITMAP
FC
FC
FC
FC
FC
FC
FC
FC
FC
FC
FC
FC
FC
FC
FC
FC
FC
FC
FC
FC
FC
FC
FC
FC
FC
00
00
00
00
00
00
00
00
00
00
00
00
00
00
FC
FC
FC
FC
FC
FC
FC
FC
FC
FC
FC
FC
FC
FC
FC
FC
FC
FC
FC
FC
FC
FC
FC
FC
FC
ENDCHAR
STARTCHAR 00A7
ENCODING 167
SWIDTH 480 0
DWIDTH 32 0
BBX 27 54 3 -7
BITMAP
007FF800
01FFFF80
07FFFF80
0FFFFF80
0FFFFF80
1FE00F00
1F800100
3F000000
3F000000
3F000000
3F000000
3F800000
1F800000
1FE00000
0FF80000
0FFF0000
07FFE000
07FFF800
1FFFFC00
1F9FFF00
3F03FF80
7E00FFC0
7C003FC0
FC000FC0
FC000FE0
FC0007E0
FC0007E0
FC0007E0
FC0007E0
FE0007E0
7F0007C0
7FC00FC0
3FF01F80
1FFE3F80
0FFFFF00
07FFFE00
01FFF800
003FFC00
0007FE00
0001FF00
00007F80
00003F80
00001F80
00001FC0
00000FC0
00001FC0
00001F80
60003F80
7C007F80
7FFFFF00
FFFFFE00
FFFFFC00
7FFFF800
0FFFC000
ENDCHAR
STARTCHAR 00A8
ENCODING 168
SWIDTH 375 0
DWIDTH 25 0
BBX 21 8 2 41
BITMAP
3C01E0
7E03F0
7F07F0
FF07F8
FF07F8
7F07F0
7E03F0
3C01E0
ENDCHAR
STARTCHAR 00A9
ENCODING 169
SWIDTH 810 0
DWIDTH 54 0
BBX 46 48 4 -1
BITMAP
00007FF80000
0003FFFF0000
000FFFFFC000
003FFFFFF000
007FF03FF800
00FF0003FC00
01FC0000FE00
03F800003F00
07E000001F80
0FC000000FC0
0FC007F007C0
1F803FFE07E0
1F00FFFF03F0
3F01FFFF01F0
3E03FFFF01F0
3E03F00600F8
7C07E00000F8
7C0FC00000F8
7C0F800000F8
7C0F8000007C
F81F8000007C
F81F0000007C
F81F0000007C
F81F0000007C
F81F0000007C
F81F0000007C
F81F0000007C
781F8000007C
7C0F8000007C
7C0FC00000F8
7C0FC00000F8
7C07E00000F8
3E07F80701F8
3E03FFFF01F0
3F01FFFF01F0
1F00FFFF03E0
1F803FFE07E0
0FC007E007C0
07E000000FC0
07F000001F80
03F800007F00
01FE0000FE00
00FF8007FC00
007FFFFFF800
001FFFFFE000
0007FFFFC000
0001FFFF0000
00003FF00000
ENDCHAR
STARTCHAR 00AA
ENCODING 170
SWIDTH 375 0
DWIDTH 25 0
BBX 19 25 3 22
BITMAP
0FFC00
3FFF00
3FFF80
1FFFC0
1C1FE0
0007E0
0003E0
0001E0
0001E0
0001E0
07FFE0
1FFFE0
7FFFE0
7FFFE0
FC01E0
F801E0
F001E0
F001E0
F001E0
F801E0
FE01E0
7FFFE0
7FFFE0
1FFFE0
07FF80
ENDCHAR
STARTCHAR 00AB
ENCODING 171
SWIDTH 495 0
DWIDTH 33 0
BBX 29 30 2 4
BITMAP
00200080
003801C0
007C01F0
00FC03F0
01FC07F0
01F807E0
03F00FC0
07F01FC0
07E03F80
0FE03F80
1FC07F00
3F80FE00
3F80FE00
7F01FC00
FF03FC00
FF03F800
7F01FC00
3F80FE00
3F80FE00
1FC07F00
0FE03F00
07E03F80
07F01FC0
03F00FC0
01F807E0
01FC07E0
00FC03F0
007E01F8
007801E0
00200080
ENDCHAR
STARTCHAR 00AC
ENCODING 172
SWIDTH 555 0
DWIDTH 37 0
BBX 30 22 4 4
BITMAP
FFFFFFFC
FFFFFFFC
FFFFFFFC
FFFFFFFC
FFFFFFFC
0000007C
0000007C
0000007C
0000007C
0000007C
0000007C
0000007C
0000007C
0000007C
0000007C
0000007C
0000007C
0000007C
0000007C
0000007C
0000007C
0000007C
ENDCHAR
STARTCHAR 00AD
ENCODING 173
SWIDTH 285 0
DWIDTH 19 0
BBX 16 6 2 17
BITMAP
FFFF
FFFF
FFFF
FFFF
FFFF
FFFF
ENDCHAR
STARTCHAR 00AE
ENCODING 174
SWIDTH 810 0
DWIDTH 54 0
BBX 46 48 4 -1
BITMAP
00007FF80000
0003FFFF0000
000FFFFFC000
003FFFFFF000
007FF03FF800
00FF0003FC00
01FC0000FE00
03F800003F00
07E000001F80
0FC000000FC0
0FC0060007C0
1F83FFF007E0
1F03FFFC03F0
3F03FFFE01F0
3E03FFFF01F0
3E03E03F00F8
7C03E01F80F8
7C03E00F80F8
7C03E00F80F8
7C03E00F807C
F803E00F807C
F803E01F807C
F803E03F007C
F803FFFF007C
F803FFFE007C
F803FFF8007C
F803FFF0007C
7803E1F8007C
7C03E0FC007C
7C03E07C00F8
7C03E03E00F8
7C03E03F00F8
3E03E01F01F8
3E03E00F81F0
3F03E00FC1F0
1F03E007C3E0
1F83E007E7E0
0FC0000007C0
07E000000FC0
07F000001F80
03F800007F00
01FE0000FE00
00FF8007FC00
007FFFFFF800
001FFFFFE000
0007FFFFC000
0001FFFF0000
00003FF00000
ENDCHAR
STARTCHAR 00AF
ENCODING 175
SWIDTH 375 0
DWIDTH 25 0
BBX 19 4 3 43
BITMAP
FFFFE0
FFFFE0
FFFFE0
FFFFE0
ENDCHAR
STARTCHAR 00B0
ENCODING 176
SWIDTH 330 0
DWIDTH 22 0
BBX 18 19 2 33
BITMAP
01E000
0FFC00
1FFE00
3FFF00
7FFF80
7C0FC0
F807C0
F803C0
F003C0
F003C0
F003C0
F803C0
F807C0
7C0FC0
7FBF80
3FFF00
1FFE00
0FFC00
01E000
ENDCHAR
STARTCHAR 00B1
ENCODING 177
SWIDTH 555 0
DWIDTH 37 0
BBX 30 41 4 0
BITMAP
000F8000
000F8000
000F8000
000F8000
000F8000
000F8000
000F8000
000F8000
000F8000
000F8000
000F8000
000F8000
000F8000
FFFFFFFC
FFFFFFFC
FFFFFFFC
FFFFFFFC
FFFFFFFC
000F8000
000F8000
000F8000
000F8000
000F8000
000F8000
000F8000
000F8000
000F8000
000F8000
000F8000
000F8000
000F8000
000F8000
00000000
00000000
00000000
00000000
FFFFFFFC
FFFFFFFC
FFFFFFFC
FFFFFFFC
FFFFFFFC
ENDCHAR
STARTCHAR 00B2
ENCODING 178
SWIDTH 345 0
DWIDTH 23 0
BBX 19 26 2 21
BITMAP
0FFC00
3FFE00
7FFF00
FFFF80
7C1F80
300FC0
0007C0
0007C0
0007C0
000F80
001F80
003F00
007E00
00FE00
01FC00
03F800
07E000
0FC000
1F8000
3F0000
3E0000
3E0000
7FFFE0
7FFFE0
7FFFE0
7FFFE0
ENDCHAR
STARTCHAR 00B3
ENCODING 179
SWIDTH 345 0
DWIDTH 23 0
BBX 19 27 2 20
BITMAP
0FF800
7FFE00
7FFF00
7FFF80
381F80
200F80
000F80
000780
000F80
001F00
07FF00
07FE00
07FE00
07FF00
007F80
000FC0
0007C0
0003E0
0003E0
0003E0
0007C0
600FC0
7FFFC0
7FFF80
FFFF00
7FFC00
010000
ENDCHAR
STARTCHAR 00B4
ENCODING 180
SWIDTH 375 0
DWIDTH 25 0
BBX 13 12 8 40
BITMAP
00C0
01E0
03F0
07F8
07F0
0FE0
1FC0
3F80
7F00
FE00
3800
1000
ENDCHAR
STARTCHAR 00B5
ENCODING 181
SWIDTH 570 0
DWIDTH 38 0
BBX 28 47 5 -12
BITMAP
FE0003F0
FE0003F0
FE0003F0
FE0003F0
FE0003F0
FE0003F0
FE0003F0
FE0003F0
FE0003F0
FE0003F0
FE0003F0
FE0003F0
FE0003F0
FE0003F0
FE0003F0
FE0003F0
FE0003F0
FE0003F0
FE0003F0
FE0003F0
FE0003F0
FE0003F0
FE0003F0
FE0003F0
FE0003F0
FE0003F0
FF0003F0
FF0003F0
FF8003F0
FFE003F0
FFFFFFF0
FFFFFFF0
FFFFFFF0
FDFFFFF0
FCFFFFC0
FC0FF000
FC000000
FC000000
FC000000
FC000000
FC000000
FC000000
FC000000
FC000000
FC000000
FC000000
FC000000
ENDCHAR
STARTCHAR 00B6
ENCODING 182
SWIDTH 645 0
DWIDTH 43 0
BBX 33 59 3 -12
BITMAP
00003FE000
000FFFFF80
007FFFFF80
01FFFFFF80
07FFFFFF80
0FFFFCFF80
1FFFF80F80
3FFFF80F80
7FFFF80F80
7FFFF80F80
7FFFF80F80
FFFFF80F80
FFFFF80F80
FFFFF80F80
FFFFF80F80
FFFFF80F80
FFFFF80F80
FFFFF80F80
FFFFF80F80
FFFFF80F80
7FFFF80F80
7FFFF80F80
3FFFF80F80
3FFFF80F80
1FFFF80F80
0FFFF80F80
03FFF80F80
01FFF80F80
003FF80F80
0001F80F80
0000F80F80
0000F80F80
0000F80F80
0000F80F80
0000F80F80
0000F80F80
0000F80F80
0000F80F80
0000F80F80
0000F80F80
0000F80F80
0000F80F80
0000F80F80
0000F80F80
0000F80F80
0000F80F80
0000F80F80
0000F80F80
0000F80F80
0000F80F80
0000F80F80
0000F80F80
0000F80F80
0000F80F80
0000F80F80
0000F80F80
0000F80F80
0000F80F80
0000F80F80
ENDCHAR
STARTCHAR 00B7
ENCODING 183
SWIDTH 240 0
DWIDTH 16 0
BBX 9 9 4 15
BITMAP
3C00
7F00
FF00
FF80
FF80
FF80
FF00
7F00
3C00
ENDCHAR
STARTCHAR 00B8
ENCODING 184
SWIDTH 375 0
DWIDTH 25 0
BBX 12 14 5 -13
BITMAP
07C0
0780
0F80
0F00
0FC0
1FE0
07F0
03F0
03F0
EFF0
FFF0
FFE0
FFC0
0C00
ENDCHAR
STARTCHAR 00B9
ENCODING 185
SWIDTH 345 0
DWIDTH 23 0
BBX 12 26 4 21
BITMAP
00F0
01F0
03F0
0FF0
3FF0
FFF0
FFF0
F9F0
E1F0
01F0
01F0
01F0
01F0
01F0
01F0
01F0
01F0
01F0
01F0
01F0
01F0
01F0
01F0
01F0
01F0
01F0
ENDCHAR
STARTCHAR 00BA
ENCODING 186
SWIDTH 435 0
DWIDTH 29 0
BBX 24 25 3 22
BITMAP
00FF00
07FFC0
0FFFF0
1FFFF8
3FC3FC
3F00FC
7E007E
7C003E
F8003E
F8001F
F8001F
F8001F
F8001F
F8001F
F8001F
F8001F
FC003E
7C003E
7E007E
3F00FC
3FC3F8
1FFFF8
0FFFF0
03FFC0
00FF00
ENDCHAR
STARTCHAR 00BB
ENCODING 187
SWIDTH 495 0
DWIDTH 33 0
BBX 28 29 3 5
BITMAP
3800E000
FC03E000
FC03F000
7E01F800
7F01FC00
3F00FC00
1F80FE00
1FC07F00
0FC03F00
0FE03F80
07F01FC0
03F81FC0
03F80FE0
01FC07F0
01FC07F0
03F80FE0
03F81FE0
07F01FC0
0FE03F80
0FE03F00
1FC07F00
1F80FE00
3F00FC00
7F01FC00
7E01F800
FC03F000
FC03F000
3801E000
10004000
ENDCHAR
STARTCHAR 00BC
ENCODING 188
SWIDTH 870 0
DWIDTH 58 0
BBX 53 47 4 0
BITMAP
00F00000000000
01F000001F8000
03F000003F0000
0FF000003E0000
3FF000007E0000
FFF00000FC0000
FFF00000FC0000
F9F00001F80000
E1F00001F80000
01F00003F00000
01F00003E00000
01F00007E00000
01F00007C00000
01F0000FC00000
01F0001F800000
01F0001F800000
01F0003F000000
01F0003F000000
01F0007E000000
01F0007C000000
01F000FC000000
01F001F8000780
01F001F8000F80
01F003F0001F80
01F003F0003F80
01F007E0007F80
000007C000FF80
00000FC001F780
00001F8003E780
00001F8007C780
00003F00078780
00003F000F8780
00007E001F0780
00007E003E0780
0000FC003C0780
0000F8007C0780
0001F800780780
0003F000FFFFF8
0003F000FFFFF8
0007E000FFFFF8
0007E000FFFFF8
000FC000000780
000F8000000780
001F8000000780
003F0000000780
003F0000000780
007E0000000780
ENDCHAR
STARTCHAR 00BD
ENCODING 189
SWIDTH 870 0
DWIDTH 58 0
BBX 51 47 4 0
BITMAP
00F00000000000
01F000007E0000
03F000007E0000
0FF00000FC0000
3FF00000F80000
FFF00001F80000
FFF00003F00000
F9F00003F00000
E1F00007E00000
01F00007E00000
01F0000FC00000
01F0000FC00000
01F0001F800000
01F0001F000000
01F0003F000000
01F0007E000000
01F0007E000000
01F000FC000000
01F000FC000000
01F001F8000000
01F001F0000000
01F003F00FFC00
01F007E03FFF00
01F007E07FFF80
01F00FC07FFF80
01F00FC07C0FC0
00001F803007C0
00001F000007C0
00003F000007C0
00003E000007C0
00007E00000FC0
0000FC00000F80
0000FC00001F00
0001F800003F00
0001F80000FE00
0003F00001FC00
0003E00003F800
0007E00007F000
000FC0000FC000
000FC0001F8000
001F80001F0000
001F80003E0000
003F00003E0000
003E00003FFFE0
007E00007FFFE0
00FC00007FFFE0
00FC00007FFFE0
ENDCHAR
STARTCHAR 00BE
ENCODING 190
SWIDTH 870 0
DWIDTH 58 0
BBX 55 47 2 0
BITMAP
0FF80000000000
7FFE000003F000
7FFF000007E000
7FFF800007C000
381F80000FC000
200F80001F8000
000F80001F8000
000780003F0000
000F80003F0000
001F00007E0000
07FF00007C0000
07FE0000FC0000
07FE0000F80000
07FF0001F80000
007F8003F00000
000FC003F00000
0007C007E00000
0003E007E00000
0003E00FC00000
0003E00F800000
0007C01F800000
600FC03F0001E0
7FFFC03F0003E0
7FFF807E0007E0
FFFF007E000FE0
7FFC00FC001FE0
010000F8003FE0
000001F8007DE0
000003F000F9E0
000003F001F1E0
000007E001E1E0
000007E003E1E0
00000FC007C1E0
00000FC00F81E0
00001F800F01E0
00001F001F01E0
00003F001E01E0
00007E003FFFFE
00007E003FFFFE
0000FC003FFFFE
0000FC003FFFFE
0001F8000001E0
0001F0000001E0
0003F0000001E0
0007E0000001E0
0007E0000001E0
000FC0000001E0
ENDCHAR
STARTCHAR 00BF
ENCODING 191
SWIDTH 390 0
DWIDTH 26 0
BBX 24 48 2 -13
BITMAP
000C00
003F00
007F80
007FC0
007FC0
007FC0
007F80
003F80
001F00
000000
000000
000000
000000
000000
000000
000000
001F00
001F00
001F80
001F00
003F00
003F00
007F00
007E00
00FC00
01FC00
03F800
07F000
0FE000
1FC000
3F8000
3F0000
7F0000
7E0000
FE0000
FC0000
FC0000
FC0000
FE0000
FE0000
FF0004
7F801C
7FFFFE
3FFFFE
1FFFFF
0FFFFC
03FFF0
000800
ENDCHAR
STARTCHAR 00C0
ENCODING 192
SWIDTH 660 0
DWIDTH 44 0
BBX 42 62 1 0
BITMAP
0000C0000000
0001C0000000
0003E0000000
0007F0000000
0003F8000000
0001FC000000
0000FE000000
00007E000000
00003F000000
00001F800000
00000F800000
000007000000
000002000000
000000000000
000000000000
000000000000
00003F000000
00007F800000
00007F800000
0000FFC00000
0000FFC00000
0001FFE00000
0001FFE00000
0001FFF00000
0003F7F00000
0003F3F00000
0007E3F80000
0007E1F80000
000FE1FC0000
000FC0FC0000
000FC0FE0000
001F80FE0000
001F807E0000
003F807F0000
003F003F0000
003F003F8000
007E003F8000
007E001F8000
00FE001FC000
00FC000FC000
00FC000FE000
01FC000FE000
01F80007E000
03F80007F000
03F00007F000
03FFFFFFF800
07FFFFFFF800
07FFFFFFF800
0FFFFFFFFC00
0FFFFFFFFC00
0FC00000FC00
1FC00000FE00
1FC00000FE00
1F8000007F00
3F8000007F00
3F8000007F00
3F0000003F80
7F0000003F80
7F0000003F80
FE0000001FC0
FE0000001FC0
FC0000001FC0
ENDCHAR
STARTCHAR 00C1
ENCODING 193
SWIDTH 660 0
DWIDTH 44 0
BBX 42 62 1 0
BITMAP
000000400000
000000E00000
000001F00000
000003F80000
000003F80000
000007F00000
00000FE00000
00001FC00000
00003F800000
00007F000000
00007E000000
00003C000000
000008000000
000000000000
000000000000
000000000000
00003F000000
00007F800000
00007F800000
0000FFC00000
0000FFC00000
0001FFE00000
0001FFE00000
0001FFF00000
0003F7F00000
0003F3F00000
0007E3F80000
0007E1F80000
000FE1FC0000
000FC0FC0000
000FC0FE0000
001F80FE0000
001F807E0000
003F807F0000
003F003F0000
003F003F8000
007E003F8000
007E001F8000
00FE001FC000
00FC000FC000
00FC000FE000
01FC000FE000
01F80007E000
03F80007F000
03F00007F000
03FFFFFFF800
07FFFFFFF800
07FFFFFFF800
0FFFFFFFFC00
0FFFFFFFFC00
0FC00000FC00
1FC00000FE00
1FC00000FE00
1F8000007F00
3F8000007F00
3F8000007F00
3F0000003F80
7F0000003F80
7F0000003F80
FE0000001FC0
FE0000001FC0
FC0000001FC0
ENDCHAR
STARTCHAR 00C2
ENCODING 194
SWIDTH 660 0
DWIDTH 44 0
BBX 42 61 1 1
BITMAP
00000C000000
00001E000000
00003F000000
00007F800000
0000FFC00000
0001FFE00000
0003F3F00000
0007E1F80000
000FC0FC0000
0007807C0000
000700380000
000200100000
000000000000
000000000000
000000000000
00003F000000
00007F800000
00007F800000
0000FFC00000
0000FFC00000
0001FFE00000
0001FFE00000
0001FFF00000
0003F7F00000
0003F3F00000
0007E3F80000
0007E1F80000
000FE1FC0000
000FC0FC0000
000FC0FE0000
001F80FE0000
001F807E0000
003F807F0000
003F003F0000
003F003F8000
007E003F8000
007E001F8000
00FE001FC000
00FC000FC000
00FC000FE000
01FC000FE000
01F80007E000
03F80007F000
03F00007F000
03FFFFFFF800
07FFFFFFF800
07FFFFFFF800
0FFFFFFFFC00
0FFFFFFFFC00
0FC00000FC00
1FC00000FE00
1FC00000FE00
1F8000007F00
3F8000007F00
3F8000007F00
3F0000003F80
7F0000003F80
7F0000003F80
FE0000001FC0
FE0000001FC0
FC0000001FC0
ENDCHAR
STARTCHAR 00C3
ENCODING 195
SWIDTH 660 0
DWIDTH 44 0
BBX 42 59 1 0
BITMAP
0001F00E0000
0007FC1F0000
000FFFFE0000
001FFFFE0000
001FFFFC0000
003E0FF80000
001C03F00000
000000000000
000000000000
000000000000
000000000000
000000000000
000000000000
00003F000000
00007F800000
00007F800000
0000FFC00000
0000FFC00000
0001FFE00000
0001FFE00000
0001FFF00000
0003F7F00000
0003F3F00000
0007E3F80000
0007E1F80000
000FE1FC0000
000FC0FC0000
000FC0FE0000
001F80FE0000
001F807E0000
003F807F0000
003F003F0000
003F003F8000
007E003F8000
007E001F8000
00FE001FC000
00FC000FC000
00FC000FE000
01FC000FE000
01F80007E000
03F80007F000
03F00007F000
03FFFFFFF800
07FFFFFFF800
07FFFFFFF800
0FFFFFFFFC00
0FFFFFFFFC00
0FC00000FC00
1FC00000FE00
1FC00000FE00
1F8000007F00
3F8000007F00
3F8000007F00
3F0000003F80
7F0000003F80
7F0000003F80
FE0000001FC0
FE0000001FC0
FC0000001FC0
ENDCHAR
STARTCHAR 00C4
ENCODING 196
SWIDTH 660 0
DWIDTH 44 0
BBX 42 59 1 0
BITMAP
000F807C0000
001FC0FE0000
001FC0FE0000
001FE0FE0000
001FE0FE0000
001FC0FE0000
000F807C0000
000000100000
000000000000
000000000000
000000000000
000000000000
000000000000
00003F000000
00007F800000
00007F800000
0000FFC00000
0000FFC00000
0001FFE00000
0001FFE00000
0001FFF00000
0003F7F00000
0003F3F00000
0007E3F80000
0007E1F80000
000FE1FC0000
000FC0FC0000
000FC0FE0000
001F80FE0000
001F807E0000
003F807F0000
003F003F0000
003F003F8000
007E003F8000
007E001F8000
00FE001FC000
00FC000FC000
00FC000FE000
01FC000FE000
01F80007E000
03F80007F000
03F00007F000
03FFFFFFF800
07FFFFFFF800
07FFFFFFF800
0FFFFFFFFC00
0FFFFFFFFC00
0FC00000FC00
1FC00000FE00
1FC00000FE00
1F8000007F00
3F8000007F00
3F8000007F00
3F0000003F80
7F0000003F80
7F0000003F80
FE0000001FC0
FE0000001FC0
FC0000001FC0
ENDCHAR
STARTCHAR 00C5
ENCODING 197
SWIDTH 660 0
DWIDTH 44 0
BBX 42 56 1 0
BITMAP
00003E000000
00007F800000
0000FFC00000
0001F3E00000
0001C0E00000
0003C0F00000
000380700000
0003C0F00000
0003C0F00000
0001C0E00000
0001FFE00000
0000FFC00000
00007F800000
0000FFC00000
0000FFC00000
0001FFE00000
0001FFE00000
0001FFF00000
0003F7F00000
0003F3F00000
0007E3F80000
0007E1F80000
000FE1FC0000
000FC0FC0000
000FC0FE0000
001F80FE0000
001F807E0000
003F807F0000
003F003F0000
003F003F8000
007E003F8000
007E001F8000
00FE001FC000
00FC000FC000
00FC000FE000
01FC000FE000
01F80007E000
03F80007F000
03F00007F000
03FFFFFFF800
07FFFFFFF800
07FFFFFFF800
0FFFFFFFFC00
0FFFFFFFFC00
0FC00000FC00
1FC00000FE00
1FC00000FE00
1F8000007F00
3F8000007F00
3F8000007F00
3F0000003F80
7F0000003F80
7F0000003F80
FE0000001FC0
FE0000001FC0
FC0000001FC0
ENDCHAR
STARTCHAR 00C6
ENCODING 198
SWIDTH 930 0
DWIDTH 62 0
BBX 59 46 1 0
BITMAP
0000001FFFFFFF80
0000003FFFFFFF80
0000003FFFFFFF80
0000007FFFFFFF80
000000FFFFFFFF80
000000FDF8000000
000001FDF8000000
000003F9F8000000
000003F1F8000000
000007E1F8000000
00000FE1F8000000
00000FC1F8000000
00001F81F8000000
00003F81F8000000
00003F01F8000000
00007F01F8000000
0000FE01F8000000
0000FC01F8000000
0001FC01F8000000
0003F801FFFFFE00
0003F001FFFFFE00
0007F001FFFFFE00
0007E001FFFFFE00
000FE001FFFFFE00
001FC001F8000000
001FC001F8000000
003F8001F8000000
003F0001F8000000
007F0001F8000000
00FFFFFFF8000000
00FFFFFFF8000000
01FFFFFFF8000000
01FFFFFFF8000000
03FFFFFFF8000000
03F00001F8000000
07F00001F8000000
07E00001F8000000
0FE00001F8000000
1FC00001F8000000
1FC00001F8000000
3F800001F8000000
3F800001FFFFFFE0
7F000001FFFFFFE0
7F000001FFFFFFE0
FE000001FFFFFFE0
FE000001FFFFFFE0
ENDCHAR
STARTCHAR 00C7
ENCODING 199
SWIDTH 615 0
DWIDTH 41 0
BBX 36 60 4 -13
BITMAP
0000FFF800
0007FFFF00
001FFFFFE0
007FFFFFE0
00FFFFFFE0
01FFF8FFC0
03FF0007C0
07FC0000C0
0FF8000000
0FF0000000
1FE0000000
1FC0000000
3F80000000
3F80000000
7F00000000
7F00000000
7F00000000
FE00000000
FE00000000
FE00000000
FE00000000
FE00000000
FE00000000
FE00000000
FE00000000
FE00000000
FE00000000
FE00000000
FE00000000
FE00000000
FE00000000
7F00000000
7F00000000
7F00000000
3F80000000
3F80000000
3FC0000000
1FE0000000
1FF0000000
0FF8000000
07FC0000C0
03FF8007E0
01FFFFFFE0
00FFFFFFE0
007FFFFFF0
001FFFFFE0
0007FFFF00
0000FFF000
00003C0000
00007C0000
00007E0000
0000FF0000
00003F8000
00000F8000
00000F8000
00073F8000
0007FF8000
0007FF0000
0007FE0000
0000600000
ENDCHAR
STARTCHAR 00C8
ENCODING 200
SWIDTH 570 0
DWIDTH 38 0
BBX 30 62 6 0
BITMAP
00100000
00380000
007C0000
00FC0000
00FE0000
007F0000
003F8000
001FC000
000FE000
0007E000
0003E000
0001C000
00008000
00000000
00000000
00000000
FFFFFFF0
FFFFFFF0
FFFFFFF0
FFFFFFF0
FFFFFFF0
FC000000
FC000000
FC000000
FC000000
FC000000
FC000000
FC000000
FC000000
FC000000
FC000000
FC000000
FC000000
FC000000
FC000000
FFFFFFC0
FFFFFFC0
FFFFFFC0
FFFFFFC0
FFFFFFC0
FC000000
FC000000
FC000000
FC000000
FC000000
FC000000
FC000000
FC000000
FC000000
FC000000
FC000000
FC000000
FC000000
FC000000
FC000000
FC000000
FFFFFFFC
FFFFFFFC
FFFFFFFC
FFFFFFFC
FFFFFFFC
FFFFFFFC
ENDCHAR
STARTCHAR 00C9
ENCODING 201
SWIDTH 570 0
DWIDTH 38 0
BBX 30 62 6 0
BITMAP
00001000
00003800
00007C00
0000FE00
0000FE00
0001FC00
0003F800
0007F000
000FE000
001FC000
001F8000
000E0000
00000000
00000000
00000000
00000000
FFFFFFF0
FFFFFFF0
FFFFFFF0
FFFFFFF0
FFFFFFF0
FC000000
FC000000
FC000000
FC000000
FC000000
FC000000
FC000000
FC000000
FC000000
FC000000
FC000000
FC000000
FC000000
FC000000
FFFFFFC0
FFFFFFC0
FFFFFFC0
FFFFFFC0
FFFFFFC0
FC000000
FC000000
FC000000
FC000000
FC000000
FC000000
FC000000
FC000000
FC000000
FC000000
FC000000
FC000000
FC000000
FC000000
FC000000
FC000000
FFFFFFFC
FFFFFFFC
FFFFFFFC
FFFFFFFC
FFFFFFFC
FFFFFFFC
ENDCHAR
STARTCHAR 00CA
ENCODING 202
SWIDTH 570 0
DWIDTH 38 0
BBX 30 61 6 1
BITMAP
00060000
000F0000
001F8000
003FC000
007FE000
00FFF000
01FBF800
03F0FC00
07E07E00
07C03C00
03801800
01000800
00000000
00000000
00000000
FFFFFFF0
FFFFFFF0
FFFFFFF0
FFFFFFF0
FFFFFFF0
FC000000
FC000000
FC000000
FC000000
FC000000
FC000000
FC000000
FC000000
FC000000
FC000000
FC000000
FC000000
FC000000
FC000000
FFFFFFC0
FFFFFFC0
FFFFFFC0
FFFFFFC0
FFFFFFC0
FC000000
FC000000
FC000000
FC000000
FC000000
FC000000
FC000000
FC000000
FC000000
FC000000
FC000000
FC000000
FC000000
FC000000
FC000000
FC000000
FFFFFFFC
FFFFFFFC
FFFFFFFC
FFFFFFFC
FFFFFFFC
FFFFFFFC
ENDCHAR
STARTCHAR 00CB
ENCODING 203
SWIDTH 570 0
DWIDTH 38 0
BBX 30 59 6 0
BITMAP
07C03E00
0FE07E00
0FE0FF00
0FE0FF00
0FE0FF00
0FE07F00
07C07E00
01000000
00000000
00000000
00000000
00000000
00000000
FFFFFFF0
FFFFFFF0
FFFFFFF0
FFFFFFF0
FFFFFFF0
FC000000
FC000000
FC000000
FC000000
FC000000
FC000000
FC000000
FC000000
FC000000
FC000000
FC000000
FC000000
FC000000
FC000000
FFFFFFC0
FFFFFFC0
FFFFFFC0
FFFFFFC0
FFFFFFC0
FC000000
FC000000
FC000000
FC000000
FC000000
FC000000
FC000000
FC000000
FC000000
FC000000
FC000000
FC000000
FC000000
FC000000
FC000000
FC000000
FFFFFFFC
FFFFFFFC
FFFFFFFC
FFFFFFFC
FFFFFFFC
FFFFFFFC
ENDCHAR
STARTCHAR 00CC
ENCODING 204
SWIDTH 255 0
DWIDTH 17 0
BBX 12 62 1 0
BITMAP
1800
3800
7C00
FE00
7F00
3F80
1FC0
0FC0
07E0
03F0
01F0
00E0
0040
0000
0000
0000
07E0
07E0
07E0
07E0
07E0
07E0
07E0
07E0
07E0
07E0
07E0
07E0
07E0
07E0
07E0
07E0
07E0
07E0
07E0
07E0
07E0
07E0
07E0
07E0
07E0
07E0
07E0
07E0
07E0
07E0
07E0
07E0
07E0
07E0
07E0
07E0
07E0
07E0
07E0
07E0
07E0
07E0
07E0
07E0
07E0
07E0
ENDCHAR
STARTCHAR 00CD
ENCODING 205
SWIDTH 255 0
DWIDTH 17 0
BBX 12 62 5 0
BITMAP
0080
01C0
03E0
07F0
0FE0
1FC0
1F80
3F00
7E00
FC00
F800
7000
2000
0000
0000
0000
7E00
7E00
7E00
7E00
7E00
7E00
7E00
7E00
7E00
7E00
7E00
7E00
7E00
7E00
7E00
7E00
7E00
7E00
7E00
7E00
7E00
7E00
7E00
7E00
7E00
7E00
7E00
7E00
7E00
7E00
7E00
7E00
7E00
7E00
7E00
7E00
7E00
7E00
7E00
7E00
7E00
7E00
7E00
7E00
7E00
7E00
ENDCHAR
STARTCHAR 00CE
ENCODING 206
SWIDTH 255 0
DWIDTH 17 0
BBX 18 61 0 1
BITMAP
00C000
01E000
03F000
07F800
0FFC00
1FFE00
3F3F00
7E1F80
FC0FC0
F807C0
700380
200100
000000
000000
000000
03F000
03F000
03F000
03F000
03F000
03F000
03F000
03F000
03F000
03F000
03F000
03F000
03F000
03F000
03F000
03F000
03F000
03F000
03F000
03F000
03F000
03F000
03F000
03F000
03F000
03F000
03F000
03F000
03F000
03F000
03F000
03F000
03F000
03F000
03F000
03F000
03F000
03F000
03F000
03F000
03F000
03F000
03F000
03F000
03F000
03F000
ENDCHAR
STARTCHAR 00CF
ENCODING 207
SWIDTH 255 0
DWIDTH 17 0
BBX 20 59 -1 0
BITMAP
7C03E0
FE07F0
FE07F0
FF0FF0
FE07F0
FE07F0
7C03E0
000080
000000
000000
000000
000000
000000
01F800
01F800
01F800
01F800
01F800
01F800
01F800
01F800
01F800
01F800
01F800
01F800
01F800
01F800
01F800
01F800
01F800
01F800
01F800
01F800
01F800
01F800
01F800
01F800
01F800
01F800
01F800
01F800
01F800
01F800
01F800
01F800
01F800
01F800
01F800
01F800
01F800
01F800
01F800
01F800
01F800
01F800
01F800
01F800
01F800
01F800
ENDCHAR
STARTCHAR 00D0
ENCODING 208
SWIDTH 720 0
DWIDTH 48 0
BBX 44 47 1 0
BITMAP
0007F4000000
03FFFFE00000
03FFFFFC0000
03FFFFFF8000
03FFFFFFC000
03FFFFFFF000
03F000FFF800
03F0001FFC00
03F00007FE00
03F00001FE00
03F00000FF00
03F000007F80
03F000003F80
03F000003FC0
03F000001FC0
03F000001FC0
03F000000FE0
03F000000FE0
03F000000FE0
03F000000FE0
FFFFF8000FE0
FFFFF80007E0
FFFFF80007F0
FFFFF80007F0
FFFFF80007F0
03F0000007E0
03F0000007E0
03F000000FE0
03F000000FE0
03F000000FE0
03F000000FE0
03F000001FE0
03F000001FC0
03F000001FC0
03F000003FC0
03F000007F80
03F000007F80
03F00000FF00
03F00003FE00
03F00007FC00
03F0001FFC00
03F003FFF800
03FFFFFFE000
03FFFFFFC000
03FFFFFF0000
03FFFFFC0000
01FFFFC00000
ENDCHAR
STARTCHAR 00D1
ENCODING 209
SWIDTH 720 0
DWIDTH 48 0
BBX 37 59 6 0
BITMAP
000F807000
003FE07800
007FFDF800
007FFFF000
00FFFFE000
01F07FC000
00E01F8000
0020000000
0000000000
0000000000
0000000000
0000000000
0000000000
FC000003F8
FC000003F8
FE000003F8
FF000003F8
FF800003F8
FFC00003F8
FFE00003F8
FFF00003F8
FFF00003F8
FFF80003F8
FDFC0003F8
FDFE0003F8
FCFE0003F8
FC7F0003F8
FC3F8003F8
FC1FC003F8
FC1FC003F8
FC0FE003F8
FC07F003F8
FC03F803F8
FC03F803F8
FC01FC03F8
FC00FE03F8
FC007F03F8
FC007F03F8
FC003F83F8
FC001FC3F8
FC001FC3F8
FC000FE3F8
FC0007F3F8
FC0007F3F8
FC0003FBF8
FC0001FFF8
FC0000FFF8
FC0000FFF8
FC00007FF8
FC00007FF8
FC00003FF8
FC00001FF8
FC00001FF8
FC00000FF8
FC000007F8
FC000007F8
FC000003F8
FC000003F8
FC000001F8
ENDCHAR
STARTCHAR 00D2
ENCODING 210
SWIDTH 765 0
DWIDTH 51 0
BBX 44 63 4 -1
BITMAP
000040000000
0000E0000000
0001F0000000
0003F8000000
0001FC000000
0000FE000000
00007E000000
00003F000000
00001F800000
00000FC00000
000007C00000
000003800000
000001000000
000000000000
000000000000
0000FFF00000
0007FFFE0000
001FFFFF8000
007FFFFFE000
00FFFFFFF000
01FFF9FFF800
03FF000FFC00
07FC0003FE00
0FF80001FF00
0FF00000FF00
1FE000007F80
3FC000003F80
3F8000003FC0
3F8000001FC0
7F0000001FE0
7F0000000FE0
7F0000000FE0
FE0000000FE0
FE00000007F0
FE00000007F0
FE00000007F0
FE00000007F0
FE00000007F0
FE00000007F0
FE00000007F0
FE00000007F0
FE00000007F0
FE00000007F0
FE00000007F0
FE00000007F0
FE0000000FE0
7F0000000FE0
7F0000000FE0
7F0000001FE0
3F8000001FC0
3F8000003FC0
1FC000003F80
1FE000007F80
0FF00000FF00
0FF80001FE00
07FE0007FE00
03FF801FFC00
01FFFFFFF800
00FFFFFFF000
003FFFFFC000
001FFFFF8000
0003FFFC0000
00007FE00000
ENDCHAR
STARTCHAR 00D3
ENCODING 211
SWIDTH 765 0
DWIDTH 51 0
BBX 44 63 4 -1
BITMAP
000000600000
000000700000
000000F80000
000001FC0000
000003F80000
000007F00000
00000FE00000
00000FC00000
00001F800000
00003F000000
00003E000000
00001C000000
000008000000
000000000000
000000000000
0000FFF00000
0007FFFE0000
001FFFFF8000
007FFFFFE000
00FFFFFFF000
01FFF9FFF800
03FF000FFC00
07FC0003FE00
0FF80001FF00
0FF00000FF00
1FE000007F80
3FC000003F80
3F8000003FC0
3F8000001FC0
7F0000001FE0
7F0000000FE0
7F0000000FE0
FE0000000FE0
FE00000007F0
FE00000007F0
FE00000007F0
FE00000007F0
FE00000007F0
FE00000007F0
FE00000007F0
FE00000007F0
FE00000007F0
FE00000007F0
FE00000007F0
FE00000007F0
FE0000000FE0
7F0000000FE0
7F0000000FE0
7F0000001FE0
3F8000001FC0
3F8000003FC0
1FC000003F80
1FE000007F80
0FF00000FF00
0FF80001FE00
07FE0007FE00
03FF801FFC00
01FFFFFFF800
00FFFFFFF000
003FFFFFC000
001FFFFF8000
0003FFFC0000
00007FE00000
ENDCHAR
STARTCHAR 00D4
ENCODING 212
SWIDTH 765 0
DWIDTH 51 0
BBX 44 62 4 0
BITMAP
000006000000
00000F000000
00001F800000
00003FC00000
00007FE00000
0000FFF00000
0001F9F80000
0003F0FC0000
0007E07E0000
0007C03C0000
0003801C0000
000100080000
000000000000
000000000000
0000FFF00000
0007FFFE0000
001FFFFF8000
007FFFFFE000
00FFFFFFF000
01FFF9FFF800
03FF000FFC00
07FC0003FE00
0FF80001FF00
0FF00000FF00
1FE000007F80
3FC000003F80
3F8000003FC0
3F8000001FC0
7F0000001FE0
7F0000000FE0
7F0000000FE0
FE0000000FE0
FE00000007F0
FE00000007F0
FE00000007F0
FE00000007F0
FE00000007F0
FE00000007F0
FE00000007F0
FE00000007F0
FE00000007F0
FE00000007F0
FE00000007F0
FE00000007F0
FE0000000FE0
7F0000000FE0
7F0000000FE0
7F0000001FE0
3F8000001FC0
3F8000003FC0
1FC000003F80
1FE000007F80
0FF00000FF00
0FF80001FE00
07FE0007FE00
03FF801FFC00
01FFFFFFF800
00FFFFFFF000
003FFFFFC000
001FFFFF8000
0003FFFC0000
00007FE00000
ENDCHAR
STARTCHAR 00D5
ENCODING 213
SWIDTH 765 0
DWIDTH 51 0
BBX 44 60 4 -1
BITMAP
0000F8070000
0003FE0F8000
0007FFFF0000
000FFFFF0000
000FFFFE0000
001F07FC0000
000E01F80000
000000000000
000000000000
000000000000
000000000000
000000000000
0000FFF00000
0007FFFE0000
001FFFFF8000
007FFFFFE000
00FFFFFFF000
01FFF9FFF800
03FF000FFC00
07FC0003FE00
0FF80001FF00
0FF00000FF00
1FE000007F80
3FC000003F80
3F8000003FC0
3F8000001FC0
7F0000001FE0
7F0000000FE0
7F0000000FE0
FE0000000FE0
FE00000007F0
FE00000007F0
FE00000007F0
FE00000007F0
FE00000007F0
FE00000007F0
FE00000007F0
FE00000007F0
FE00000007F0
FE00000007F0
FE00000007F0
FE00000007F0
FE0000000FE0
7F0000000FE0
7F0000000FE0
7F0000001FE0
3F8000001FC0
3F8000003FC0
1FC000003F80
1FE000007F80
0FF00000FF00
0FF80001FE00
07FE0007FE00
03FF801FFC00
01FFFFFFF800
00FFFFFFF000
003FFFFFC000
001FFFFF8000
0003FFFC0000
00007FE00000
ENDCHAR
STARTCHAR 00D6
ENCODING 214
SWIDTH 765 0
DWIDTH 51 0
BBX 44 60 4 -1
BITMAP
0007C03E0000
000FE07F0000
000FE07F0000
000FE0FF0000
000FE0FF0000
000FE07F0000
0007C03E0000
000100000000
000000000000
000000000000
000000000000
000000000000
0000FFF00000
0007FFFE0000
001FFFFF8000
007FFFFFE000
00FFFFFFF000
01FFF9FFF800
03FF000FFC00
07FC0003FE00
0FF80001FF00
0FF00000FF00
1FE000007F80
3FC000003F80
3F8000003FC0
3F8000001FC0
7F0000001FE0
7F0000000FE0
7F0000000FE0
FE0000000FE0
FE00000007F0
FE00000007F0
FE00000007F0
FE00000007F0
FE00000007F0
FE00000007F0
FE00000007F0
FE00000007F0
FE00000007F0
FE00000007F0
FE00000007F0
FE00000007F0
FE0000000FE0
7F0000000FE0
7F0000000FE0
7F0000001FE0
3F8000001FC0
3F8000003FC0
1FC000003F80
1FE000007F80
0FF00000FF00
0FF80001FE00
07FE0007FE00
03FF801FFC00
01FFFFFFF800
00FFFFFFF000
003FFFFFC000
001FFFFF8000
0003FFFC0000
00007FE00000
ENDCHAR
STARTCHAR 00D7
ENCODING 215
SWIDTH 555 0
DWIDTH 37 0
BBX 27 27 5 6
BITMAP
18000100
3C000380
7E0007C0
FF000FE0
7F801FC0
3FC03F80
1FE07F00
0FF0FE00
07F9FC00
03FFF800
01FFF000
00FFE000
007FC000
003FC000
007FE000
00FFF000
01FFF800
03FBFC00
07F1FE00
0FE0FF00
1FC07F80
3F803FC0
7F001FE0
7E000FE0
3C0007C0
18000380
00000100
ENDCHAR
STARTCHAR 00D8
ENCODING 216
SWIDTH 765 0
DWIDTH 51 0
BBX 44 51 4 -2
BITMAP
000000000200
000000000300
0000FFF00780
0007FFFE0FE0
001FFFFF9FC0
007FFFFFFF80
00FFFFFFFF00
01FFF9FFFF00
03FF000FFE00
07FC0003FE00
0FF80001FF00
0FF00003FF00
1FE00007FF80
3FC0000FFF80
3F80000FFFC0
3F80001F9FC0
7F00003F9FE0
7F00007F0FE0
7F0000FE0FE0
FE0000FC0FE0
FE0001F807F0
FE0003F807F0
FE0007F007F0
FE0007E007F0
FE000FC007F0
FE001FC007F0
FE003F8007F0
FE003F0007F0
FE007E0007F0
FE00FE0007F0
FE01FC0007F0
FE03F80007F0
FE03F0000FE0
7F07E0000FE0
7F0FE0000FE0
7F1FC0001FE0
3F9F80001FC0
3FBF00003FC0
1FFF00003F80
1FFE00007F80
0FFC0000FF00
0FF80001FE00
07FE0007FE00
07FF801FFC00
0FFFFFFFF800
0FFFFFFFF000
1FBFFFFFC000
3F9FFFFF8000
3F07FFFC0000
1E007FE00000
0C0000000000
ENDCHAR
STARTCHAR 00D9
ENCODING 217
SWIDTH 675 0
DWIDTH 45 0
BBX 35 63 5 -1
BITMAP
0004000000
000E000000
001F000000
003F800000
001FC00000
000FE00000
0007E00000
0003F00000
0001F80000
0000FC0000
00007C0000
0000380000
0000100000
0000000000
0000000000
0000000000
FE000007E0
FE000007E0
FE000007E0
FE000007E0
FE000007E0
FE000007E0
FE000007E0
FE000007E0
FE000007E0
FE000007E0
FE000007E0
FE000007E0
FE000007E0
FE000007E0
FE000007E0
FE000007E0
FE000007E0
FE000007E0
FE000007E0
FE000007E0
FE000007E0
FE000007E0
FE000007E0
FE000007E0
FE000007E0
FE000007E0
FE000007E0
FE000007E0
FE000007E0
FE000007E0
FE000007E0
7E000007E0
7E000007E0
7E00000FE0
7F00000FE0
7F00000FE0
3F80001FC0
3F80003FC0
3FC0003F80
1FF000FF80
0FFC03FF00
0FFFFFFE00
07FFFFFE00
03FFFFF800
00FFFFF000
003FFFC000
0007FE0000
ENDCHAR
STARTCHAR 00DA
ENCODING 218
SWIDTH 675 0
DWIDTH 45 0
BBX 35 63 5 -1
BITMAP
0000060000
0000070000
00000F8000
00001FC000
00003F8000
00007F0000
0000FE0000
0000FC0000
0001F80000
0003F00000
0003E00000
0001C00000
0000800000
0000000000
0000000000
0000000000
FE000007E0
FE000007E0
FE000007E0
FE000007E0
FE000007E0
FE000007E0
FE000007E0
FE000007E0
FE000007E0
FE000007E0
FE000007E0
FE000007E0
FE000007E0
FE000007E0
FE000007E0
FE000007E0
FE000007E0
FE000007E0
FE000007E0
FE000007E0
FE000007E0
FE000007E0
FE000007E0
FE000007E0
FE000007E0
FE000007E0
FE000007E0
FE000007E0
FE000007E0
FE000007E0
FE000007E0
7E000007E0
7E000007E0
7E00000FE0
7F00000FE0
7F00000FE0
3F80001FC0
3F80003FC0
3FC0003F80
1FF000FF80
0FFC03FF00
0FFFFFFE00
07FFFFFE00
03FFFFF800
00FFFFF000
003FFFC000
0007FE0000
ENDCHAR
STARTCHAR 00DB
ENCODING 219
SWIDTH 675 0
DWIDTH 45 0
BBX 35 62 5 0
BITMAP
0000600000
0000F00000
0001F80000
0003FC0000
0007FE0000
000FFF0000
001F9F8000
003F0FC000
007E07E000
007C03C000
003801C000
0010008000
0000000000
0000000000
0000000000
FE000007E0
FE000007E0
FE000007E0
FE000007E0
FE000007E0
FE000007E0
FE000007E0
FE000007E0
FE000007E0
FE000007E0
FE000007E0
FE000007E0
FE000007E0
FE000007E0
FE000007E0
FE000007E0
FE000007E0
FE000007E0
FE000007E0
FE000007E0
FE000007E0
FE000007E0
FE000007E0
FE000007E0
FE000007E0
FE000007E0
FE000007E0
FE000007E0
FE000007E0
FE000007E0
FE000007E0
7E000007E0
7E000007E0
7E00000FE0
7F00000FE0
7F00000FE0
3F80001FC0
3F80003FC0
3FC0003F80
1FF000FF80
0FFC03FF00
0FFFFFFE00
07FFFFFE00
03FFFFF800
00FFFFF000
003FFFC000
0007FE0000
ENDCHAR
STARTCHAR 00DC
ENCODING 220
SWIDTH 675 0
DWIDTH 45 0
BBX 35 60 5 -1
BITMAP
007C03E000
00FE07F000
00FE07F000
00FE0FF000
00FE0FF000
00FE07F000
007C03E000
0010000000
0000000000
0000000000
0000000000
0000000000
0000000000
FE000007E0
FE000007E0
FE000007E0
FE000007E0
FE000007E0
FE000007E0
FE000007E0
FE000007E0
FE000007E0
FE000007E0
FE000007E0
FE000007E0
FE000007E0
FE000007E0
FE000007E0
FE000007E0
FE000007E0
FE000007E0
FE000007E0
FE000007E0
FE000007E0
FE000007E0
FE000007E0
FE000007E0
FE000007E0
FE000007E0
FE000007E0
FE000007E0
FE000007E0
FE000007E0
FE000007E0
7E000007E0
7E000007E0
7E00000FE0
7F00000FE0
7F00000FE0
3F80001FC0
3F80003FC0
3FC0003F80
1FF000FF80
0FFC03FF00
0FFFFFFE00
07FFFFFE00
03FFFFF800
00FFFFF000
003FFFC000
0007FE0000
ENDCHAR
STARTCHAR 00DD
ENCODING 221
SWIDTH 585 0
DWIDTH 39 0
BBX 38 62 1 0
BITMAP
0000010000
0000038000
000007C000
00000FE000
00001FC000
00003F8000
00003F0000
00007E0000
0000FC0000
0001F80000
0001F00000
0000E00000
0000400000
0000000000
0000000000
0000000000
FE000001FC
FF000003FC
7F000003F8
7F800007F0
3F800007F0
1FC0000FE0
1FC0000FE0
0FE0001FC0
0FE0001FC0
07F0003F80
07F0003F00
03F8007F00
01FC007E00
01FC00FE00
00FE01FC00
00FE01FC00
007F03F800
007F83F000
003F87F000
001FC7E000
001FCFC000
000FFFC000
0007FF8000
0007FF8000
0003FF0000
0003FE0000
0001FE0000
0000FC0000
0000FC0000
0000FC0000
0000FC0000
0000FC0000
0000FC0000
0000FC0000
0000FC0000
0000FC0000
0000FC0000
0000FC0000
0000FC0000
0000FC0000
0000FC0000
0000FC0000
0000FC0000
0000FC0000
0000FC0000
0000FC0000
ENDCHAR
STARTCHAR 00DE
ENCODING 222
SWIDTH 600 0
DWIDTH 40 0
BBX 32 46 6 0
BITMAP
FC000000
FC000000
FC000000
FC000000
FC000000
FC000000
FC000000
FFFFC000
FFFFFC00
FFFFFF80
FFFFFFE0
FFFFFFF0
FFFFFFF8
FC001FFC
FC0007FC
FC0001FE
FC0000FE
FC0000FF
FC00007F
FC00007F
FC00007F
FC00007F
FC00007F
FC00007F
FC00007F
FC00007F
FC0000FF
FC0000FE
FC0001FE
FC0007FC
FC003FFC
FFFFFFF8
FFFFFFF0
FFFFFFC0
FFFFFF00
FFFFF800
FFF00000
FC000000
FC000000
FC000000
FC000000
FC000000
FC000000
FC000000
FC000000
FC000000
ENDCHAR
STARTCHAR 00DF
ENCODING 223
SWIDTH 615 0
DWIDTH 41 0
BBX 34 53 5 -1
BITMAP
000FC00000
00FFFC0000
03FFFF0000
07FFFF8000
0FFFFFC000
1FFFFFE000
3FE01FE000
3F800FF000
7F0007F000
7F0003F000
7E0003F000
7E0003F000
FE0003F000
FE0003F000
FE0007F000
FE0007E000
FE000FC000
FE001FC000
FE003F8000
FE007F0000
FE00FE0000
FE01FC0000
FE03F80000
FE03F00000
FE03F00000
FE07F00000
FE07F00000
FE07F00000
FE03F80000
FE03FE0000
FE01FF8000
FE00FFE000
FE007FF800
FE001FFC00
FE0007FE00
FE0001FF00
FE0000FF80
FE00003F80
FE00001F80
FE00001FC0
FE00001FC0
FE00000FC0
FE00000FC0
FE00001FC0
FE00001FC0
FE00003F80
FE06007F80
FE0FFFFF80
FE0FFFFF00
FE0FFFFE00
FE0FFFFC00
FE07FFF000
00007F0000
ENDCHAR
STARTCHAR 00E0
ENCODING 224
SWIDTH 510 0
DWIDTH 34 0
BBX 27 53 3 -1
BITMAP
00200000
00700000
00F00000
01F80000
01FC0000
00FE0000
007F0000
003F8000
001F8000
000FC000
0007E000
0003C000
00018000
00000000
00000000
00000000
000C0000
07FFF000
0FFFFC00
0FFFFE00
0FFFFF00
0FFFFF80
0C007F80
00003FC0
00001FC0
00000FC0
00000FE0
000007E0
000007E0
000007E0
000007E0
007FE7E0
03FFFFE0
0FFFFFE0
1FFFFFE0
3FFFFFE0
7FC00FE0
7F0007E0
FE0007E0
FE0007E0
FC0007E0
FC0007E0
FC0007E0
FC0007E0
FE0007E0
FE0007E0
7F8007E0
7FFDFFE0
3FFFFFE0
1FFFFFE0
0FFFFFE0
03FFFFC0
003FC000
ENDCHAR
STARTCHAR 00E1
ENCODING 225
SWIDTH 510 0
DWIDTH 34 0
BBX 27 53 3 -1
BITMAP
00002000
00003000
00007800
0000FC00
0001FC00
0003F800
0007F000
0007E000
000FC000
001F8000
003F0000
001E0000
000C0000
00000000
00000000
00000000
000C0000
07FFF000
0FFFFC00
0FFFFE00
0FFFFF00
0FFFFF80
0C007F80
00003FC0
00001FC0
00000FC0
00000FE0
000007E0
000007E0
000007E0
000007E0
007FE7E0
03FFFFE0
0FFFFFE0
1FFFFFE0
3FFFFFE0
7FC00FE0
7F0007E0
FE0007E0
FE0007E0
FC0007E0
FC0007E0
FC0007E0
FC0007E0
FE0007E0
FE0007E0
7F8007E0
7FFDFFE0
3FFFFFE0
1FFFFFE0
0FFFFFE0
03FFFFC0
003FC000
ENDCHAR
STARTCHAR 00E2
ENCODING 226
SWIDTH 510 0
DWIDTH 34 0
BBX 27 52 3 -1
BITMAP
00020000
00070000
000F8000
001FC000
003FE000
007FF000
00FDF800
01F8FC00
03F07E00
03E03E00
01C01E00
01800C00
00000000
00000000
00000000
000C0000
07FFF000
0FFFFC00
0FFFFE00
0FFFFF00
0FFFFF80
0C007F80
00003FC0
00001FC0
00000FC0
00000FE0
000007E0
000007E0
000007E0
000007E0
007FE7E0
03FFFFE0
0FFFFFE0
1FFFFFE0
3FFFFFE0
7FC00FE0
7F0007E0
FE0007E0
FE0007E0
FC0007E0
FC0007E0
FC0007E0
FC0007E0
FE0007E0
FE0007E0
7F8007E0
7FFDFFE0
3FFFFFE0
1FFFFFE0
0FFFFFE0
03FFFFC0
003FC000
ENDCHAR
STARTCHAR 00E3
ENCODING 227
SWIDTH 510 0
DWIDTH 34 0
BBX 27 50 3 -1
BITMAP
00600200
01FE0780
03FF8F80
07FFFF80
0FFFFF00
0F8FFE00
0F01FC00
02002000
00000000
00000000
00000000
00000000
00000000
000C0000
07FFF000
0FFFFC00
0FFFFE00
0FFFFF00
0FFFFF80
0C007F80
00003FC0
00001FC0
00000FC0
00000FE0
000007E0
000007E0
000007E0
000007E0
007FE7E0
03FFFFE0
0FFFFFE0
1FFFFFE0
3FFFFFE0
7FC00FE0
7F0007E0
FE0007E0
FE0007E0
FC0007E0
FC0007E0
FC0007E0
FC0007E0
FE0007E0
FE0007E0
7F8007E0
7FFDFFE0
3FFFFFE0
1FFFFFE0
0FFFFFE0
03FFFFC0
003FC000
ENDCHAR
STARTCHAR 00E4
ENCODING 228
SWIDTH 510 0
DWIDTH 34 0
BBX 27 50 3 -1
BITMAP
03C01E00
07E03F00
07F07F00
0FF07F80
0FF07F80
07F07F00
07E03F00
03C01E00
00000000
00000000
00000000
00000000
00000000
000C0000
07FFF000
0FFFFC00
0FFFFE00
0FFFFF00
0FFFFF80
0C007F80
00003FC0
00001FC0
00000FC0
00000FE0
000007E0
000007E0
000007E0
000007E0
007FE7E0
03FFFFE0
0FFFFFE0
1FFFFFE0
3FFFFFE0
7FC00FE0
7F0007E0
FE0007E0
FE0007E0
FC0007E0
FC0007E0
FC0007E0
FC0007E0
FE0007E0
FE0007E0
7F8007E0
7FFDFFE0
3FFFFFE0
1FFFFFE0
0FFFFFE0
03FFFFC0
003FC000
ENDCHAR
STARTCHAR 00E5
ENCODING 229
SWIDTH 510 0
DWIDTH 34 0
BBX 27 53 3 -1
BITMAP
000F8000
003FE000
007FF000
00F8F800
00F07800
00E03800
00E03800
00E03800
00E03800
00F07800
007DF000
007FF000
001FE000
00020000
00000000
00000000
000C0000
07FFF000
0FFFFC00
0FFFFE00
0FFFFF00
0FFFFF80
0C007F80
00003FC0
00001FC0
00000FC0
00000FE0
000007E0
000007E0
000007E0
000007E0
007FE7E0
03FFFFE0
0FFFFFE0
1FFFFFE0
3FFFFFE0
7FC00FE0
7F0007E0
FE0007E0
FE0007E0
FC0007E0
FC0007E0
FC0007E0
FC0007E0
FE0007E0
FE0007E0
7F8007E0
7FFDFFE0
3FFFFFE0
1FFFFFE0
0FFFFFE0
03FFFFC0
003FC000
ENDCHAR
STARTCHAR 00E6
ENCODING 230
SWIDTH 855 0
DWIDTH 57 0
BBX 51 37 3 -1
BITMAP
000E0000180000
07FFF001FFC000
0FFFF807FFF000
0FFFFE1FFFFC00
0FFFFF3FFFFE00
0FFFFF7FFFFE00
0C007FFF80FF00
00003FFE007F80
00001FFC003F80
00000FF8001F80
00000FF0001FC0
000007F0000FC0
000007F0000FC0
000007E0000FC0
000007E0000FC0
007FE7FFFFFFE0
03FFFFFFFFFFE0
0FFFFFFFFFFFE0
1FFFFFFFFFFFE0
3FFFFFFFFFFFE0
7FC00FE0000000
7F0007E0000000
FE0007E0000000
FE0007E0000000
FC0007F0000000
FC0007F0000000
FC0003F8000000
FC0003F8000000
FE0001FC000000
FE0001FE000000
7F8007FF800700
7FFDFFFFFFFF00
3FFFFFFFFFFF00
1FFFFFDFFFFF00
0FFFFF0FFFFF00
03FFFC03FFFE00
003FC0003FC000
ENDCHAR
STARTCHAR 00E7
ENCODING 231
SWIDTH 465 0
DWIDTH 31 0
BBX 27 49 3 -13
BITMAP
00008000
001FFF00
007FFFC0
01FFFFC0
03FFFFC0
07FFFF80
0FFC0380
1FF00000
1FC00000
3F800000
3F800000
3F000000
7F000000
7E000000
7E000000
7E000000
FE000000
FE000000
FE000000
FE000000
FE000000
7E000000
7E000000
7E000000
7F000000
7F000000
3F800000
3F800000
3FC00000
1FE00000
0FF800C0
0FFFFFC0
07FFFFC0
01FFFFC0
00FFFFE0
003FFFC0
0003F800
0003C000
0007C000
0007E000
000FF000
0003F800
0000F800
0000F800
0073F800
007FF800
007FF000
007FE000
00060000
ENDCHAR
STARTCHAR 00E8
ENCODING 232
SWIDTH 555 0
DWIDTH 37 0
BBX 31 52 3 0
BITMAP
00180000
003C0000
007E0000
00FF0000
007F0000
003F8000
001FC000
000FE000
0003F000
0001F800
0000F000
00004000
00000000
00000000
00000000
00018000
001FFC00
00FFFF00
01FFFFC0
03FFFFE0
07FFFFE0
0FF80FF0
1FE007F8
1FC003F8
3F8001F8
3F0001FC
7F0000FC
7F0000FC
7E0000FC
7E0000FC
7FFFFFFE
FFFFFFFE
FFFFFFFE
FFFFFFFE
FFFFFFFE
FE000000
7E000000
7E000000
7E000000
7F000000
7F000000
3F800000
3F800000
3FC00000
1FE00000
0FF80070
0FFFFFF0
07FFFFF0
01FFFFF0
00FFFFF0
003FFFE0
0003FC00
ENDCHAR
STARTCHAR 00E9
ENCODING 233
SWIDTH 555 0
DWIDTH 37 0
BBX 31 52 3 0
BITMAP
00001800
00003C00
00007E00
00007F00
0000FE00
0001FC00
0003F800
0007F000
000FE000
000FC000
00078000
00030000
00000000
00000000
00000000
00018000
001FFC00
00FFFF00
01FFFFC0
03FFFFE0
07FFFFE0
0FF80FF0
1FE007F8
1FC003F8
3F8001F8
3F0001FC
7F0000FC
7F0000FC
7E0000FC
7E0000FC
7FFFFFFE
FFFFFFFE
FFFFFFFE
FFFFFFFE
FFFFFFFE
FE000000
7E000000
7E000000
7E000000
7F000000
7F000000
3F800000
3F800000
3FC00000
1FE00000
0FF80070
0FFFFFF0
07FFFFF0
01FFFFF0
00FFFFF0
003FFFE0
0003FC00
ENDCHAR
STARTCHAR 00EA
ENCODING 234
SWIDTH 555 0
DWIDTH 37 0
BBX 31 52 3 -1
BITMAP
00018000
0003C000
0007E000
000FF000
000FF800
001FFC00
003FFE00
007E7E00
00FC3F00
01F80F80
00E00700
00400200
00000000
00000000
00000000
00018000
001FFC00
00FFFF00
01FFFFC0
03FFFFE0
07FFFFE0
0FF80FF0
1FE007F8
1FC003F8
3F8001F8
3F0001FC
7F0000FC
7F0000FC
7E0000FC
7E0000FC
7FFFFFFE
FFFFFFFE
FFFFFFFE
FFFFFFFE
FFFFFFFE
FE000000
7E000000
7E000000
7E000000
7F000000
7F000000
3F800000
3F800000
3FC00000
1FE00000
0FF80070
0FFFFFF0
07FFFFF0
01FFFFF0
00FFFFF0
003FFFE0
0003FC00
ENDCHAR
STARTCHAR 00EB
ENCODING 235
SWIDTH 555 0
DWIDTH 37 0
BBX 31 50 3 -1
BITMAP
00E00700
01F81F80
03F81FC0
03FC1FC0
03FC1FC0
03F81FC0
01F81F80
00E00700
00000000
00000000
00000000
00000000
00000000
00018000
001FFC00
00FFFF00
01FFFFC0
03FFFFE0
07FFFFE0
0FF80FF0
1FE007F8
1FC003F8
3F8001F8
3F0001FC
7F0000FC
7F0000FC
7E0000FC
7E0000FC
7FFFFFFE
FFFFFFFE
FFFFFFFE
FFFFFFFE
FFFFFFFE
FE000000
7E000000
7E000000
7E000000
7F000000
7F000000
3F800000
3F800000
3FC00000
1FE00000
0FF80070
0FFFFFF0
07FFFFF0
01FFFFF0
00FFFFF0
003FFFE0
0003FC00
ENDCHAR
STARTCHAR 00EC
ENCODING 236
SWIDTH 240 0
DWIDTH 16 0
BBX 12 52 1 0
BITMAP
1000
3800
7800
FC00
FE00
7F00
3F80
1F80
0FC0
07E0
03F0
01E0
00C0
0000
0000
0000
0000
0FE0
0FE0
0FE0
0FE0
0FE0
0FE0
0FE0
0FE0
0FE0
0FE0
0FE0
0FE0
0FE0
0FE0
0FE0
0FE0
0FE0
0FE0
0FE0
0FE0
0FE0
0FE0
0FE0
0FE0
0FE0
0FE0
0FE0
0FE0
0FE0
0FE0
0FE0
0FE0
0FE0
0FE0
0FE0
ENDCHAR
STARTCHAR 00ED
ENCODING 237
SWIDTH 240 0
DWIDTH 16 0
BBX 12 52 4 0
BITMAP
0080
01C0
01E0
03F0
07F0
0FE0
1FC0
1F80
3F00
7E00
FC00
7800
3000
0000
0000
0000
0000
7F00
7F00
7F00
7F00
7F00
7F00
7F00
7F00
7F00
7F00
7F00
7F00
7F00
7F00
7F00
7F00
7F00
7F00
7F00
7F00
7F00
7F00
7F00
7F00
7F00
7F00
7F00
7F00
7F00
7F00
7F00
7F00
7F00
7F00
7F00
ENDCHAR
STARTCHAR 00EE
ENCODING 238
SWIDTH 240 0
DWIDTH 16 0
BBX 17 51 0 0
BITMAP
008000
01C000
03E000
07F000
0FF800
1FFC00
3F7E00
7E3F00
FC1F80
F80F80
F00700
600300
000000
000000
000000
000000
07F000
07F000
07F000
07F000
07F000
07F000
07F000
07F000
07F000
07F000
07F000
07F000
07F000
07F000
07F000
07F000
07F000
07F000
07F000
07F000
07F000
07F000
07F000
07F000
07F000
07F000
07F000
07F000
07F000
07F000
07F000
07F000
07F000
07F000
07F000
ENDCHAR
STARTCHAR 00EF
ENCODING 239
SWIDTH 240 0
DWIDTH 16 0
BBX 21 49 -2 0
BITMAP
3C01E0
7E03F0
7F07F0
FF07F8
FF07F8
7F07F0
7E03F0
3C01E0
000000
000000
000000
000000
000000
000000
01FC00
01FC00
01FC00
01FC00
01FC00
01FC00
01FC00
01FC00
01FC00
01FC00
01FC00
01FC00
01FC00
01FC00
01FC00
01FC00
01FC00
01FC00
01FC00
01FC00
01FC00
01FC00
01FC00
01FC00
01FC00
01FC00
01FC00
01FC00
01FC00
01FC00
01FC00
01FC00
01FC00
01FC00
01FC00
ENDCHAR
STARTCHAR 00F0
ENCODING 240
SWIDTH 585 0
DWIDTH 39 0
BBX 34 53 3 -1
BITMAP
0000400000
0000E00000
0001F80000
0003FC0000
0001FE0080
0000FF07C0
00007FBFC0
00003FFFC0
00001FFFC0
00007FFE00
0003FFF000
0007FFF000
0007FFF000
0007E1F800
000301F800
000000FC00
000000FC00
000000FE00
0000007E00
0007E07E00
007FFC7E00
01FFFF3F00
03FFFFFF00
07FFFFFF00
0FFFFFFF00
1FF007FF00
3FE000FF00
3F80007F00
3F80003F00
7F00003F80
7F00003F80
7E00003F80
7E00003F00
FE00003F00
FE00003F00
FE00003F00
FE00003F00
FE00003F00
7E00007F00
7E00007F00
7E00007E00
7F0000FE00
3F0000FE00
3F8001FC00
3FC001FC00
1FE003F800
0FF00FF800
0FFFFFF000
07FFFFE000
03FFFFC000
00FFFF8000
007FFE0000
000FE00000
ENDCHAR
STARTCHAR 00F1
ENCODING 241
SWIDTH 570 0
DWIDTH 38 0
BBX 28 49 5 0
BITMAP
00600200
01FC0780
03FF8F80
07FFFF00
0FFFFF00
0F8FFE00
0F03FC00
02003000
00000000
00000000
00000000
00000000
00000000
00000000
0FFFF000
FFFFFC00
FFFFFF00
FFFFFF80
FFFFFFC0
FF007FC0
FE001FE0
FE000FE0
FE0007F0
FE0007F0
FE0007F0
FE0003F0
FE0003F0
FE0003F0
FE0003F0
FE0003F0
FE0003F0
FE0003F0
FE0003F0
FE0003F0
FE0003F0
FE0003F0
FE0003F0
FE0003F0
FE0003F0
FE0003F0
FE0003F0
FE0003F0
FE0003F0
FE0003F0
FE0003F0
FE0003F0
FE0003F0
FE0003F0
FE0003F0
ENDCHAR
STARTCHAR 00F2
ENCODING 242
SWIDTH 585 0
DWIDTH 39 0
BBX 33 53 3 -1
BITMAP
0008000000
001C000000
003E000000
007E000000
007F000000
003F800000
001FC00000
000FE00000
0007F00000
0003F00000
0001F80000
0000F00000
0000600000
0000000000
0000000000
0000000000
0000800000
001FFE0000
007FFF8000
01FFFFC000
03FFFFE000
07FFFFF000
0FF80FF800
1FE003FC00
1FC001FE00
3F8000FE00
3F80007E00
7F00007F00
7F00007F00
7F00003F00
7E00003F80
7E00003F80
FE00003F80
FE00003F80
FE00003F80
FE00003F80
FE00003F80
7E00003F80
7E00003F80
7E00003F00
7F00003F00
7F00007F00
3F80007F00
3F8000FE00
1FC001FE00
1FE003FC00
0FF807F800
07FFFFF800
03FFFFF000
01FFFFE000
00FFFF8000
003FFE0000
0007F00000
ENDCHAR
STARTCHAR 00F3
ENCODING 243
SWIDTH 585 0
DWIDTH 39 0
BBX 33 52 3 0
BITMAP
00000C0000
00001E0000
00003F0000
00007F0000
0000FE0000
0000FC0000
0001F80000
0003F00000
0007E00000
000FC00000
0007800000
0003000000
0000000000
0000000000
0000000000
0000800000
001FFE0000
007FFF8000
01FFFFC000
03FFFFE000
07FFFFF000
0FF80FF800
1FE003FC00
1FC001FE00
3F8000FE00
3F80007E00
7F00007F00
7F00007F00
7F00003F00
7E00003F80
7E00003F80
FE00003F80
FE00003F80
FE00003F80
FE00003F80
FE00003F80
7E00003F80
7E00003F80
7E00003F00
7F00003F00
7F00007F00
3F80007F00
3F8000FE00
1FC001FE00
1FE003FC00
0FF807F800
07FFFFF800
03FFFFF000
01FFFFE000
00FFFF8000
003FFE0000
0007F00000
ENDCHAR
STARTCHAR 00F4
ENCODING 244
SWIDTH 585 0
DWIDTH 39 0
BBX 33 52 3 -1
BITMAP
0000800000
0001C00000
0003E00000
0007F00000
000FF80000
001FFC0000
003F7E0000
007E3F0000
00FC1F8000
00F80FC000
0070078000
0020030000
0000000000
0000000000
0000000000
0000800000
001FFE0000
007FFF8000
01FFFFC000
03FFFFE000
07FFFFF000
0FF80FF800
1FE003FC00
1FC001FE00
3F8000FE00
3F80007E00
7F00007F00
7F00007F00
7F00003F00
7E00003F80
7E00003F80
FE00003F80
FE00003F80
FE00003F80
FE00003F80
FE00003F80
7E00003F80
7E00003F80
7E00003F00
7F00003F00
7F00007F00
3F80007F00
3F8000FE00
1FC001FE00
1FE003FC00
0FF807F800
07FFFFF800
03FFFFF000
01FFFFE000
00FFFF8000
003FFE0000
0007F00000
ENDCHAR
STARTCHAR 00F5
ENCODING 245
SWIDTH 585 0
DWIDTH 39 0
BBX 33 50 3 -1
BITMAP
000800C000
007F81F000
00FFE3E000
01FFFFE000
01FFFFC000
03E1FF8000
03C07F0000
00801C0000
0000000000
0000000000
0000000000
0000000000
0000000000
0000800000
001FFE0000
007FFF8000
01FFFFC000
03FFFFE000
07FFFFF000
0FF80FF800
1FE003FC00
1FC001FE00
3F8000FE00
3F80007E00
7F00007F00
7F00007F00
7F00003F00
7E00003F80
7E00003F80
FE00003F80
FE00003F80
FE00003F80
FE00003F80
FE00003F80
7E00003F80
7E00003F80
7E00003F00
7F00003F00
7F00007F00
3F80007F00
3F8000FE00
1FC001FE00
1FE003FC00
0FF807F800
07FFFFF800
03FFFFF000
01FFFFE000
00FFFF8000
003FFE0000
0007F00000
ENDCHAR
STARTCHAR 00F6
ENCODING 246
SWIDTH 585 0
DWIDTH 39 0
BBX 33 50 3 -1
BITMAP
0070078000
01F80FC000
01FC1FE000
03FC1FE000
03FC1FE000
01FC1FE000
01F80FC000
0070078000
0000000000
0000000000
0000000000
0000000000
0000000000
0000800000
001FFE0000
007FFF8000
01FFFFC000
03FFFFE000
07FFFFF000
0FF80FF800
1FE003FC00
1FC001FE00
3F8000FE00
3F80007E00
7F00007F00
7F00007F00
7F00003F00
7E00003F80
7E00003F80
FE00003F80
FE00003F80
FE00003F80
FE00003F80
FE00003F80
7E00003F80
7E00003F80
7E00003F00
7F00003F00
7F00007F00
3F80007F00
3F8000FE00
1FC001FE00
1FE003FC00
0FF807F800
07FFFFF800
03FFFFF000
01FFFFE000
00FFFF8000
003FFE0000
0007F00000
ENDCHAR
STARTCHAR 00F7
ENCODING 247
SWIDTH 555 0
DWIDTH 37 0
BBX 30 34 4 3
BITMAP
00078000
000FC000
001FC000
001FE000
001FE000
001FE000
001FC000
000F8000
00000000
00000000
00000000
00000000
00000000
00000000
FFFFFFFC
FFFFFFFC
FFFFFFFC
FFFFFFFC
FFFFFFFC
FFFFFFFC
00000000
00000000
00000000
00000000
00000000
00000000
00078000
001FC000
001FE000
001FE000
001FE000
001FE000
000FC000
00078000
ENDCHAR
STARTCHAR 00F8
ENCODING 248
SWIDTH 585 0
DWIDTH 39 0
BBX 33 39 3 -2
BITMAP
0000000400
0000800E00
001FFC1F00
007FFFBF00
01FFFFFE00
03FFFFFC00
07FFFFFC00
0FF80FF800
1FE003FC00
1FC003FC00
3F8007FE00
3F800FFE00
7F001FFF00
7F001F3F00
7E003E3F00
7E007E3F80
7E00FC3F80
FE00F83F80
FE01F03F80
FE03F01F80
FE07E03F80
FE0FC03F80
7E0F803F80
7E1F803F80
7E3F003F00
7F7E003F00
7F7C007F00
3FF8007F00
3FF800FE00
1FF001FE00
1FE003FC00
0FF007F800
0FFFFFF800
1FFFFFF000
3FFFFFE000
3EFFFF8000
7E3FFE0000
3C07F00000
1800000000
ENDCHAR
STARTCHAR 00F9
ENCODING 249
SWIDTH 570 0
DWIDTH 38 0
BBX 28 52 5 0
BITMAP
00600000
00F00000
01F80000
03F80000
01FC0000
00FE0000
007F0000
003F8000
001FC000
000FC000
00078000
00030000
00000000
00000000
00000000
00000000
FC0003F0
FC0003F0
FC0003F0
FC0003F0
FC0003F0
FC0003F0
FC0003F0
FC0003F0
FC0003F0
FC0003F0
FC0003F0
FC0003F0
FC0003F0
FC0003F0
FC0003F0
FC0003F0
FC0003F0
FC0003F0
FC0003F0
FC0003F0
FC0003F0
FC0003F0
FC0003F0
FE0003F0
FE0003F0
FE0003F0
7F0003F0
7F0003F0
7F8003F0
3FE003F0
3FFFFFF0
1FFFFFF0
0FFFFFF0
07FFFFF0
01FFFFC0
001FE000
ENDCHAR
STARTCHAR 00FA
ENCODING 250
SWIDTH 570 0
DWIDTH 38 0
BBX 28 52 5 0
BITMAP
00006000
0000F000
0001F800
0003FC00
0003F800
0007F000
000FE000
001FC000
003F8000
007F0000
001C0000
00080000
00000000
00000000
00000000
00000000
FC0003F0
FC0003F0
FC0003F0
FC0003F0
FC0003F0
FC0003F0
FC0003F0
FC0003F0
FC0003F0
FC0003F0
FC0003F0
FC0003F0
FC0003F0
FC0003F0
FC0003F0
FC0003F0
FC0003F0
FC0003F0
FC0003F0
FC0003F0
FC0003F0
FC0003F0
FC0003F0
FE0003F0
FE0003F0
FE0003F0
7F0003F0
7F0003F0
7F8003F0
3FE003F0
3FFFFFF0
1FFFFFF0
0FFFFFF0
07FFFFF0
01FFFFC0
001FE000
ENDCHAR
STARTCHAR 00FB
ENCODING 251
SWIDTH 570 0
DWIDTH 38 0
BBX 28 52 5 -1
BITMAP
00060000
000F0000
001F8000
003FC000
007FC000
00FFE000
01FFF000
01F9F800
03F0FC00
07C07E00
03801C00
01000800
00000000
00000000
00000000
00000000
FC0003F0
FC0003F0
FC0003F0
FC0003F0
FC0003F0
FC0003F0
FC0003F0
FC0003F0
FC0003F0
FC0003F0
FC0003F0
FC0003F0
FC0003F0
FC0003F0
FC0003F0
FC0003F0
FC0003F0
FC0003F0
FC0003F0
FC0003F0
FC0003F0
FC0003F0
FC0003F0
FE0003F0
FE0003F0
FE0003F0
7F0003F0
7F0003F0
7F8003F0
3FE003F0
3FFFFFF0
1FFFFFF0
0FFFFFF0
07FFFFF0
01FFFFC0
001FE000
ENDCHAR
STARTCHAR 00FC
ENCODING 252
SWIDTH 570 0
DWIDTH 38 0
BBX 28 50 5 -1
BITMAP
03801C00
07E07E00
0FE07F00
0FE0FF00
0FE0FF00
0FE07F00
07E07E00
03803C00
00000000
00000000
00000000
00000000
00000000
00000000
FC0003F0
FC0003F0
FC0003F0
FC0003F0
FC0003F0
FC0003F0
FC0003F0
FC0003F0
FC0003F0
FC0003F0
FC0003F0
FC0003F0
FC0003F0
FC0003F0
FC0003F0
FC0003F0
FC0003F0
FC0003F0
FC0003F0
FC0003F0
FC0003F0
FC0003F0
FC0003F0
FE0003F0
FE0003F0
FE0003F0
7F0003F0
7F0003F0
7F8003F0
3FE003F0
3FFFFFF0
1FFFFFF0
0FFFFFF0
07FFFFF0
01FFFFC0
001FE000
ENDCHAR
STARTCHAR 00FD
ENCODING 253
SWIDTH 495 0
DWIDTH 33 0
BBX 32 65 0 -13
BITMAP
00000400
00000E00
00000F00
00001F80
00003F80
00007F00
0000FE00
0001FC00
0001F800
0003F000
0007E000
0003C000
00018000
00000000
00000000
00000000
00000000
7F00007F
7F00007F
3F00007E
3F80007E
3F80007E
3F8000FE
1F8000FC
1FC000FC
1FC000FC
0FC001FC
0FE001F8
0FE001F8
07E001F8
07F003F0
03F003F0
03F003F0
03F807E0
01F807E0
01F807E0
01FC07C0
00FC0FC0
00FE0FC0
007E0F80
007E1F80
003F1F80
003F1F00
001FBF00
001FBF00
001FFE00
000FFE00
000FFE00
0007FC00
0007FC00
0003F800
0003F800
0001F800
0003F000
0003F000
0007E000
000FE000
000FC000
003F8000
7FFF8000
7FFF0000
7FFE0000
FFF80000
FFE00000
0C000000
ENDCHAR
STARTCHAR 00FE
ENCODING 254
SWIDTH 585 0
DWIDTH 39 0
BBX 31 64 5 -12
BITMAP
06000000
FE000000
FE000000
FE000000
FE000000
FE000000
FE000000
FE000000
FE000000
FE000000
FE000000
FE000000
FE000000
FE000000
FE000000
FE000000
FE000000
FEFFF000
FFFFFC00
FFFFFF00
FFFFFF80
FFFFFFC0
FF807FE0
FE001FF0
FE000FF0
FE0003F8
FE0003F8
FE0001FC
FE0001FC
FE0000FC
FE0000FE
FE0000FE
FE0000FE
FE0000FE
FE0000FE
FE0000FE
FE0000FE
FE0000FE
FE0000FE
FE0000FC
FE0000FC
FE0001FC
FE0001FC
FE0003F8
FE0007F8
FF000FF0
FFC01FF0
FFFFFFE0
FFFFFFC0
FFFFFF80
FFFFFF00
FE7FFC00
FE0FC000
FE000000
FE000000
FE000000
FE000000
FE000000
FE000000
FE000000
FE000000
FE000000
FE000000
FE000000
ENDCHAR
STARTCHAR 00FF
ENCODING 255
SWIDTH 495 0
DWIDTH 33 0
BBX 32 62 0 -13
BITMAP
00780380
00FC07E0
01FE0FE0
01FE0FF0
01FE0FF0
01FE0FE0
00FC07E0
00780380
00000000
00000000
00000000
00000000
00000000
00000000
7F00007F
7F00007F
3F00007E
3F80007E
3F80007E
3F8000FE
1F8000FC
1FC000FC
1FC000FC
0FC001FC
0FE001F8
0FE001F8
07E001F8
07F003F0
03F003F0
03F003F0
03F807E0
01F807E0
01F807E0
01FC07C0
00FC0FC0
00FE0FC0
007E0F80
007E1F80
003F1F80
003F1F00
001FBF00
001FBF00
001FFE00
000FFE00
000FFE00
0007FC00
0007FC00
0003F800
0003F800
0001F800
0003F000
0003F000
0007E000
000FE000
000FC000
003F8000
7FFF8000
7FFF0000
7FFE0000
FFF80000
FFE00000
0C000000
ENDCHAR
STARTCHAR 0100
ENCODING 256
SWIDTH 660 0
DWIDTH 44 0
BBX 42 58 1 0
BITMAP
000FFFFE0000
000FFFFE0000
000FFFFE0000
000FFFFE0000
000FFFFE0000
000000000000
000000000000
000000000000
000000000000
000000000000
000000000000
000000000000
00003F000000
00007F800000
00007F800000
0000FFC00000
0000FFC00000
0001FFE00000
0001FFE00000
0001FFF00000
0003F7F00000
0003F3F00000
0007E3F80000
0007E1F80000
000FE1FC0000
000FC0FC0000
000FC0FE0000
001F80FE0000
001F807E0000
003F807F0000
003F003F0000
003F003F8000
007E003F8000
007E001F8000
00FE001FC000
00FC000FC000
00FC000FE000
01FC000FE000
01F80007E000
03F80007F000
03F00007F000
03FFFFFFF800
07FFFFFFF800
07FFFFFFF800
0FFFFFFFFC00
0FFFFFFFFC00
0FC00000FC00
1FC00000FE00
1FC00000FE00
1F8000007F00
3F8000007F00
3F8000007F00
3F0000003F80
7F0000003F80
7F0000003F80
FE0000001FC0
FE0000001FC0
FC0000001FC0
ENDCHAR
STARTCHAR 0101
ENCODING 257
SWIDTH 510 0
DWIDTH 34 0
BBX 27 48 3 -1
BITMAP
07FFFF00
07FFFF00
07FFFF00
07FFFF00
00000000
00000000
00000000
00000000
00000000
00000000
00000000
000C0000
07FFF000
0FFFFC00
0FFFFE00
0FFFFF00
0FFFFF80
0C007F80
00003FC0
00001FC0
00000FC0
00000FE0
000007E0
000007E0
000007E0
000007E0
007FE7E0
03FFFFE0
0FFFFFE0
1FFFFFE0
3FFFFFE0
7FC00FE0
7F0007E0
FE0007E0
FE0007E0
FC0007E0
FC0007E0
FC0007E0
FC0007E0
FE0007E0
FE0007E0
7F8007E0
7FFDFFE0
3FFFFFE0
1FFFFFE0
0FFFFFE0
03FFFFC0
003FC000
ENDCHAR
STARTCHAR 0102
ENCODING 258
SWIDTH 660 0
DWIDTH 44 0
BBX 42 60 1 0
BITMAP
000F003C0000
000F803C0000
0007807C0000
0007C0F80000
0007FFF80000
0003FFF00000
0001FFF00000
0000FFC00000
00003F000000
000000000000
000000000000
000000000000
000000000000
000000000000
00003F000000
00007F800000
00007F800000
0000FFC00000
0000FFC00000
0001FFE00000
0001FFE00000
0001FFF00000
0003F7F00000
0003F3F00000
0007E3F80000
0007E1F80000
000FE1FC0000
000FC0FC0000
000FC0FE0000
001F80FE0000
001F807E0000
003F807F0000
003F003F0000
003F003F8000
007E003F8000
007E001F8000
00FE001FC000
00FC000FC000
00FC000FE000
01FC000FE000
01F80007E000
03F80007F000
03F00007F000
03FFFFFFF800
07FFFFFFF800
07FFFFFFF800
0FFFFFFFFC00
0FFFFFFFFC00
0FC00000FC00
1FC00000FE00
1FC00000FE00
1F8000007F00
3F8000007F00
3F8000007F00
3F0000003F80
7F0000003F80
7F0000003F80
FE0000001FC0
FE0000001FC0
FC0000001FC0
ENDCHAR
STARTCHAR 0103
ENCODING 259
SWIDTH 510 0
DWIDTH 34 0
BBX 27 51 3 -1
BITMAP
03C01E00
03C01E00
03C01E00
03E03E00
03F8FE00
01FFFC00
00FFF800
007FF000
001FC000
00000000
00000000
00000000
00000000
00000000
000C0000
07FFF000
0FFFFC00
0FFFFE00
0FFFFF00
0FFFFF80
0C007F80
00003FC0
00001FC0
00000FC0
00000FE0
000007E0
000007E0
000007E0
000007E0
007FE7E0
03FFFFE0
0FFFFFE0
1FFFFFE0
3FFFFFE0
7FC00FE0
7F0007E0
FE0007E0
FE0007E0
FC0007E0
FC0007E0
FC0007E0
FC0007E0
FE0007E0
FE0007E0
7F8007E0
7FFDFFE0
3FFFFFE0
1FFFFFE0
0FFFFFE0
03FFFFC0
003FC000
ENDCHAR
STARTCHAR 0104
ENCODING 260
SWIDTH 660 0
DWIDTH 44 0
BBX 43 58 1 -12
BITMAP
00003F000000
00007F800000
00007F800000
0000FFC00000
0000FFC00000
0001FFE00000
0001FFE00000
0001FFF00000
0003F7F00000
0003F3F00000
0007E3F80000
0007E1F80000
000FE1FC0000
000FC0FC0000
000FC0FE0000
001F80FE0000
001F807E0000
003F807F0000
003F003F0000
003F003F8000
007E003F8000
007E001F8000
00FE001FC000
00FC000FC000
00FC000FE000
01FC000FE000
01F80007E000
03F80007F000
03F00007F000
03FFFFFFF800
07FFFFFFF800
07FFFFFFF800
0FFFFFFFFC00
0FFFFFFFFC00
0FC00000FC00
1FC00000FE00
1FC00000FE00
1F8000007F00
3F8000007F00
3F8000007F00
3F0000003F80
7F0000003F80
7F0000003F80
FE0000001FC0
FE0000001FC0
FC0000001FC0
000000001FC0
000000003F00
000000007E00
000000007C00
00000000FC00
00000001F800
00000001F800
00000001F800
00000001FFE0
00000000FFE0
00000000FFE0
000000003FE0
ENDCHAR
STARTCHAR 0105
ENCODING 261
SWIDTH 510 0
DWIDTH 34 0
BBX 27 48 3 -12
BITMAP
000C0000
07FFF000
0FFFFC00
0FFFFE00
0FFFFF00
0FFFFF80
0C007F80
00003FC0
00001FC0
00000FC0
00000FE0
000007E0
000007E0
000007E0
000007E0
007FE7E0
03FFFFE0
0FFFFFE0
1FFFFFE0
3FFFFFE0
7FC00FE0
7F0007E0
FE0007E0
FE0007E0
FC0007E0
FC0007E0
FC0007E0
FC0007E0
FE0007E0
FE0007E0
7F8007E0
7FFDFFE0
3FFFFFE0
1FFFFFE0
0FFFFFE0
03FFFFE0
003FCF80
00003F00
00007E00
00007C00
0000FC00
0001F800
0001F800
0001F800
0001FFE0
0000FFE0
0000FFE0
00003FE0
ENDCHAR
STARTCHAR 0106
ENCODING 262
SWIDTH 615 0
DWIDTH 41 0
BBX 36 63 4 -1
BITMAP
0000008000
000001C000
000003E000
000007F000
000007F000
00000FE000
00001FC000
00003F8000
00007F0000
00007E0000
0000FC0000
0000380000
0000100000
0000000000
0000000000
0000FFF800
0007FFFF00
001FFFFFE0
007FFFFFE0
00FFFFFFE0
01FFF8FFC0
03FF0007C0
07FC0000C0
0FF8000000
0FF0000000
1FE0000000
1FC0000000
3F80000000
3F80000000
7F00000000
7F00000000
7F00000000
FE00000000
FE00000000
FE00000000
FE00000000
FE00000000
FE00000000
FE00000000
FE00000000
FE00000000
FE00000000
FE00000000
FE00000000
FE00000000
FE00000000
7F00000000
7F00000000
7F00000000
3F80000000
3F80000000
3FC0000000
1FE0000000
1FF0000000
0FF8000000
07FC0000C0
03FF8007E0
01FFFFFFE0
00FFFFFFE0
007FFFFFF0
001FFFFFE0
0007FFFF00
0000FFF000
ENDCHAR
STARTCHAR 0107
ENCODING 263
SWIDTH 465 0
DWIDTH 31 0
BBX 27 52 3 0
BITMAP
00001800
00003C00
00003E00
00007F00
0000FE00
0001FC00
0003F800
0007F000
0007E000
000FC000
00078000
00030000
00000000
00000000
00000000
00008000
001FFF00
007FFFC0
01FFFFC0
03FFFFC0
07FFFF80
0FFC0380
1FF00000
1FC00000
3F800000
3F800000
3F000000
7F000000
7E000000
7E000000
7E000000
FE000000
FE000000
FE000000
FE000000
FE000000
7E000000
7E000000
7E000000
7F000000
7F000000
3F800000
3F800000
3FC00000
1FE00000
0FF800C0
0FFFFFC0
07FFFFC0
01FFFFC0
00FFFFE0
003FFFC0
0003F800
ENDCHAR
STARTCHAR 0108
ENCODING 264
SWIDTH 615 0
DWIDTH 41 0
BBX 36 63 4 -1
BITMAP
0000080000
00001C0000
00003E0000
00007F0000
0000FF0000
0000FF8000
0001FFC000
0003F7E000
0007E3F000
000FC1F800
000F80F800
0006007000
0000000000
0000000000
0000000000
0000FFF800
0007FFFF00
001FFFFFE0
007FFFFFE0
00FFFFFFE0
01FFF8FFC0
03FF0007C0
07FC0000C0
0FF8000000
0FF0000000
1FE0000000
1FC0000000
3F80000000
3F80000000
7F00000000
7F00000000
7F00000000
FE00000000
FE00000000
FE00000000
FE00000000
FE00000000
FE00000000
FE00000000
FE00000000
FE00000000
FE00000000
FE00000000
FE00000000
FE00000000
FE00000000
7F00000000
7F00000000
7F00000000
3F80000000
3F80000000
3FC0000000
1FE0000000
1FF0000000
0FF8000000
07FC0000C0
03FF8007E0
01FFFFFFE0
00FFFFFFE0
007FFFFFF0
001FFFFFE0
0007FFFF00
0000FFF000
ENDCHAR
STARTCHAR 0109
ENCODING 265
SWIDTH 465 0
DWIDTH 31 0
BBX 27 52 3 -1
BITMAP
00018000
0003C000
0007E000
0007F000
000FF800
001FFC00
003FFE00
007E7F00
00FC3F00
01F80F80
00F00700
00400200
00000000
00000000
00000000
00008000
001FFF00
007FFFC0
01FFFFC0
03FFFFC0
07FFFF80
0FFC0380
1FF00000
1FC00000
3F800000
3F800000
3F000000
7F000000
7E000000
7E000000
7E000000
FE000000
FE000000
FE000000
FE000000
FE000000
7E000000
7E000000
7E000000
7F000000
7F000000
3F800000
3F800000
3FC00000
1FE00000
0FF800C0
0FFFFFC0
07FFFFC0
01FFFFC0
00FFFFE0
003FFFC0
0003F800
ENDCHAR
STARTCHAR 010A
ENCODING 266
SWIDTH 615 0
DWIDTH 41 0
BBX 36 60 4 -1
BITMAP
00003E0000
00007F0000
00007F0000
0000FF0000
00007F0000
00007F0000
00003E0000
0000080000
0000000000
0000000000
0000000000
0000000000
0000FFF800
0007FFFF00
001FFFFFE0
007FFFFFE0
00FFFFFFE0
01FFF8FFC0
03FF0007C0
07FC0000C0
0FF8000000
0FF0000000
1FE0000000
1FC0000000
3F80000000
3F80000000
7F00000000
7F00000000
7F00000000
FE00000000
FE00000000
FE00000000
FE00000000
FE00000000
FE00000000
FE00000000
FE00000000
FE00000000
FE00000000
FE00000000
FE00000000
FE00000000
FE00000000
7F00000000
7F00000000
7F00000000
3F80000000
3F80000000
3FC0000000
1FE0000000
1FF0000000
0FF8000000
07FC0000C0
03FF8007E0
01FFFFFFE0
00FFFFFFE0
007FFFFFF0
001FFFFFE0
0007FFFF00
0000FFF000
ENDCHAR
STARTCHAR 010B
ENCODING 267
SWIDTH 465 0
DWIDTH 31 0
BBX 27 50 3 -1
BITMAP
0003C000
0007E000
000FF000
000FF000
000FF000
000FF000
0007E000
0003C000
00000000
00000000
00000000
00000000
00000000
00008000
001FFF00
007FFFC0
01FFFFC0
03FFFFC0
07FFFF80
0FFC0380
1FF00000
1FC00000
3F800000
3F800000
3F000000
7F000000
7E000000
7E000000
7E000000
FE000000
FE000000
FE000000
FE000000
FE000000
7E000000
7E000000
7E000000
7F000000
7F000000
3F800000
3F800000
3FC00000
1FE00000
0FF800C0
0FFFFFC0
07FFFFC0
01FFFFC0
00FFFFE0
003FFFC0
0003F800
ENDCHAR
STARTCHAR 010C
ENCODING 268
SWIDTH 615 0
DWIDTH 41 0
BBX 36 63 4 -1
BITMAP
0000002000
0007007000
000F80F800
000FC1F800
0007E3F000
0003F7E000
0001FFC000
0000FF8000
00007F0000
00003E0000
00001C0000
0000180000
0000080000
0000000000
0000000000
0000FFF800
0007FFFF00
001FFFFFE0
007FFFFFE0
00FFFFFFE0
01FFF8FFC0
03FF0007C0
07FC0000C0
0FF8000000
0FF0000000
1FE0000000
1FC0000000
3F80000000
3F80000000
7F00000000
7F00000000
7F00000000
FE00000000
FE00000000
FE00000000
FE00000000
FE00000000
FE00000000
FE00000000
FE00000000
FE00000000
FE00000000
FE00000000
FE00000000
FE00000000
FE00000000
7F00000000
7F00000000
7F00000000
3F80000000
3F80000000
3FC0000000
1FE0000000
1FF0000000
0FF8000000
07FC0000C0
03FF8007E0
01FFFFFFE0
00FFFFFFE0
007FFFFFF0
001FFFFFE0
0007FFFF00
0000FFF000
ENDCHAR
STARTCHAR 010D
ENCODING 269
SWIDTH 465 0
DWIDTH 31 0
BBX 27 52 3 0
BITMAP
00600700
00F00F00
01F81F80
00FC3F00
007E7E00
003FFC00
001FF800
000FF000
0007E000
0003C000
0001C000
00008000
00000000
00000000
00000000
00008000
001FFF00
007FFFC0
01FFFFC0
03FFFFC0
07FFFF80
0FFC0380
1FF00000
1FC00000
3F800000
3F800000
3F000000
7F000000
7E000000
7E000000
7E000000
FE000000
FE000000
FE000000
FE000000
FE000000
7E000000
7E000000
7E000000
7F000000
7F000000
3F800000
3F800000
3FC00000
1FE00000
0FF800C0
0FFFFFC0
07FFFFC0
01FFFFC0
00FFFFE0
003FFFC0
0003F800
ENDCHAR
STARTCHAR 010E
ENCODING 270
SWIDTH 705 0
DWIDTH 47 0
BBX 38 62 6 0
BITMAP
0040020000
00E0070000
01F00F8000
01F81F8000
00FE3F0000
007F7E0000
003FFC0000
001FF80000
000FF00000
0007E00000
0003C00000
0001800000
0000000000
0000000000
0000000000
01FE000000
FFFFF80000
FFFFFF8000
FFFFFFE000
FFFFFFF000
FFFFFFFC00
FC003FFE00
FC0007FF00
FC0001FF80
FC00007FC0
FC00003FC0
FC00001FE0
FC00000FE0
FC00000FF0
FC000007F0
FC000007F8
FC000003F8
FC000003F8
FC000003F8
FC000003F8
FC000001F8
FC000001FC
FC000001FC
FC000001FC
FC000001FC
FC000001FC
FC000001FC
FC000001F8
FC000003F8
FC000003F8
FC000003F8
FC000003F8
FC000007F0
FC000007F0
FC00000FF0
FC00000FE0
FC00001FE0
FC00003FC0
FC00007F80
FC0001FF80
FC0007FF00
FC00FFFE00
FFFFFFF800
FFFFFFF000
FFFFFFC000
FFFFFF0000
7FFFF00000
ENDCHAR
STARTCHAR 010F
ENCODING 271
SWIDTH 615 0
DWIDTH 41 0
BBX 42 53 3 -1
BITMAP
000000020FC0
0000007E0F80
0000007E0F80
0000007E0F80
0000007E0F80
0000007E0F80
0000007E0F80
0000007E0F80
0000007E0F80
0000007E0F00
0000007E0F00
0000007E0F00
0000007E0F00
0000007E0F00
0000007E0F00
0000007E0000
0000007E0000
003FFC7E0000
00FFFF7E0000
01FFFFFE0000
07FFFFFE0000
07FFFFFE0000
0FF80FFE0000
1FE001FE0000
1FC000FE0000
3F80007E0000
3F80007E0000
7F00007E0000
7F00007E0000
7E00007E0000
7E00007E0000
7E00007E0000
FE00007E0000
FE00007E0000
FE00007E0000
FE00007E0000
FE00007E0000
7E00007E0000
7E00007E0000
7E00007E0000
7F00007E0000
7F00007E0000
3F80007E0000
3F80007E0000
1FC0007E0000
1FF0007E0000
0FF8007E0000
07FFFFFE0000
03FFFFFE0000
01FFFFFE0000
00FFFFFE0000
003FFFF80000
0003FF000000
ENDCHAR
STARTCHAR 0110
ENCODING 272
SWIDTH 720 0
DWIDTH 48 0
BBX 44 47 1 0
BITMAP
0007F4000000
03FFFFE00000
03FFFFFC0000
03FFFFFF8000
03FFFFFFC000
03FFFFFFF000
03F000FFF800
03F0001FFC00
03F00007FE00
03F00001FE00
03F00000FF00
03F000007F80
03F000003F80
03F000003FC0
03F000001FC0
03F000001FC0
03F000000FE0
03F000000FE0
03F000000FE0
03F000000FE0
FFFFF8000FE0
FFFFF80007E0
FFFFF80007F0
FFFFF80007F0
FFFFF80007F0
03F0000007E0
03F0000007E0
03F000000FE0
03F000000FE0
03F000000FE0
03F000000FE0
03F000001FE0
03F000001FC0
03F000001FC0
03F000003FC0
03F000007F80
03F000007F80
03F00000FF00
03F00003FE00
03F00007FC00
03F0001FFC00
03F003FFF800
03FFFFFFE000
03FFFFFFC000
03FFFFFF0000
03FFFFFC0000
01FFFFC00000
ENDCHAR
STARTCHAR 0111
ENCODING 273
SWIDTH 585 0
DWIDTH 39 0
BBX 36 53 3 -1
BITMAP
0000000200
0000007E00
0000007E00
0000007E00
0000007E00
0000007E00
0007FFFFF0
0007FFFFF0
0007FFFFF0
0007FFFFF0
0007FFFFF0
0000007E00
0000007E00
0000007E00
0000007E00
0000007E00
0000007E00
001FF87E00
007FFF7E00
01FFFFFE00
03FFFFFE00
07FFFFFE00
0FFC1FFE00
1FF003FE00
1FC000FE00
3F80007E00
3F80007E00
7F00007E00
7F00007E00
7E00007E00
7E00007E00
7E00007E00
FE00007E00
FE00007E00
FE00007E00
FE00007E00
FE00007E00
7E00007E00
7E00007E00
7E00007E00
7F00007E00
7F00007E00
3F80007E00
3F80007E00
1FC0007E00
1FF0007E00
0FF8007E00
07FFFFFE00
03FFFFFE00
01FFFFFE00
00FFFFFE00
003FFFF800
0003FF0000
ENDCHAR
STARTCHAR 0112
ENCODING 274
SWIDTH 570 0
DWIDTH 38 0
BBX 30 58 6 0
BITMAP
0FFFFE00
0FFFFE00
0FFFFE00
0FFFFE00
0FFFFE00
00000000
00000000
00000000
00000000
00000000
00000000
00000000
FFFFFFF0
FFFFFFF0
FFFFFFF0
FFFFFFF0
FFFFFFF0
FC000000
FC000000
FC000000
FC000000
FC000000
FC000000
FC000000
FC000000
FC000000
FC000000
FC000000
FC000000
FC000000
FC000000
FFFFFFC0
FFFFFFC0
FFFFFFC0
FFFFFFC0
FFFFFFC0
FC000000
FC000000
FC000000
FC000000
FC000000
FC000000
FC000000
FC000000
FC000000
FC000000
FC000000
FC000000
FC000000
FC000000
FC000000
FC000000
FFFFFFFC
FFFFFFFC
FFFFFFFC
FFFFFFFC
FFFFFFFC
FFFFFFFC
ENDCHAR
STARTCHAR 0113
ENCODING 275
SWIDTH 555 0
DWIDTH 37 0
BBX 31 48 3 -1
BITMAP
03FFFF80
03FFFF80
03FFFF80
03FFFF80
00000000
00000000
00000000
00000000
00000000
00000000
00000000
00018000
001FFC00
00FFFF00
01FFFFC0
03FFFFE0
07FFFFE0
0FF80FF0
1FE007F8
1FC003F8
3F8001F8
3F0001FC
7F0000FC
7F0000FC
7E0000FC
7E0000FC
7FFFFFFE
FFFFFFFE
FFFFFFFE
FFFFFFFE
FFFFFFFE
FE000000
7E000000
7E000000
7E000000
7F000000
7F000000
3F800000
3F800000
3FC00000
1FE00000
0FF80070
0FFFFFF0
07FFFFF0
01FFFFF0
00FFFFF0
003FFFE0
0003FC00
ENDCHAR
STARTCHAR 0114
ENCODING 276
SWIDTH 570 0
DWIDTH 38 0
BBX 30 60 6 0
BITMAP
0F803C00
0F803C00
07807C00
07C0FC00
07FFF800
03FFF000
01FFF000
00FFC000
003F0000
00000000
00000000
00000000
00000000
00000000
FFFFFFF0
FFFFFFF0
FFFFFFF0
FFFFFFF0
FFFFFFF0
FC000000
FC000000
FC000000
FC000000
FC000000
FC000000
FC000000
FC000000
FC000000
FC000000
FC000000
FC000000
FC000000
FC000000
FFFFFFC0
FFFFFFC0
FFFFFFC0
FFFFFFC0
FFFFFFC0
FC000000
FC000000
FC000000
FC000000
FC000000
FC000000
FC000000
FC000000
FC000000
FC000000
FC000000
FC000000
FC000000
FC000000
FC000000
FC000000
FFFFFFFC
FFFFFFFC
FFFFFFFC
FFFFFFFC
FFFFFFFC
FFFFFFFC
ENDCHAR
STARTCHAR 0115
ENCODING 277
SWIDTH 555 0
DWIDTH 37 0
BBX 31 51 3 -1
BITMAP
01E00780
01E00F80
01F00F00
01F01F00
00FC3F00
00FFFE00
007FFE00
003FF800
000FF000
00000000
00000000
00000000
00000000
00000000
00018000
001FFC00
00FFFF00
01FFFFC0
03FFFFE0
07FFFFE0
0FF80FF0
1FE007F8
1FC003F8
3F8001F8
3F0001FC
7F0000FC
7F0000FC
7E0000FC
7E0000FC
7FFFFFFE
FFFFFFFE
FFFFFFFE
FFFFFFFE
FFFFFFFE
FE000000
7E000000
7E000000
7E000000
7F000000
7F000000
3F800000
3F800000
3FC00000
1FE00000
0FF80070
0FFFFFF0
07FFFFF0
01FFFFF0
00FFFFF0
003FFFE0
0003FC00
ENDCHAR
STARTCHAR 0116
ENCODING 278
SWIDTH 570 0
DWIDTH 38 0
BBX 30 59 6 0
BITMAP
001F0000
003F8000
003FC000
003FC000
003FC000
003F8000
001F8000
00060000
00000000
00000000
00000000
00000000
00000000
FFFFFFF0
FFFFFFF0
FFFFFFF0
FFFFFFF0
FFFFFFF0
FC000000
FC000000
FC000000
FC000000
FC000000
FC000000
FC000000
FC000000
FC000000
FC000000
FC000000
FC000000
FC000000
FC000000
FFFFFFC0
FFFFFFC0
FFFFFFC0
FFFFFFC0
FFFFFFC0
FC000000
FC000000
FC000000
FC000000
FC000000
FC000000
FC000000
FC000000
FC000000
FC000000
FC000000
FC000000
FC000000
FC000000
FC000000
FC000000
FFFFFFFC
FFFFFFFC
FFFFFFFC
FFFFFFFC
FFFFFFFC
FFFFFFFC
ENDCHAR
STARTCHAR 0117
ENCODING 279
SWIDTH 555 0
DWIDTH 37 0
BBX 31 50 3 -1
BITMAP
0003C000
0007E000
000FF000
000FF000
000FF000
000FF000
0007E000
0003C000
00000000
00000000
00000000
00000000
00000000
00018000
001FFC00
00FFFF00
01FFFFC0
03FFFFE0
07FFFFE0
0FF80FF0
1FE007F8
1FC003F8
3F8001F8
3F0001FC
7F0000FC
7F0000FC
7E0000FC
7E0000FC
7FFFFFFE
FFFFFFFE
FFFFFFFE
FFFFFFFE
FFFFFFFE
FE000000
7E000000
7E000000
7E000000
7F000000
7F000000
3F800000
3F800000
3FC00000
1FE00000
0FF80070
0FFFFFF0
07FFFFF0
01FFFFF0
00FFFFF0
003FFFE0
0003FC00
ENDCHAR
STARTCHAR 0118
ENCODING 280
SWIDTH 570 0
DWIDTH 38 0
BBX 30 58 6 -12
BITMAP
FFFFFFF0
FFFFFFF0
FFFFFFF0
FFFFFFF0
FFFFFFF0
FC000000
FC000000
FC000000
FC000000
FC000000
FC000000
FC000000
FC000000
FC000000
FC000000
FC000000
FC000000
FC000000
FC000000
FFFFFFC0
FFFFFFC0
FFFFFFC0
FFFFFFC0
FFFFFFC0
FC000000
FC000000
FC000000
FC000000
FC000000
FC000000
FC000000
FC000000
FC000000
FC000000
FC000000
FC000000
FC000000
FC000000
FC000000
FC000000
FFFFFFFC
FFFFFFFC
FFFFFFFC
FFFFFFFC
FFFFFFFC
FFFFFFFC
000003F8
000007E0
00000FC0
00000F80
00001F80
00003F00
00003F00
00003F00
00003FFC
00001FFC
00001FFC
000007FC
ENDCHAR
STARTCHAR 0119
ENCODING 281
SWIDTH 555 0
DWIDTH 37 0
BBX 31 48 3 -12
BITMAP
00018000
001FFC00
00FFFF00
01FFFFC0
03FFFFE0
07FFFFE0
0FF80FF0
1FE007F8
1FC003F8
3F8001F8
3F0001FC
7F0000FC
7F0000FC
7E0000FC
7E0000FC
7FFFFFFE
FFFFFFFE
FFFFFFFE
FFFFFFFE
FFFFFFFE
FE000000
7E000000
7E000000
7E000000
7F000000
7F000000
3F800000
3F800000
3FC00000
1FE00000
0FF80070
0FFFFFF0
07FFFFF0
01FFFFF0
00FFFFF0
003FFFE0
0003FFC0
00001F80
00003F00
00007E00
00007C00
0000FC00
0000FC00
0000FC00
0000FFE0
0000FFE0
00007FE0
00003FF0
ENDCHAR
STARTCHAR 011A
ENCODING 282
SWIDTH 570 0
DWIDTH 38 0
BBX 30 62 6 0
BITMAP
02001000
07003800
07807C00
07E0FC00
03F1F800
01FBF000
01FFE000
00FFC000
007F8000
003F0000
001E0000
000C0000
00000000
00000000
00000000
00000000
FFFFFFF0
FFFFFFF0
FFFFFFF0
FFFFFFF0
FFFFFFF0
FC000000
FC000000
FC000000
FC000000
FC000000
FC000000
FC000000
FC000000
FC000000
FC000000
FC000000
FC000000
FC000000
FC000000
FFFFFFC0
FFFFFFC0
FFFFFFC0
FFFFFFC0
FFFFFFC0
FC000000
FC000000
FC000000
FC000000
FC000000
FC000000
FC000000
FC000000
FC000000
FC000000
FC000000
FC000000
FC000000
FC000000
FC000000
FC000000
FFFFFFFC
FFFFFFFC
FFFFFFFC
FFFFFFFC
FFFFFFFC
FFFFFFFC
ENDCHAR
STARTCHAR 011B
ENCODING 283
SWIDTH 555 0
DWIDTH 37 0
BBX 31 53 3 -1
BITMAP
00000200
00600600
00F00F00
01F81F80
00FC3F00
007E7E00
003FFC00
001FF800
000FF000
0007E000
0003C000
00018000
00000000
00000000
00000000
00000000
00018000
001FFC00
00FFFF00
01FFFFC0
03FFFFE0
07FFFFE0
0FF80FF0
1FE007F8
1FC003F8
3F8001F8
3F0001FC
7F0000FC
7F0000FC
7E0000FC
7E0000FC
7FFFFFFE
FFFFFFFE
FFFFFFFE
FFFFFFFE
FFFFFFFE
FE000000
7E000000
7E000000
7E000000
7F000000
7F000000
3F800000
3F800000
3FC00000
1FE00000
0FF80070
0FFFFFF0
07FFFFF0
01FFFFF0
00FFFFF0
003FFFE0
0003FC00
ENDCHAR
STARTCHAR 011C
ENCODING 284
SWIDTH 660 0
DWIDTH 44 0
BBX 36 62 4 0
BITMAP
00000C0000
00001E0000
00003F0000
00007F8000
0000FFC000
0001FFE000
0003F3F000
0007E1F800
000FC0FC00
000F807C00
0007003800
0002001000
0000000000
0000000000
0000FFFC00
0007FFFF80
001FFFFFE0
007FFFFFF0
00FFFFFFF0
01FFF8FFE0
03FF0003E0
07FC000040
0FF8000000
0FF0000000
1FE0000000
1FC0000000
3F80000000
3F80000000
7F00000000
7F00000000
7F00000000
FE00000000
FE00000000
FE00000000
FE00000000
FE00000000
FE00000000
FE00000000
FE000003F0
FE000003F0
FE000003F0
FE000003F0
FE000003F0
FE000003F0
FE000003F0
7F000003F0
7F000003F0
7F000003F0
3F800003F0
3F800003F0
3FC00003F0
1FE00003F0
1FF00003F0
0FF80003F0
07FE0003F0
03FF8003F0
01FFFFFFF0
00FFFFFFF0
007FFFFFF0
001FFFFFF0
0007FFFFC0
00007FF000
ENDCHAR
STARTCHAR 011D
ENCODING 285
SWIDTH 570 0
DWIDTH 38 0
BBX 30 64 3 -13
BITMAP
0000C000
0000E000
0001F000
0003F800
0007FC00
000FFE00
001FFF00
003F3F80
007E0FC0
00FC07C0
00780380
00300100
00000000
00000000
00000000
00000000
001FFFC0
007FFFFC
01FFFFFC
03FFFFFC
07FFFFFC
0FFC01FC
1FF000FC
1FC000FC
3F8000FC
3F8000FC
7F0000FC
7F0000FC
7E0000FC
7E0000FC
7E0000FC
FE0000FC
FE0000FC
FE0000FC
FE0000FC
FE0000FC
7E0000FC
7E0000FC
7F0000FC
7F0000FC
3F8000FC
3FC000FC
1FE001FC
1FF007FC
0FFFFFFC
07FFFFFC
03FFFFFC
01FFFFFC
007FFCFC
0007E0FC
000000FC
000000FC
000000FC
000001FC
000001F8
000003F8
100007F8
1E001FF0
1FFFFFE0
1FFFFFE0
1FFFFF80
3FFFFF00
07FFF800
00040000
ENDCHAR
STARTCHAR 011E
ENCODING 286
SWIDTH 660 0
DWIDTH 44 0
BBX 36 61 4 -1
BITMAP
000F003C00
000F807C00
000F807C00
0007C0F800
0007FFF800
0003FFF000
0001FFE000
0000FFC000
00003F0000
0000000000
0000000000
0000000000
0000000000
0000FFFC00
0007FFFF80
001FFFFFE0
007FFFFFF0
00FFFFFFF0
01FFF8FFE0
03FF0003E0
07FC000040
0FF8000000
0FF0000000
1FE0000000
1FC0000000
3F80000000
3F80000000
7F00000000
7F00000000
7F00000000
FE00000000
FE00000000
FE00000000
FE00000000
FE00000000
FE00000000
FE00000000
FE000003F0
FE000003F0
FE000003F0
FE000003F0
FE000003F0
FE000003F0
FE000003F0
7F000003F0
7F000003F0
7F000003F0
3F800003F0
3F800003F0
3FC00003F0
1FE00003F0
1FF00003F0
0FF80003F0
07FE0003F0
03FF8003F0
01FFFFFFF0
00FFFFFFF0
007FFFFFF0
001FFFFFF0
0007FFFFC0
00007FF000
ENDCHAR
STARTCHAR 011F
ENCODING 287
SWIDTH 570 0
DWIDTH 38 0
BBX 30 63 3 -13
BITMAP
00F003C0
00F803C0
00F807C0
007C07C0
007E1F80
003FFF80
003FFF00
000FFE00
0007F800
00000000
00000000
00000000
00000000
00000000
00000000
001FFFC0
007FFFFC
01FFFFFC
03FFFFFC
07FFFFFC
0FFC01FC
1FF000FC
1FC000FC
3F8000FC
3F8000FC
7F0000FC
7F0000FC
7E0000FC
7E0000FC
7E0000FC
FE0000FC
FE0000FC
FE0000FC
FE0000FC
FE0000FC
7E0000FC
7E0000FC
7F0000FC
7F0000FC
3F8000FC
3FC000FC
1FE001FC
1FF007FC
0FFFFFFC
07FFFFFC
03FFFFFC
01FFFFFC
007FFCFC
0007E0FC
000000FC
000000FC
000000FC
000001FC
000001F8
000003F8
100007F8
1E001FF0
1FFFFFE0
1FFFFFE0
1FFFFF80
3FFFFF00
07FFF800
00040000
ENDCHAR
STARTCHAR 0120
ENCODING 288
SWIDTH 660 0
DWIDTH 44 0
BBX 36 60 4 -1
BITMAP
00003F0000
00007F8000
00007F8000
00007F8000
00007F8000
00007F8000
00003F0000
00000C0000
0000000000
0000000000
0000000000
0000000000
0000FFFC00
0007FFFF80
001FFFFFE0
007FFFFFF0
00FFFFFFF0
01FFF8FFE0
03FF0003E0
07FC000040
0FF8000000
0FF0000000
1FE0000000
1FC0000000
3F80000000
3F80000000
7F00000000
7F00000000
7F00000000
FE00000000
FE00000000
FE00000000
FE00000000
FE00000000
FE00000000
FE00000000
FE000003F0
FE000003F0
FE000003F0
FE000003F0
FE000003F0
FE000003F0
FE000003F0
7F000003F0
7F000003F0
7F000003F0
3F800003F0
3F800003F0
3FC00003F0
1FE00003F0
1FF00003F0
0FF80003F0
07FE0003F0
03FF8003F0
01FFFFFFF0
00FFFFFFF0
007FFFFFF0
001FFFFFF0
0007FFFFC0
00007FF000
ENDCHAR
STARTCHAR 0121
ENCODING 289
SWIDTH 570 0
DWIDTH 38 0
BBX 30 62 3 -13
BITMAP
0001E000
0003F000
0007F800
0007F800
0007F800
0007F800
0003F000
0001E000
00000000
00000000
00000000
00000000
00000000
00000000
001FFFC0
007FFFFC
01FFFFFC
03FFFFFC
07FFFFFC
0FFC01FC
1FF000FC
1FC000FC
3F8000FC
3F8000FC
7F0000FC
7F0000FC
7E0000FC
7E0000FC
7E0000FC
FE0000FC
FE0000FC
FE0000FC
FE0000FC
FE0000FC
7E0000FC
7E0000FC
7F0000FC
7F0000FC
3F8000FC
3FC000FC
1FE001FC
1FF007FC
0FFFFFFC
07FFFFFC
03FFFFFC
01FFFFFC
007FFCFC
0007E0FC
000000FC
000000FC
000000FC
000001FC
000001F8
000003F8
100007F8
1E001FF0
1FFFFFE0
1FFFFFE0
1FFFFF80
3FFFFF00
07FFF800
00040000
ENDCHAR
STARTCHAR 0122
ENCODING 290
SWIDTH 660 0
DWIDTH 44 0
BBX 36 60 4 -13
BITMAP
0000FFFC00
0007FFFF80
001FFFFFE0
007FFFFFF0
00FFFFFFF0
01FFF8FFE0
03FF0003E0
07FC000040
0FF8000000
0FF0000000
1FE0000000
1FC0000000
3F80000000
3F80000000
7F00000000
7F00000000
7F00000000
FE00000000
FE00000000
FE00000000
FE00000000
FE00000000
FE00000000
FE00000000
FE000003F0
FE000003F0
FE000003F0
FE000003F0
FE000003F0
FE000003F0
FE000003F0
7F000003F0
7F000003F0
7F000003F0
3F800003F0
3F800003F0
3FC00003F0
1FE00003F0
1FF00003F0
0FF80003F0
07FE0003F0
03FF8003F0
01FFFFFFF0
00FFFFFFF0
007FFFFFF0
001FFFFFF0
0007FFFFC0
00007FF000
0000000000
0000000000
00003F0000
00003F0000
00003F0000
00003F0000
00007F0000
0003FF0000
0003FE0000
0003FC0000
0003F80000
0000800000
ENDCHAR
STARTCHAR 0123
ENCODING 291
SWIDTH 570 0
DWIDTH 38 0
BBX 30 65 3 -13
BITMAP
00000C00
00003E00
00007F00
0000FE00
0001FC00
0001F800
0001F800
0003F000
0003F000
0003F000
0003F000
00000000
00000000
00000000
00000000
00000000
00000000
001FFFC0
007FFFFC
01FFFFFC
03FFFFFC
07FFFFFC
0FFC01FC
1FF000FC
1FC000FC
3F8000FC
3F8000FC
7F0000FC
7F0000FC
7E0000FC
7E0000FC
7E0000FC
FE0000FC
FE0000FC
FE0000FC
FE0000FC
FE0000FC
7E0000FC
7E0000FC
7F0000FC
7F0000FC
3F8000FC
3FC000FC
1FE001FC
1FF007FC
0FFFFFFC
07FFFFFC
03FFFFFC
01FFFFFC
007FFCFC
0007E0FC
000000FC
000000FC
000000FC
000001FC
000001F8
000003F8
100007F8
1E001FF0
1FFFFFE0
1FFFFFE0
1FFFFF80
3FFFFF00
07FFF800
00040000
ENDCHAR
STARTCHAR 0124
ENCODING 292
SWIDTH 705 0
DWIDTH 47 0
BBX 35 62 6 0
BITMAP
0000400000
0000E00000
0001F00000
0003F80000
0007F80000
0007FC0000
000FFE0000
001FBF0000
003F1F8000
007E0FC000
007C07C000
0030038000
0000000000
0000000000
0000000000
0000000000
FC000007E0
FC000007E0
FC000007E0
FC000007E0
FC000007E0
FC000007E0
FC000007E0
FC000007E0
FC000007E0
FC000007E0
FC000007E0
FC000007E0
FC000007E0
FC000007E0
FC000007E0
FC000007E0
FC000007E0
FC000007E0
FC000007E0
FFFFFFFFE0
FFFFFFFFE0
FFFFFFFFE0
FFFFFFFFE0
FFFFFFFFE0
FFFFFFFFE0
FC000007E0
FC000007E0
FC000007E0
FC000007E0
FC000007E0
FC000007E0
FC000007E0
FC000007E0
FC000007E0
FC000007E0
FC000007E0
FC000007E0
FC000007E0
FC000007E0
FC000007E0
FC000007E0
FC000007E0
FC000007E0
FC000007E0
FC000007E0
FC000007E0
ENDCHAR
STARTCHAR 0125
ENCODING 293
SWIDTH 570 0
DWIDTH 38 0
BBX 29 64 4 0
BITMAP
01800000
03C00000
0FE00000
1FF00000
3FFC0000
FEFE0000
FC3F0000
F01E0000
60040000
00000000
00000000
00000000
03000000
7F000000
7F000000
7F000000
7F000000
7F000000
7F000000
7F000000
7F000000
7F000000
7F000000
7F000000
7F000000
7F000000
7F000000
7F000000
7F000000
7F7FF800
7FFFFE00
7FFFFF80
7FFFFFC0
7FFFFFE0
7FC03FE0
7F000FF0
7F0007F0
7F0003F8
7F0003F8
7F0003F8
7F0001F8
7F0001F8
7F0001F8
7F0001F8
7F0001F8
7F0001F8
7F0001F8
7F0001F8
7F0001F8
7F0001F8
7F0001F8
7F0001F8
7F0001F8
7F0001F8
7F0001F8
7F0001F8
7F0001F8
7F0001F8
7F0001F8
7F0001F8
7F0001F8
7F0001F8
7F0001F8
7F0001F8
ENDCHAR
STARTCHAR 0126
ENCODING 294
SWIDTH 720 0
DWIDTH 48 0
BBX 46 46 1 0
BITMAP
03F000001F80
03F000001F80
03F000001F80
03F000001F80
03F000001F80
03F000001F80
FFFFFFFFFFFC
FFFFFFFFFFFC
FFFFFFFFFFFC
FFFFFFFFFFFC
FFFFFFFFFFFC
03F000001F80
03F000001F80
03F000001F80
03F000001F80
03F000001F80
03F000001F80
03F000001F80
03F000001F80
03FFFFFFFF80
03FFFFFFFF80
03FFFFFFFF80
03FFFFFFFF80
03FFFFFFFF80
03FFFFFFFF80
03F000001F80
03F000001F80
03F000001F80
03F000001F80
03F000001F80
03F000001F80
03F000001F80
03F000001F80
03F000001F80
03F000001F80
03F000001F80
03F000001F80
03F000001F80
03F000001F80
03F000001F80
03F000001F80
03F000001F80
03F000001F80
03F000001F80
03F000001F80
03F000001F80
ENDCHAR
STARTCHAR 0127
ENCODING 295
SWIDTH 570 0
DWIDTH 38 0
BBX 33 52 0 0
BITMAP
0030000000
07F0000000
07F0000000
07F0000000
07F0000000
07F0000000
FFFFFE0000
FFFFFE0000
FFFFFE0000
FFFFFE0000
FFFFFE0000
07F0000000
07F0000000
07F0000000
07F0000000
07F0000000
07F0000000
07F3FF8000
07FFFFE000
07FFFFF800
07FFFFFC00
07FFFFFE00
07FF07FE00
07F000FF00
07F0007F00
07F0003F00
07F0003F80
07F0003F80
07F0001F80
07F0001F80
07F0001F80
07F0001F80
07F0001F80
07F0001F80
07F0001F80
07F0001F80
07F0001F80
07F0001F80
07F0001F80
07F0001F80
07F0001F80
07F0001F80
07F0001F80
07F0001F80
07F0001F80
07F0001F80
07F0001F80
07F0001F80
07F0001F80
07F0001F80
07F0001F80
07F0001F80
ENDCHAR
STARTCHAR 0128
ENCODING 296
SWIDTH 255 0
DWIDTH 17 0
BBX 22 59 -2 0
BITMAP
07C038
1FF07C
3FFFF8
7FFFF8
7FFFF0
F83FE0
700FC0
000000
000000
000000
000000
000000
000000
00FC00
00FC00
00FC00
00FC00
00FC00
00FC00
00FC00
00FC00
00FC00
00FC00
00FC00
00FC00
00FC00
00FC00
00FC00
00FC00
00FC00
00FC00
00FC00
00FC00
00FC00
00FC00
00FC00
00FC00
00FC00
00FC00
00FC00
00FC00
00FC00
00FC00
00FC00
00FC00
00FC00
00FC00
00FC00
00FC00
00FC00
00FC00
00FC00
00FC00
00FC00
00FC00
00FC00
00FC00
00FC00
00FC00
ENDCHAR
STARTCHAR 0129
ENCODING 297
SWIDTH 240 0
DWIDTH 16 0
BBX 21 49 -2 0
BITMAP
060020
1FC078
3FF8F8
7FFFF8
FFFFF0
F8FFE0
F01FC0
200200
000000
000000
000000
000000
000000
000000
01FC00
01FC00
01FC00
01FC00
01FC00
01FC00
01FC00
01FC00
01FC00
01FC00
01FC00
01FC00
01FC00
01FC00
01FC00
01FC00
01FC00
01FC00
01FC00
01FC00
01FC00
01FC00
01FC00
01FC00
01FC00
01FC00
01FC00
01FC00
01FC00
01FC00
01FC00
01FC00
01FC00
01FC00
01FC00
ENDCHAR
STARTCHAR 012A
ENCODING 298
SWIDTH 255 0
DWIDTH 17 0
BBX 18 58 0 0
BITMAP
FFFFC0
FFFFC0
FFFFC0
FFFFC0
FFFFC0
000000
000000
000000
000000
000000
000000
000000
03F000
03F000
03F000
03F000
03F000
03F000
03F000
03F000
03F000
03F000
03F000
03F000
03F000
03F000
03F000
03F000
03F000
03F000
03F000
03F000
03F000
03F000
03F000
03F000
03F000
03F000
03F000
03F000
03F000
03F000
03F000
03F000
03F000
03F000
03F000
03F000
03F000
03F000
03F000
03F000
03F000
03F000
03F000
03F000
03F000
03F000
ENDCHAR
STARTCHAR 012B
ENCODING 299
SWIDTH 240 0
DWIDTH 16 0
BBX 19 47 -1 0
BITMAP
FFFFE0
FFFFE0
FFFFE0
FFFFE0
000000
000000
000000
000000
000000
000000
000000
000000
03F800
03F800
03F800
03F800
03F800
03F800
03F800
03F800
03F800
03F800
03F800
03F800
03F800
03F800
03F800
03F800
03F800
03F800
03F800
03F800
03F800
03F800
03F800
03F800
03F800
03F800
03F800
03F800
03F800
03F800
03F800
03F800
03F800
03F800
03F800
ENDCHAR
STARTCHAR 012C
ENCODING 300
SWIDTH 255 0
DWIDTH 17 0
BBX 18 60 0 0
BITMAP
F003C0
F807C0
F807C0
7C0F80
7FFF80
3FFF00
1FFE00
0FFC00
03F000
000000
000000
000000
000000
000000
03F000
03F000
03F000
03F000
03F000
03F000
03F000
03F000
03F000
03F000
03F000
03F000
03F000
03F000
03F000
03F000
03F000
03F000
03F000
03F000
03F000
03F000
03F000
03F000
03F000
03F000
03F000
03F000
03F000
03F000
03F000
03F000
03F000
03F000
03F000
03F000
03F000
03F000
03F000
03F000
03F000
03F000
03F000
03F000
03F000
03F000
ENDCHAR
STARTCHAR 012D
ENCODING 301
SWIDTH 240 0
DWIDTH 16 0
BBX 17 50 0 0
BITMAP
F00780
F00780
F00780
F80F80
FE3F80
7FFF00
3FFE00
1FFC00
0FF000
000000
000000
000000
000000
000000
000000
07F000
07F000
07F000
07F000
07F000
07F000
07F000
07F000
07F000
07F000
07F000
07F000
07F000
07F000
07F000
07F000
07F000
07F000
07F000
07F000
07F000
07F000
07F000
07F000
07F000
07F000
07F000
07F000
07F000
07F000
07F000
07F000
07F000
07F000
07F000
ENDCHAR
STARTCHAR 012E
ENCODING 302
SWIDTH 255 0
DWIDTH 17 0
BBX 12 58 1 -12
BITMAP
07E0
07E0
07E0
07E0
07E0
07E0
07E0
07E0
07E0
07E0
07E0
07E0
07E0
07E0
07E0
07E0
07E0
07E0
07E0
07E0
07E0
07E0
07E0
07E0
07E0
07E0
07E0
07E0
07E0
07E0
07E0
07E0
07E0
07E0
07E0
07E0
07E0
07E0
07E0
07E0
07E0
07E0
07E0
07E0
07E0
07E0
0FE0
1F80
3F00
3E00
7E00
FC00
FC00
FC00
FFF0
7FF0
7FF0
3FF0
ENDCHAR
STARTCHAR 012F
ENCODING 303
SWIDTH 240 0
DWIDTH 16 0
BBX 11 61 1 -12
BITMAP
07C0
0FE0
0FE0
1FE0
1FE0
0FE0
0FE0
07C0
0000
0000
0000
0000
0000
0000
0FE0
0FE0
0FE0
0FE0
0FE0
0FE0
0FE0
0FE0
0FE0
0FE0
0FE0
0FE0
0FE0
0FE0
0FE0
0FE0
0FE0
0FE0
0FE0
0FE0
0FE0
0FE0
0FE0
0FE0
0FE0
0FE0
0FE0
0FE0
0FE0
0FE0
0FE0
0FE0
0FE0
0FE0
0FE0
0FC0
1F80
3F00
7E00
FC00
FC00
F800
FC00
FFE0
FFE0
7FE0
3FE0
ENDCHAR
STARTCHAR 0130
ENCODING 304
SWIDTH 255 0
DWIDTH 17 0
BBX 8 59 5 0
BITMAP
7E
FF
FF
FF
FF
FF
7E
18
00
00
00
00
00
7E
7E
7E
7E
7E
7E
7E
7E
7E
7E
7E
7E
7E
7E
7E
7E
7E
7E
7E
7E
7E
7E
7E
7E
7E
7E
7E
7E
7E
7E
7E
7E
7E
7E
7E
7E
7E
7E
7E
7E
7E
7E
7E
7E
7E
7E
ENDCHAR
STARTCHAR 0131
ENCODING 305
SWIDTH 240 0
DWIDTH 16 0
BBX 7 35 5 0
BITMAP
FE
FE
FE
FE
FE
FE
FE
FE
FE
FE
FE
FE
FE
FE
FE
FE
FE
FE
FE
FE
FE
FE
FE
FE
FE
FE
FE
FE
FE
FE
FE
FE
FE
FE
FE
ENDCHAR
STARTCHAR 0132
ENCODING 306
SWIDTH 765 0
DWIDTH 51 0
BBX 40 47 6 -1
BITMAP
FC0000003F
FC0000003F
FC0000003F
FC0000003F
FC0000003F
FC0000003F
FC0000003F
FC0000003F
FC0000003F
FC0000003F
FC0000003F
FC0000003F
FC0000003F
FC0000003F
FC0000003F
FC0000003F
FC0000003F
FC0000003F
FC0000003F
FC0000003F
FC0000003F
FC0000003F
FC0000003F
FC0000003F
FC0000003F
FC0000003F
FC0000003F
FC0000003F
FC0000003F
FC0000003F
FC0000003F
FC0000003F
FC0000003F
FC0000007F
FC0000007F
FC0000007F
FC0000007F
FC000000FE
FC010000FE
FC01C001FE
FC03F007FC
FC03FFFFFC
FC07FFFFF8
FC07FFFFF0
FC01FFFFE0
FC007FFF80
00000FFC00
ENDCHAR
STARTCHAR 0133
ENCODING 307
SWIDTH 510 0
DWIDTH 34 0
BBX 26 61 4 -12
BITMAP
3E001F00
7F003F80
7F003F80
FF003FC0
FF003FC0
7F003F80
7F003F80
3E001F00
00000000
00000000
00000000
00000000
00000000
00000000
7F003F80
7F003F80
7F003F80
7F003F80
7F003F80
7F003F80
7F003F80
7F003F80
7F003F80
7F003F80
7F003F80
7F003F80
7F003F80
7F003F80
7F003F80
7F003F80
7F003F80
7F003F80
7F003F80
7F003F80
7F003F80
7F003F80
7F003F80
7F003F80
7F003F80
7F003F80
7F003F80
7F003F80
7F003F80
7F003F80
7F003F80
7F003F80
7F003F80
7F003F80
7F003F80
00003F80
00003F80
00003F00
00003F00
00007F00
00007F00
0000FE00
007FFE00
007FFC00
007FF800
007FF000
007FC000
ENDCHAR
STARTCHAR 0134
ENCODING 308
SWIDTH 495 0
DWIDTH 33 0
BBX 32 63 1 -1
BITMAP
00000100
00000180
000003C0
000007E0
00000FF0
00001FF8
00003FFC
00007EFE
0000FC7E
0001F83F
0001F00F
0000E006
00004000
00000000
00000000
00000000
00000FE0
00000FE0
00000FE0
00000FE0
00000FE0
00000FE0
00000FE0
00000FE0
00000FE0
00000FE0
00000FE0
00000FE0
00000FE0
00000FE0
00000FE0
00000FE0
00000FE0
00000FE0
00000FE0
00000FE0
00000FE0
00000FE0
00000FE0
00000FE0
00000FE0
00000FE0
00000FE0
00000FE0
00000FE0
00000FE0
00000FE0
00000FE0
00000FE0
00000FE0
00000FE0
00000FE0
00000FC0
00001FC0
20001FC0
70003FC0
7C00FF80
FFFFFF00
FFFFFF00
FFFFFE00
7FFFF800
1FFFF000
01FF8000
ENDCHAR
STARTCHAR 0135
ENCODING 309
SWIDTH 240 0
DWIDTH 16 0
BBX 22 63 -5 -12
BITMAP
000400
000E00
001F00
003F80
007FC0
00FFE0
01FBF0
03F1F8
07E0FC
07C07C
078038
030018
000000
000000
000000
000000
003F80
003F80
003F80
003F80
003F80
003F80
003F80
003F80
003F80
003F80
003F80
003F80
003F80
003F80
003F80
003F80
003F80
003F80
003F80
003F80
003F80
003F80
003F80
003F80
003F80
003F80
003F80
003F80
003F80
003F80
003F80
003F80
003F80
003F80
003F80
003F00
003F00
003F00
003F00
007F00
007F00
01FE00
7FFE00
7FFC00
7FF800
7FF000
FFC000
ENDCHAR
STARTCHAR 0136
ENCODING 310
SWIDTH 615 0
DWIDTH 41 0
BBX 35 59 6 -13
BITMAP
FC00003F80
FC00007F00
FC0000FE00
FC0001FE00
FC0003FC00
FC0007F800
FC000FF000
FC001FE000
FC003FC000
FC007F8000
FC00FF0000
FC01FE0000
FC03FC0000
FC07F80000
FC0FF00000
FC1FE00000
FC3FC00000
FC7F800000
FCFF000000
FDFE000000
FFFC000000
FFF8000000
FFFC000000
FFFF000000
FDFF800000
FCFFC00000
FC3FE00000
FC1FF00000
FC0FF80000
FC07FC0000
FC01FE0000
FC00FF0000
FC007F8000
FC003FC000
FC001FE000
FC000FF000
FC0007F800
FC0007FC00
FC0003FC00
FC0001FE00
FC0000FF00
FC00007F80
FC00003F80
FC00003FC0
FC00001FE0
FC00000FE0
0000000000
0000000000
0000000000
0007E00000
0007E00000
0007E00000
0007E00000
000FE00000
007FE00000
007FC00000
007F800000
007F000000
0010000000
ENDCHAR
STARTCHAR 0137
ENCODING 311
SWIDTH 510 0
DWIDTH 34 0
BBX 29 65 5 -13
BITMAP
06000000
FE000000
FE000000
FE000000
FE000000
FE000000
FE000000
FE000000
FE000000
FE000000
FE000000
FE000000
FE000000
FE000000
FE000000
FE000000
FE000000
FE000FE0
FE001FC0
FE003FC0
FE007F80
FE007F00
FE00FE00
FE01FC00
FE03F800
FE07F000
FE0FE000
FE1FC000
FE3F8000
FE7F0000
FEFE0000
FFFC0000
FFF80000
FFFC0000
FFFE0000
FFFF0000
FEFF8000
FE7FC000
FE3FE000
FE0FF000
FE07F800
FE03F800
FE03FC00
FE01FE00
FE00FF00
FE007F80
FE003F80
FE001FC0
FE001FE0
FE000FE0
FE0007F0
FE0007F8
00000000
00000000
00000000
001F0000
001F8000
003F8000
003F0000
003F0000
01FF0000
03FE0000
03FC0000
03F80000
00C00000
ENDCHAR
STARTCHAR 0138
ENCODING 312
SWIDTH 525 0
DWIDTH 35 0
BBX 30 35 5 0
BITMAP
FE0007F0
FE000FE0
FE001FC0
FE003F80
FE007F00
FE00FF00
FE01FC00
FE03FC00
FE07F800
FE0FF000
FE1FE000
FE3FC000
FE7F8000
FEFF0000
FFFE0000
FFFC0000
FFFC0000
FFFE0000
FFFF0000
FEFF8000
FE7FC000
FE3FE000
FE0FF000
FE07F800
FE03FC00
FE01FE00
FE00FF00
FE007F80
FE007F80
FE003FC0
FE001FE0
FE000FF0
FE0007F0
FE0007F8
FE0003FC
ENDCHAR
STARTCHAR 0139
ENCODING 313
SWIDTH 510 0
DWIDTH 34 0
BBX 28 62 6 0
BITMAP
00800000
01C00000
03E00000
03F00000
07F00000
0FE00000
1FC00000
3F800000
7F000000
7E000000
7C000000
38000000
10000000
00000000
00000000
00000000
FC000000
FC000000
FC000000
FC000000
FC000000
FC000000
FC000000
FC000000
FC000000
FC000000
FC000000
FC000000
FC000000
FC000000
FC000000
FC000000
FC000000
FC000000
FC000000
FC000000
FC000000
FC000000
FC000000
FC000000
FC000000
FC000000
FC000000
FC000000
FC000000
FC000000
FC000000
FC000000
FC000000
FC000000
FC000000
FC000000
FC000000
FC000000
FC000000
FC000000
FFFFFFF0
FFFFFFF0
FFFFFFF0
FFFFFFF0
FFFFFFF0
FFFFFFF0
ENDCHAR
STARTCHAR 013A
ENCODING 314
SWIDTH 270 0
DWIDTH 18 0
BBX 13 64 4 -1
BITMAP
0060
01E0
07F0
3FF0
FFF0
FF80
7E00
7000
0000
0000
0000
0200
7E00
7E00
7E00
7E00
7E00
7E00
7E00
7E00
7E00
7E00
7E00
7E00
7E00
7E00
7E00
7E00
7E00
7E00
7E00
7E00
7E00
7E00
7E00
7E00
7E00
7E00
7E00
7E00
7E00
7E00
7E00
7E00
7E00
7E00
7E00
7E00
7E00
7E00
7E00
7E00
7E00
7E00
7E00
7F00
7F00
3F80
3FF8
3FF0
1FF0
0FF0
07F0
0070
ENDCHAR
STARTCHAR 013B
ENCODING 315
SWIDTH 510 0
DWIDTH 34 0
BBX 28 59 6 -13
BITMAP
FC000000
FC000000
FC000000
FC000000
FC000000
FC000000
FC000000
FC000000
FC000000
FC000000
FC000000
FC000000
FC000000
FC000000
FC000000
FC000000
FC000000
FC000000
FC000000
FC000000
FC000000
FC000000
FC000000
FC000000
FC000000
FC000000
FC000000
FC000000
FC000000
FC000000
FC000000
FC000000
FC000000
FC000000
FC000000
FC000000
FC000000
FC000000
FC000000
FC000000
FFFFFFF0
FFFFFFF0
FFFFFFF0
FFFFFFF0
FFFFFFF0
FFFFFFF0
00000000
00000000
00000000
001F8000
001F8000
001F8000
001F8000
003F8000
01FF0000
01FF0000
01FE0000
01F80000
00800000
ENDCHAR
STARTCHAR 013C
ENCODING 316
SWIDTH 270 0
DWIDTH 18 0
BBX 14 65 3 -13
BITMAP
0100
3F00
3F00
3F00
3F00
3F00
3F00
3F00
3F00
3F00
3F00
3F00
3F00
3F00
3F00
3F00
3F00
3F00
3F00
3F00
3F00
3F00
3F00
3F00
3F00
3F00
3F00
3F00
3F00
3F00
3F00
3F00
3F00
3F00
3F00
3F00
3F00
3F00
3F00
3F00
3F00
3F00
3F00
3F00
3F80
3F80
1FC0
1FFC
1FF8
0FF8
07F8
03F8
0038
0000
0000
0FC0
0FC0
0FC0
0FC0
1FC0
FF80
FF80
FF00
FE00
4000
ENDCHAR
STARTCHAR 013D
ENCODING 317
SWIDTH 510 0
DWIDTH 34 0
BBX 28 46 6 0
BITMAP
FC0FC000
FC0FC000
FC0FC000
FC0FC000
FC0FC000
FC0F8000
FC0F8000
FC0F8000
FC0F8000
FC0F8000
FC0F8000
FC0F8000
FC0F8000
FC0F0000
FC0F0000
FC000000
FC000000
FC000000
FC000000
FC000000
FC000000
FC000000
FC000000
FC000000
FC000000
FC000000
FC000000
FC000000
FC000000
FC000000
FC000000
FC000000
FC000000
FC000000
FC000000
FC000000
FC000000
FC000000
FC000000
FC000000
FFFFFFF0
FFFFFFF0
FFFFFFF0
FFFFFFF0
FFFFFFF0
FFFFFFF0
ENDCHAR
STARTCHAR 013E
ENCODING 318
SWIDTH 270 0
DWIDTH 18 0
BBX 17 53 5 -1
BITMAP
041F80
FC1F80
FC1F80
FC1F80
FC1F80
FC1F00
FC1F00
FC1F00
FC1F00
FC1F00
FC1F00
FC1F00
FC1F00
FC1E00
FC1E00
FC0000
FC0000
FC0000
FC0000
FC0000
FC0000
FC0000
FC0000
FC0000
FC0000
FC0000
FC0000
FC0000
FC0000
FC0000
FC0000
FC0000
FC0000
FC0000
FC0000
FC0000
FC0000
FC0000
FC0000
FC0000
FC0000
FC0000
FC0000
FC0000
FE0000
FE0000
7F0000
7FF000
7FE000
3FE000
1FE000
0FE000
00E000
ENDCHAR
STARTCHAR 013F
ENCODING 319
SWIDTH 510 0
DWIDTH 34 0
BBX 28 46 6 0
BITMAP
FC000000
FC000000
FC000000
FC000000
FC000000
FC000000
FC000000
FC000000
FC000000
FC000000
FC000000
FC000000
FC000000
FC000000
FC000000
FC000000
FC000000
FC000000
FC003E00
FC007F00
FC00FF00
FC00FF00
FC00FF00
FC007F00
FC007E00
FC001C00
FC000000
FC000000
FC000000
FC000000
FC000000
FC000000
FC000000
FC000000
FC000000
FC000000
FC000000
FC000000
FC000000
FC000000
FFFFFFF0
FFFFFFF0
FFFFFFF0
FFFFFFF0
FFFFFFF0
FFFFFFF0
ENDCHAR
STARTCHAR 0140
ENCODING 320
SWIDTH 360 0
DWIDTH 24 0
BBX 20 53 5 -1
BITMAP
040000
FC0000
FC0000
FC0000
FC0000
FC0000
FC0000
FC0000
FC0000
FC0000
FC0000
FC0000
FC0000
FC0000
FC0000
FC0000
FC0000
FC0000
FC0000
FC0000
FC0000
FC0000
FC0000
FC0000
FC07C0
FC0FE0
FC0FF0
FC0FF0
FC0FF0
FC0FE0
FC07E0
FC0380
FC0000
FC0000
FC0000
FC0000
FC0000
FC0000
FC0000
FC0000
FC0000
FC0000
FC0000
FC0000
FE0000
FE0000
7F0000
7FF000
7FE000
3FE000
1FE000
0FE000
00E000
ENDCHAR
STARTCHAR 0141
ENCODING 321
SWIDTH 525 0
DWIDTH 35 0
BBX 35 46 0 0
BITMAP
01F8000000
01F8000000
01F8000000
01F8000000
01F8000000
01F8000000
01F8000000
01F8000000
01F8000000
01F8000000
01F8000000
01F8000000
01F8000000
01F8000000
01F8080000
01F83C0000
01F8FC0000
01FBFE0000
01FFFE0000
01FFF80000
01FFE00000
01FF800000
07FF000000
1FFC000000
7FF8000000
FFF8000000
7FF8000000
7DF8000000
31F8000000
01F8000000
01F8000000
01F8000000
01F8000000
01F8000000
01F8000000
01F8000000
01F8000000
01F8000000
01F8000000
01F8000000
01FFFFFFE0
01FFFFFFE0
01FFFFFFE0
01FFFFFFE0
01FFFFFFE0
01FFFFFFE0
ENDCHAR
STARTCHAR 0142
ENCODING 322
SWIDTH 285 0
DWIDTH 19 0
BBX 19 53 0 -1
BITMAP
001000
03F000
03F000
03F000
03F000
03F000
03F000
03F000
03F000
03F000
03F000
03F000
03F000
03F000
03F000
03F000
03F000
03F000
03F000
03F1C0
03F7C0
03FFE0
03FFE0
03FF80
07FE00
1FFC00
7FF000
FFF000
7FF000
7FF000
33F000
03F000
03F000
03F000
03F000
03F000
03F000
03F000
03F000
03F000
03F000
03F000
03F000
03F000
03F800
03F800
01FC00
01FFC0
01FF80
00FF80
007F80
003F80
000380
ENDCHAR
STARTCHAR 0143
ENCODING 323
SWIDTH 720 0
DWIDTH 48 0
BBX 37 62 6 0
BITMAP
0000020000
0000070000
00000F8000
00001FC000
00003FC000
00003F8000
00007F0000
0000FE0000
0001FC0000
0003F00000
0003E00000
0001C00000
0000800000
0000000000
0000000000
0000000000
FC000003F8
FC000003F8
FE000003F8
FF000003F8
FF800003F8
FFC00003F8
FFE00003F8
FFF00003F8
FFF00003F8
FFF80003F8
FDFC0003F8
FDFE0003F8
FCFE0003F8
FC7F0003F8
FC3F8003F8
FC1FC003F8
FC1FC003F8
FC0FE003F8
FC07F003F8
FC03F803F8
FC03F803F8
FC01FC03F8
FC00FE03F8
FC007F03F8
FC007F03F8
FC003F83F8
FC001FC3F8
FC001FC3F8
FC000FE3F8
FC0007F3F8
FC0007F3F8
FC0003FBF8
FC0001FFF8
FC0000FFF8
FC0000FFF8
FC00007FF8
FC00007FF8
FC00003FF8
FC00001FF8
FC00001FF8
FC00000FF8
FC000007F8
FC000007F8
FC000003F8
FC000003F8
FC000001F8
ENDCHAR
STARTCHAR 0144
ENCODING 324
SWIDTH 570 0
DWIDTH 38 0
BBX 28 52 5 0
BITMAP
00002000
00007000
00007800
0000FC00
0001FC00
0003F800
0007F000
000FE000
000FC000
001F8000
003F0000
001E0000
000C0000
00000000
00000000
00000000
00000000
0FFFF000
FFFFFC00
FFFFFF00
FFFFFF80
FFFFFFC0
FF007FC0
FE001FE0
FE000FE0
FE0007F0
FE0007F0
FE0007F0
FE0003F0
FE0003F0
FE0003F0
FE0003F0
FE0003F0
FE0003F0
FE0003F0
FE0003F0
FE0003F0
FE0003F0
FE0003F0
FE0003F0
FE0003F0
FE0003F0
FE0003F0
FE0003F0
FE0003F0
FE0003F0
FE0003F0
FE0003F0
FE0003F0
FE0003F0
FE0003F0
FE0003F0
ENDCHAR
STARTCHAR 0145
ENCODING 325
SWIDTH 720 0
DWIDTH 48 0
BBX 37 59 6 -13
BITMAP
FC000003F8
FC000003F8
FE000003F8
FF000003F8
FF800003F8
FFC00003F8
FFE00003F8
FFF00003F8
FFF00003F8
FFF80003F8
FDFC0003F8
FDFE0003F8
FCFE0003F8
FC7F0003F8
FC3F8003F8
FC1FC003F8
FC1FC003F8
FC0FE003F8
FC07F003F8
FC03F803F8
FC03F803F8
FC01FC03F8
FC00FE03F8
FC007F03F8
FC007F03F8
FC003F83F8
FC001FC3F8
FC001FC3F8
FC000FE3F8
FC0007F3F8
FC0007F3F8
FC0003FBF8
FC0001FFF8
FC0000FFF8
FC0000FFF8
FC00007FF8
FC00007FF8
FC00003FF8
FC00001FF8
FC00001FF8
FC00000FF8
FC000007F8
FC000007F8
FC000003F8
FC000003F8
FC000001F8
0000000000
0000000000
0000000000
0000F80000
0000FC0000
0001FC0000
0001F80000
0001F80000
000FF80000
001FF00000
001FE00000
001FC00000
0006000000
ENDCHAR
STARTCHAR 0146
ENCODING 326
SWIDTH 570 0
DWIDTH 38 0
BBX 28 48 5 -13
BITMAP
0FFFF000
FFFFFC00
FFFFFF00
FFFFFF80
FFFFFFC0
FF007FC0
FE001FE0
FE000FE0
FE0007F0
FE0007F0
FE0007F0
FE0003F0
FE0003F0
FE0003F0
FE0003F0
FE0003F0
FE0003F0
FE0003F0
FE0003F0
FE0003F0
FE0003F0
FE0003F0
FE0003F0
FE0003F0
FE0003F0
FE0003F0
FE0003F0
FE0003F0
FE0003F0
FE0003F0
FE0003F0
FE0003F0
FE0003F0
FE0003F0
FE0003F0
00000000
00000000
00000000
000FC000
000FC000
000FC000
001F8000
001F8000
00FF8000
01FF0000
01FF0000
01FC0000
00C00000
ENDCHAR
STARTCHAR 0147
ENCODING 327
SWIDTH 720 0
DWIDTH 48 0
BBX 37 62 6 0
BITMAP
0010008000
001801C000
003E03E000
003F07E000
001F8FC000
000FDF8000
0007FF0000
0007FE0000
0003FC0000
0001F80000
0000F00000
0000600000
0000000000
0000000000
0000000000
0000000000
FC000003F8
FC000003F8
FE000003F8
FF000003F8
FF800003F8
FFC00003F8
FFE00003F8
FFF00003F8
FFF00003F8
FFF80003F8
FDFC0003F8
FDFE0003F8
FCFE0003F8
FC7F0003F8
FC3F8003F8
FC1FC003F8
FC1FC003F8
FC0FE003F8
FC07F003F8
FC03F803F8
FC03F803F8
FC01FC03F8
FC00FE03F8
FC007F03F8
FC007F03F8
FC003F83F8
FC001FC3F8
FC001FC3F8
FC000FE3F8
FC0007F3F8
FC0007F3F8
FC0003FBF8
FC0001FFF8
FC0000FFF8
FC0000FFF8
FC00007FF8
FC00007FF8
FC00003FF8
FC00001FF8
FC00001FF8
FC00000FF8
FC000007F8
FC000007F8
FC000003F8
FC000003F8
FC000001F8
ENDCHAR
STARTCHAR 0148
ENCODING 328
SWIDTH 570 0
DWIDTH 38 0
BBX 28 51 5 1
BITMAP
01800C00
03C01E00
07E07E00
03F0FC00
01F9F800
00FFF000
007FF000
003FE000
001FC000
000F8000
00070000
00020000
00000000
00000000
00000000
00000000
0FFFF000
FFFFFC00
FFFFFF00
FFFFFF80
FFFFFFC0
FF007FC0
FE001FE0
FE000FE0
FE0007F0
FE0007F0
FE0007F0
FE0003F0
FE0003F0
FE0003F0
FE0003F0
FE0003F0
FE0003F0
FE0003F0
FE0003F0
FE0003F0
FE0003F0
FE0003F0
FE0003F0
FE0003F0
FE0003F0
FE0003F0
FE0003F0
FE0003F0
FE0003F0
FE0003F0
FE0003F0
FE0003F0
FE0003F0
FE0003F0
FE0003F0
ENDCHAR
STARTCHAR 0149
ENCODING 329
SWIDTH 570 0
DWIDTH 38 0
BBX 32 52 1 0
BITMAP
3F000000
3F000000
3F000000
3F000000
3F000000
3F000000
3E000000
7E000000
7E000000
7C000000
FC000000
F8000000
F8000000
30000000
00000000
00000000
00000000
00FFFF00
0FFFFFC0
0FFFFFF0
0FFFFFF8
0FFFFFFC
0FF007FC
0FE001FE
0FE000FE
0FE0007F
0FE0007F
0FE0007F
0FE0003F
0FE0003F
0FE0003F
0FE0003F
0FE0003F
0FE0003F
0FE0003F
0FE0003F
0FE0003F
0FE0003F
0FE0003F
0FE0003F
0FE0003F
0FE0003F
0FE0003F
0FE0003F
0FE0003F
0FE0003F
0FE0003F
0FE0003F
0FE0003F
0FE0003F
0FE0003F
0FE0003F
ENDCHAR
STARTCHAR 014A
ENCODING 330
SWIDTH 720 0
DWIDTH 48 0
BBX 37 58 6 -12
BITMAP
FC000003F8
FC000003F8
FE000003F8
FF000003F8
FF800003F8
FFC00003F8
FFE00003F8
FFF00003F8
FFF00003F8
FFF80003F8
FDFC0003F8
FDFE0003F8
FCFE0003F8
FC7F0003F8
FC3F8003F8
FC1FC003F8
FC1FC003F8
FC0FE003F8
FC07F003F8
FC03F803F8
FC03F803F8
FC01FC03F8
FC00FE03F8
FC00FF03F8
FC007F03F8
FC003F83F8
FC001FC3F8
FC001FC3F8
FC000FE3F8
FC0007F3F8
FC0007F3F8
FC0003FBF8
FC0001FFF8
FC0001FFF8
FC0000FFF8
FC00007FF8
FC00007FF8
FC00003FF8
FC00001FF8
FC00001FF8
FC00000FF8
FC000007F8
FC000007F8
FC000003F8
FC000003F8
FC000003F8
00000003F8
00000003F8
00000003F8
00000003F8
00000003F8
00000003F0
00000007F0
000001FFF0
000001FFE0
000001FFE0
000001FFC0
000001FF00
ENDCHAR
STARTCHAR 014B
ENCODING 331
SWIDTH 570 0
DWIDTH 38 0
BBX 28 47 5 -12
BITMAP
0FFFF000
FFFFFC00
FFFFFF00
FFFFFF80
FFFFFFC0
FF007FC0
FE001FE0
FE000FE0
FE0007F0
FE0007F0
FE0007F0
FE0003F0
FE0003F0
FE0003F0
FE0003F0
FE0003F0
FE0003F0
FE0003F0
FE0003F0
FE0003F0
FE0003F0
FE0003F0
FE0003F0
FE0003F0
FE0003F0
FE0003F0
FE0003F0
FE0003F0
FE0003F0
FE0003F0
FE0003F0
FE0003F0
FE0003F0
FE0003F0
FE0003F0
000003F0
000003F0
000003F0
000003F0
000003F0
000007F0
000007F0
0001FFE0
0001FFE0
0001FFC0
0003FF80
0003FF00
ENDCHAR
STARTCHAR 014C
ENCODING 332
SWIDTH 765 0
DWIDTH 51 0
BBX 44 59 4 -1
BITMAP
000FFFFE0000
000FFFFE0000
000FFFFE0000
000FFFFE0000
000FFFFE0000
000000000000
000000000000
000000000000
000000000000
000000000000
000000000000
0000FFF00000
0007FFFE0000
001FFFFF8000
007FFFFFE000
00FFFFFFF000
01FFF9FFF800
03FF000FFC00
07FC0003FE00
0FF80001FF00
0FF00000FF00
1FE000007F80
3FC000003F80
3F8000003FC0
3F8000001FC0
7F0000001FE0
7F0000000FE0
7F0000000FE0
FE0000000FE0
FE00000007F0
FE00000007F0
FE00000007F0
FE00000007F0
FE00000007F0
FE00000007F0
FE00000007F0
FE00000007F0
FE00000007F0
FE00000007F0
FE00000007F0
FE00000007F0
FE0000000FE0
7F0000000FE0
7F0000000FE0
7F0000001FE0
3F8000001FC0
3F8000003FC0
1FC000003F80
1FE000007F80
0FF00000FF00
0FF80001FE00
07FE0007FE00
03FF801FFC00
01FFFFFFF800
00FFFFFFF000
003FFFFFC000
001FFFFF8000
0003FFFC0000
00007FE00000
ENDCHAR
STARTCHAR 014D
ENCODING 333
SWIDTH 585 0
DWIDTH 39 0
BBX 33 48 3 -1
BITMAP
01FFFFC000
01FFFFC000
01FFFFC000
01FFFFC000
0000000000
0000000000
0000000000
0000000000
0000000000
0000000000
0000000000
0000800000
001FFE0000
007FFF8000
01FFFFC000
03FFFFE000
07FFFFF000
0FF80FF800
1FE003FC00
1FC001FE00
3F8000FE00
3F80007E00
7F00007F00
7F00007F00
7F00003F00
7E00003F80
7E00003F80
FE00003F80
FE00003F80
FE00003F80
FE00003F80
FE00003F80
7E00003F80
7E00003F80
7E00003F00
7F00003F00
7F00007F00
3F80007F00
3F8000FE00
1FC001FE00
1FE003FC00
0FF807F800
07FFFFF800
03FFFFF000
01FFFFE000
00FFFF8000
003FFE0000
0007F00000
ENDCHAR
STARTCHAR 014E
ENCODING 334
SWIDTH 765 0
DWIDTH 51 0
BBX 44 61 4 -1
BITMAP
0007801E0000
0007803E0000
0007C03E0000
0003E07C0000
0003FFFC0000
0001FFF80000
0000FFF00000
00007FE00000
00001F800000
000000000000
000000000000
000000000000
000000000000
0000FFF00000
0007FFFE0000
001FFFFF8000
007FFFFFE000
00FFFFFFF000
01FFF9FFF800
03FF000FFC00
07FC0003FE00
0FF80001FF00
0FF00000FF00
1FE000007F80
3FC000003F80
3F8000003FC0
3F8000001FC0
7F0000001FE0
7F0000000FE0
7F0000000FE0
FE0000000FE0
FE00000007F0
FE00000007F0
FE00000007F0
FE00000007F0
FE00000007F0
FE00000007F0
FE00000007F0
FE00000007F0
FE00000007F0
FE00000007F0
FE00000007F0
FE00000007F0
FE0000000FE0
7F0000000FE0
7F0000000FE0
7F0000001FE0
3F8000001FC0
3F8000003FC0
1FC000003F80
1FE000007F80
0FF00000FF00
0FF80001FE00
07FE0007FE00
03FF801FFC00
01FFFFFFF800
00FFFFFFF000
003FFFFFC000
001FFFFF8000
0003FFFC0000
00007FE00000
ENDCHAR
STARTCHAR 014F
ENCODING 335
SWIDTH 585 0
DWIDTH 39 0
BBX 33 51 3 -1
BITMAP
00F007C000
00F007C000
00F0078000
00F80F8000
007E1F8000
007FFF0000
003FFE0000
001FFC0000
0007F80000
0000000000
0000000000
0000000000
0000000000
0000000000
0000800000
001FFE0000
007FFF8000
01FFFFC000
03FFFFE000
07FFFFF000
0FF80FF800
1FE003FC00
1FC001FE00
3F8000FE00
3F80007E00
7F00007F00
7F00007F00
7F00003F00
7E00003F80
7E00003F80
FE00003F80
FE00003F80
FE00003F80
FE00003F80
FE00003F80
7E00003F80
7E00003F80
7E00003F00
7F00003F00
7F00007F00
3F80007F00
3F8000FE00
1FC001FE00
1FE003FC00
0FF807F800
07FFFFF800
03FFFFF000
01FFFFE000
00FFFF8000
003FFE0000
0007F00000
ENDCHAR
STARTCHAR 0150
ENCODING 336
SWIDTH 765 0
DWIDTH 51 0
BBX 44 63 4 -1
BITMAP
000004008000
00000E01C000
00001F03E000
00001F83F000
00003F07E000
00007E0FC000
0000FC1F8000
0000FC1F8000
0001F83F0000
0003F07E0000
0003E07C0000
0001C0380000
000080100000
000000000000
000000000000
0000FFF00000
0007FFFE0000
001FFFFF8000
007FFFFFE000
00FFFFFFF000
01FFF9FFF800
03FF000FFC00
07FC0003FE00
0FF80001FF00
0FF00000FF00
1FE000007F80
3FC000003F80
3F8000003FC0
3F8000001FC0
7F0000001FE0
7F0000000FE0
7F0000000FE0
FE0000000FE0
FE00000007F0
FE00000007F0
FE00000007F0
FE00000007F0
FE00000007F0
FE00000007F0
FE00000007F0
FE00000007F0
FE00000007F0
FE00000007F0
FE00000007F0
FE00000007F0
FE0000000FE0
7F0000000FE0
7F0000000FE0
7F0000001FE0
3F8000001FC0
3F8000003FC0
1FC000003F80
1FE000007F80
0FF00000FF00
0FF80001FE00
07FE0007FE00
03FF801FFC00
01FFFFFFF800
00FFFFFFF000
003FFFFFC000
001FFFFF8000
0003FFFC0000
00007FE00000
ENDCHAR
STARTCHAR 0151
ENCODING 337
SWIDTH 585 0
DWIDTH 39 0
BBX 33 52 3 0
BITMAP
0001803000
0003C07800
0003E07C00
0007E0FC00
000FC1F800
001F83F000
001F83F000
003F07E000
007E0FC000
007C0F8000
00780F0000
0030060000
0000000000
0000000000
0000000000
0000800000
001FFE0000
007FFF8000
01FFFFC000
03FFFFE000
07FFFFF000
0FF80FF800
1FE003FC00
1FC001FE00
3F8000FE00
3F80007E00
7F00007F00
7F00007F00
7F00003F00
7E00003F80
7E00003F80
FE00003F80
FE00003F80
FE00003F80
FE00003F80
FE00003F80
7E00003F80
7E00003F80
7E00003F00
7F00003F00
7F00007F00
3F80007F00
3F8000FE00
1FC001FE00
1FE003FC00
0FF807F800
07FFFFF800
03FFFFF000
01FFFFE000
00FFFF8000
003FFE0000
0007F00000
ENDCHAR
STARTCHAR 0152
ENCODING 338
SWIDTH 990 0
DWIDTH 66 0
BBX 60 47 4 0
BITMAP
000001F800000000
0000FFFFFFFFFFC0
0007FFFFFFFFFFC0
001FFFFFFFFFFFC0
007FFFFFFFFFFFC0
00FFFFFFFFFFFFC0
01FFF001F8000000
03FF8001F8000000
07FE0001F8000000
0FF80001F8000000
1FF00001F8000000
1FE00001F8000000
3FC00001F8000000
3F800001F8000000
7F800001F8000000
7F000001F8000000
7F000001F8000000
FF000001F8000000
FE000001F8000000
FE000001F8000000
FE000001FFFFFF00
FE000001FFFFFF00
FE000001FFFFFF00
FE000001FFFFFF00
FE000001FFFFFF00
FE000001F8000000
FE000001F8000000
FE000001F8000000
FE000001F8000000
FE000001F8000000
7F000001F8000000
7F000001F8000000
7F000001F8000000
7F800001F8000000
3FC00001F8000000
3FC00001F8000000
1FE00001F8000000
1FF00001F8000000
0FF80001F8000000
07FE0001F8000000
03FF8001F8000000
01FFF801F8000000
00FFFFFFFFFFFFF0
003FFFFFFFFFFFF0
001FFFFFFFFFFFF0
0007FFFFFFFFFFF0
00007FFFFFFFFFF0
ENDCHAR
STARTCHAR 0153
ENCODING 339
SWIDTH 945 0
DWIDTH 63 0
BBX 57 37 3 -1
BITMAP
0000C00000400000
001FFC0007FF0000
007FFF001FFFC000
01FFFFC07FFFE000
03FFFFE0FFFFF000
07FFFFF1FFFFF800
0FF80FFBFC03FC00
1FE003FBF801FC00
1FC001FFF000FE00
3F8000FFE0007E00
3F80007FC0007F00
7F00007FC0003F00
7F00007F80003F00
7F00003F80003F00
7E00003F80003F00
7E00003FFFFFFF00
FE00003FFFFFFF00
FE00003FFFFFFF80
FE00003FFFFFFF80
FE00003FFFFFFF00
FE00003F80000000
7E00003F80000000
7E00003F80000000
7E00003F80000000
7F00003FC0000000
7F00007FC0000000
3F80007FC0000000
3F8000FFE0000000
1FC001FFF0000000
1FE003FFF8000000
0FF807FBFE001800
07FFFFF1FFFFFC00
03FFFFE0FFFFFC00
01FFFFC07FFFFC00
00FFFF803FFFFC00
003FFE000FFFF800
0007F000007F0000
ENDCHAR
STARTCHAR 0154
ENCODING 340
SWIDTH 615 0
DWIDTH 41 0
BBX 34 62 6 0
BITMAP
0000400000
0000E00000
0001F00000
0001F80000
0003F80000
0007F00000
000FE00000
001FC00000
003F800000
003F000000
003E000000
001C000000
0008000000
0000000000
0000000000
01FF000000
FFFFFC0000
FFFFFF0000
FFFFFFC000
FFFFFFE000
FFFFFFF800
FC003FF800
FC0007FC00
FC0003FE00
FC0001FE00
FC0000FE00
FC00007F00
FC00007F00
FC00007F00
FC00007F00
FC00007F00
FC00007F00
FC00007F00
FC00007F00
FC0000FE00
FC0001FE00
FC0003FC00
FC000FFC00
FC0FFFF800
FFFFFFF000
FFFFFFE000
FFFFFF8000
FFFFFE0000
FFFFFE0000
FC00FF0000
FC007F8000
FC003F8000
FC003FC000
FC001FE000
FC000FE000
FC0007F000
FC0007F800
FC0003F800
FC0001FC00
FC0001FE00
FC0000FE00
FC00007F00
FC00007F00
FC00003F80
FC00003FC0
FC00001FC0
FC00001FC0
ENDCHAR
STARTCHAR 0155
ENCODING 341
SWIDTH 375 0
DWIDTH 25 0
BBX 20 52 5 0
BITMAP
000200
000700
000780
000FC0
001FC0
003F80
007F00
00FE00
00FC00
01F800
03F000
01E000
00C000
000000
000000
000000
000000
07FFF0
7FFFF0
FFFFF0
FFFFF0
FFFFE0
FF0060
FE0000
FE0000
FE0000
FE0000
FE0000
FE0000
FE0000
FE0000
FE0000
FE0000
FE0000
FE0000
FE0000
FE0000
FE0000
FE0000
FE0000
FE0000
FE0000
FE0000
FE0000
FE0000
FE0000
FE0000
FE0000
FE0000
FE0000
FE0000
FE0000
ENDCHAR
STARTCHAR 0156
ENCODING 342
SWIDTH 615 0
DWIDTH 41 0
BBX 34 60 6 -13
BITMAP
01FF000000
FFFFFC0000
FFFFFF0000
FFFFFFC000
FFFFFFE000
FFFFFFF800
FC003FF800
FC0007FC00
FC0003FE00
FC0001FE00
FC0000FE00
FC00007F00
FC00007F00
FC00007F00
FC00007F00
FC00007F00
FC00007F00
FC00007F00
FC00007F00
FC0000FE00
FC0001FE00
FC0003FC00
FC000FFC00
FC0FFFF800
FFFFFFF000
FFFFFFE000
FFFFFF8000
FFFFFE0000
FFFFFE0000
FC00FF0000
FC007F8000
FC003F8000
FC003FC000
FC001FE000
FC000FE000
FC0007F000
FC0007F800
FC0003F800
FC0001FC00
FC0001FE00
FC0000FE00
FC00007F00
FC00007F00
FC00003F80
FC00003FC0
FC00001FC0
FC00001FC0
0000000000
0000000000
0000000000
0007E00000
0007E00000
0007E00000
0007E00000
000FE00000
007FC00000
007FC00000
007F800000
007F000000
0020000000
ENDCHAR
STARTCHAR 0157
ENCODING 343
SWIDTH 375 0
DWIDTH 25 0
BBX 24 48 1 -13
BITMAP
007FFF
07FFFF
0FFFFF
0FFFFF
0FFFFE
0FF006
0FE000
0FE000
0FE000
0FE000
0FE000
0FE000
0FE000
0FE000
0FE000
0FE000
0FE000
0FE000
0FE000
0FE000
0FE000
0FE000
0FE000
0FE000
0FE000
0FE000
0FE000
0FE000
0FE000
0FE000
0FE000
0FE000
0FE000
0FE000
0FE000
000000
000000
000000
07C000
07E000
0FE000
0FC000
0FC000
7FC000
FF8000
FF0000
FE0000
300000
ENDCHAR
STARTCHAR 0158
ENCODING 344
SWIDTH 615 0
DWIDTH 41 0
BBX 34 62 6 0
BITMAP
0100000000
0380380000
07C07C0000
07E0FC0000
03F1F80000
01FBF00000
00FFE00000
007FC00000
003F800000
001F000000
000F000000
0006000000
0000000000
0000000000
0000000000
01FF000000
FFFFFC0000
FFFFFF0000
FFFFFFC000
FFFFFFE000
FFFFFFF800
FC003FF800
FC0007FC00
FC0003FE00
FC0001FE00
FC0000FE00
FC00007F00
FC00007F00
FC00007F00
FC00007F00
FC00007F00
FC00007F00
FC00007F00
FC00007F00
FC0000FE00
FC0001FE00
FC0003FC00
FC000FFC00
FC0FFFF800
FFFFFFF000
FFFFFFE000
FFFFFF8000
FFFFFE0000
FFFFFE0000
FC00FF0000
FC007F8000
FC003F8000
FC003FC000
FC001FE000
FC000FE000
FC0007F000
FC0007F800
FC0003F800
FC0001FC00
FC0001FE00
FC0000FE00
FC00007F00
FC00007F00
FC00003F80
FC00003FC0
FC00001FC0
FC00001FC0
ENDCHAR
STARTCHAR 0159
ENCODING 345
SWIDTH 375 0
DWIDTH 25 0
BBX 20 51 5 1
BITMAP
1800C0
3C03E0
7E07E0
3F0FC0
1F9F80
0FFF00
07FE00
03FC00
01FC00
00F800
007000
002000
000000
000000
000000
000000
07FFF0
7FFFF0
FFFFF0
FFFFF0
FFFFE0
FF0060
FE0000
FE0000
FE0000
FE0000
FE0000
FE0000
FE0000
FE0000
FE0000
FE0000
FE0000
FE0000
FE0000
FE0000
FE0000
FE0000
FE0000
FE0000
FE0000
FE0000
FE0000
FE0000
FE0000
FE0000
FE0000
FE0000
FE0000
FE0000
FE0000
ENDCHAR
STARTCHAR 015A
ENCODING 346
SWIDTH 525 0
DWIDTH 35 0
BBX 31 63 2 -1
BITMAP
00000800
00001C00
00003E00
00007F00
00007F00
0000FE00
0001FC00
0003F800
0007F000
000FE000
000FC000
00078000
00010000
00000000
00000000
001FFF00
00FFFFE0
03FFFFF8
07FFFFF8
0FFFFFF8
1FFE1FF0
1FE000F0
3FC00010
3F800000
3F000000
7F000000
7F000000
7F000000
7F000000
7F000000
3F800000
3FC00000
3FE00000
1FF80000
1FFE0000
0FFF8000
07FFF000
01FFFC00
00FFFF00
003FFFC0
0007FFE0
0000FFF0
00003FF8
00000FFC
000003FC
000001FE
000001FE
000000FE
000000FE
0000007E
0000007E
0000007E
000000FE
000000FE
000001FE
380003FC
7E000FFC
7FFFFFF8
7FFFFFF0
FFFFFFE0
3FFFFFC0
0FFFFF00
007FF000
ENDCHAR
STARTCHAR 015B
ENCODING 347
SWIDTH 435 0
DWIDTH 29 0
BBX 24 52 3 0
BITMAP
000180
0003C0
0003E0
0007F0
000FE0
001FC0
003F80
007F00
007E00
00FC00
007800
003000
000000
000000
000000
000800
01FFF8
07FFFC
1FFFFC
3FFFFC
7FFFFC
7F8018
7E0000
FE0000
FC0000
FC0000
FE0000
FE0000
7F0000
7FC000
3FF000
3FFE00
0FFF80
07FFE0
01FFF8
007FFC
000FFE
0003FE
0000FF
00007F
00003F
00003F
00003F
00003F
00007F
7000FF
FFDFFE
FFFFFC
FFFFFC
FFFFF0
7FFFC0
03FC00
ENDCHAR
STARTCHAR 015C
ENCODING 348
SWIDTH 525 0
DWIDTH 35 0
BBX 31 63 2 -1
BITMAP
00008000
00018000
0003C000
0007E000
000FF000
001FF800
001FFC00
003F7E00
007E3F00
00FC1F80
00F00F80
00600700
00000000
00000000
00000000
001FFF00
00FFFFE0
03FFFFF8
07FFFFF8
0FFFFFF8
1FFE1FF0
1FE000F0
3FC00010
3F800000
3F000000
7F000000
7F000000
7F000000
7F000000
7F000000
3F800000
3FC00000
3FE00000
1FF80000
1FFE0000
0FFF8000
07FFF000
01FFFC00
00FFFF00
003FFFC0
0007FFE0
0000FFF0
00003FF8
00000FFC
000003FC
000001FE
000001FE
000000FE
000000FE
0000007E
0000007E
0000007E
000000FE
000000FE
000001FE
380003FC
7E000FFC
7FFFFFF8
7FFFFFF0
FFFFFFE0
3FFFFFC0
0FFFFF00
007FF000
ENDCHAR
STARTCHAR 015D
ENCODING 349
SWIDTH 435 0
DWIDTH 29 0
BBX 24 52 3 -1
BITMAP
001800
003C00
007E00
007F00
00FF80
01FFC0
03FFE0
07E7F0
0FC3F0
1F80F8
0F0070
040020
000000
000000
000000
000800
01FFF8
07FFFC
1FFFFC
3FFFFC
7FFFFC
7F8018
7E0000
FE0000
FC0000
FC0000
FE0000
FE0000
7F0000
7FC000
3FF000
3FFE00
0FFF80
07FFE0
01FFF8
007FFC
000FFE
0003FE
0000FF
00007F
00003F
00003F
00003F
00003F
00007F
7000FF
FFDFFE
FFFFFC
FFFFFC
FFFFF0
7FFFC0
03FC00
ENDCHAR
STARTCHAR 015E
ENCODING 350
SWIDTH 525 0
DWIDTH 35 0
BBX 31 60 2 -13
BITMAP
001FFF00
00FFFFE0
03FFFFF8
07FFFFF8
0FFFFFF8
1FFE1FF0
1FE000F0
3FC00010
3F800000
3F000000
7F000000
7F000000
7F000000
7F000000
7F000000
3F800000
3FC00000
3FE00000
1FF80000
1FFE0000
0FFF8000
07FFF000
01FFFC00
00FFFF00
003FFFC0
0007FFE0
0000FFF0
00003FF8
00000FFC
000003FC
000001FE
000001FE
000000FE
000000FE
0000007E
0000007E
0000007E
000000FE
000000FE
000001FE
380003FC
7E000FFC
7FFFFFF8
7FFFFFF0
FFFFFFE0
3FFFFFC0
0FFFFF00
00FFF000
00078000
00078000
000FE000
000FF000
0003F000
0001F000
0001F800
0077F000
007FF000
00FFE000
00FFC000
00040000
ENDCHAR
STARTCHAR 015F
ENCODING 351
SWIDTH 435 0
DWIDTH 29 0
BBX 24 49 3 -13
BITMAP
000800
01FFF8
07FFFC
1FFFFC
3FFFFC
7FFFFC
7F8018
7E0000
FE0000
FC0000
FC0000
FE0000
FE0000
7F0000
7FC000
3FF000
3FFE00
0FFF80
07FFE0
01FFF8
007FFC
000FFE
0003FE
0000FF
00007F
00003F
00003F
00003F
00003F
00007F
7000FF
FFDFFE
FFFFFC
FFFFFC
FFFFF0
7FFFC0
03FC00
007800
007800
00FE00
00FF00
003F00
001F80
001F80
077F80
07FF00
0FFF00
0FFC00
004000
ENDCHAR
STARTCHAR 0160
ENCODING 352
SWIDTH 525 0
DWIDTH 35 0
BBX 31 63 2 -1
BITMAP
00000200
00700700
00F80F80
00FC1F80
007E3F00
003F7E00
001FFC00
000FF800
0007F000
0007E000
0003C000
00018000
00000000
00000000
00000000
001FFF00
00FFFFE0
03FFFFF8
07FFFFF8
0FFFFFF8
1FFE1FF0
1FE000F0
3FC00010
3F800000
3F000000
7F000000
7F000000
7F000000
7F000000
7F000000
3F800000
3FC00000
3FE00000
1FF80000
1FFE0000
0FFF8000
07FFF000
01FFFC00
00FFFF00
003FFFC0
0007FFE0
0000FFF0
00003FF8
00000FFC
000003FC
000001FE
000001FE
000000FE
000000FE
0000007E
0000007E
0000007E
000000FE
000000FE
000001FE
380003FC
7E000FFC
7FFFFFF8
7FFFFFF0
FFFFFFE0
3FFFFFC0
0FFFFF00
007FF000
ENDCHAR
STARTCHAR 0161
ENCODING 353
SWIDTH 435 0
DWIDTH 29 0
BBX 24 52 3 0
BITMAP
0E0060
0F00F0
1F81F8
0FC3F0
07E7E0
03FFC0
01FF80
00FF00
007E00
003C00
003800
001000
000000
000000
000000
000800
01FFF8
07FFFC
1FFFFC
3FFFFC
7FFFFC
7F8018
7E0000
FE0000
FC0000
FC0000
FE0000
FE0000
7F0000
7FC000
3FF000
3FFE00
0FFF80
07FFE0
01FFF8
007FFC
000FFE
0003FE
0000FF
00007F
00003F
00003F
00003F
00003F
00007F
7000FF
FFDFFE
FFFFFC
FFFFFC
FFFFF0
7FFFC0
03FC00
ENDCHAR
STARTCHAR 0162
ENCODING 354
SWIDTH 555 0
DWIDTH 37 0
BBX 36 59 1 -13
BITMAP
FFFFFFFFF0
FFFFFFFFF0
FFFFFFFFF0
FFFFFFFFF0
FFFFFFFFF0
0001F80000
0001F80000
0001F80000
0001F80000
0001F80000
0001F80000
0001F80000
0001F80000
0001F80000
0001F80000
0001F80000
0001F80000
0001F80000
0001F80000
0001F80000
0001F80000
0001F80000
0001F80000
0001F80000
0001F80000
0001F80000
0001F80000
0001F80000
0001F80000
0001F80000
0001F80000
0001F80000
0001F80000
0001F80000
0001F80000
0001F80000
0001F80000
0001F80000
0001F80000
0001F80000
0001F80000
0001F80000
0001F80000
0001F80000
0001F80000
0001F80000
0001F00000
0001E00000
0003E00000
0003F00000
0003F80000
0001FC0000
00007C0000
00007C0000
0019FC0000
003FFC0000
003FF80000
003FF00000
0003000000
ENDCHAR
STARTCHAR 0163
ENCODING 355
SWIDTH 390 0
DWIDTH 26 0
BBX 21 58 5 -13
BITMAP
7C0000
FC0000
FC0000
FC0000
FC0000
FC0000
FC0000
FC0000
FC0000
FC0000
FFFFE0
FFFFE0
FFFFE0
FFFFE0
FFFFE0
FFFFE0
FC0000
FC0000
FC0000
FC0000
FC0000
FC0000
FC0000
FC0000
FC0000
FC0000
FC0000
FC0000
FC0000
FC0000
FC0000
FC0000
FC0000
FC0000
FC0000
FC0000
FE0000
FE0000
7F0000
7F8070
7FFFF0
3FFFF0
1FFFF0
0FFFF8
07FFE0
007E00
007800
00F800
00FC00
01FE00
007F00
001F00
001F00
0E7F00
0FFF00
0FFE00
0FFC00
00C000
ENDCHAR
STARTCHAR 0164
ENCODING 356
SWIDTH 555 0
DWIDTH 37 0
BBX 36 62 1 0
BITMAP
0010008000
003801C000
007C03C000
007E0FC000
003F1F8000
001FBF8000
000FFF0000
0007FE0000
0003FC0000
0001F80000
0000F00000
0000600000
0000000000
0000000000
0000000000
0000000000
FFFFFFFFF0
FFFFFFFFF0
FFFFFFFFF0
FFFFFFFFF0
FFFFFFFFF0
0001F80000
0001F80000
0001F80000
0001F80000
0001F80000
0001F80000
0001F80000
0001F80000
0001F80000
0001F80000
0001F80000
0001F80000
0001F80000
0001F80000
0001F80000
0001F80000
0001F80000
0001F80000
0001F80000
0001F80000
0001F80000
0001F80000
0001F80000
0001F80000
0001F80000
0001F80000
0001F80000
0001F80000
0001F80000
0001F80000
0001F80000
0001F80000
0001F80000
0001F80000
0001F80000
0001F80000
0001F80000
0001F80000
0001F80000
0001F80000
0001F80000
ENDCHAR
STARTCHAR 0165
ENCODING 357
SWIDTH 390 0
DWIDTH 26 0
BBX 21 53 5 -1
BITMAP
001F80
001F80
001F00
001F00
001F00
001F00
001F00
7C1F00
FC1F00
FC1E00
FC1E00
FC1E00
FC1E00
FC0000
FC0000
FC0000
FC0000
FFFFE0
FFFFE0
FFFFE0
FFFFE0
FFFFE0
FFFFE0
FC0000
FC0000
FC0000
FC0000
FC0000
FC0000
FC0000
FC0000
FC0000
FC0000
FC0000
FC0000
FC0000
FC0000
FC0000
FC0000
FC0000
FC0000
FC0000
FC0000
FE0000
FE0000
7F0000
7F8070
7FFFF0
3FFFF0
1FFFF0
0FFFF8
07FFE0
007E00
ENDCHAR
STARTCHAR 0166
ENCODING 358
SWIDTH 555 0
DWIDTH 37 0
BBX 36 46 1 0
BITMAP
FFFFFFFFF0
FFFFFFFFF0
FFFFFFFFF0
FFFFFFFFF0
FFFFFFFFF0
0001F80000
0001F80000
0001F80000
0001F80000
0001F80000
0001F80000
0001F80000
0001F80000
0001F80000
0001F80000
0001F80000
0001F80000
0001F80000
0001F80000
0001F80000
03FFFFFC00
03FFFFFC00
03FFFFFC00
03FFFFFC00
03FFFFFC00
0001F80000
0001F80000
0001F80000
0001F80000
0001F80000
0001F80000
0001F80000
0001F80000
0001F80000
0001F80000
0001F80000
0001F80000
0001F80000
0001F80000
0001F80000
0001F80000
0001F80000
0001F80000
0001F80000
0001F80000
0001F80000
ENDCHAR
STARTCHAR 0167
ENCODING 359
SWIDTH 390 0
DWIDTH 26 0
BBX 21 46 5 -1
BITMAP
7C0000
FC0000
FC0000
FC0000
FC0000
FC0000
FC0000
FC0000
FC0000
FC0000
FFFFE0
FFFFE0
FFFFE0
FFFFE0
FFFFE0
FFFFE0
FC0000
FC0000
FC0000
FC0000
FC0000
FC0000
FC0000
FC0000
FC0000
FFFFE0
FFFFE0
FFFFE0
FFFFE0
FC0000
FC0000
FC0000
FC0000
FC0000
FC0000
FC0000
FE0000
FE0000
7F0000
7F8070
7FFFF0
3FFFF0
1FFFF0
0FFFF8
07FFE0
007E00
ENDCHAR
STARTCHAR 0168
ENCODING 360
SWIDTH 675 0
DWIDTH 45 0
BBX 35 60 5 -1
BITMAP
000F807000
003FE0F800
007FFFF000
00FFFFF000
00FFFFE000
01F07FC000
00E01F8000
0000000000
0000000000
0000000000
0000000000
0000000000
0000000000
FE000007E0
FE000007E0
FE000007E0
FE000007E0
FE000007E0
FE000007E0
FE000007E0
FE000007E0
FE000007E0
FE000007E0
FE000007E0
FE000007E0
FE000007E0
FE000007E0
FE000007E0
FE000007E0
FE000007E0
FE000007E0
FE000007E0
FE000007E0
FE000007E0
FE000007E0
FE000007E0
FE000007E0
FE000007E0
FE000007E0
FE000007E0
FE000007E0
FE000007E0
FE000007E0
FE000007E0
7E000007E0
7E000007E0
7E00000FE0
7F00000FE0
7F00000FE0
3F80001FC0
3F80003FC0
3FC0003F80
1FF000FF80
0FFC03FF00
0FFFFFFE00
07FFFFFE00
03FFFFF800
00FFFFF000
003FFFC000
0007FE0000
ENDCHAR
STARTCHAR 0169
ENCODING 361
SWIDTH 570 0
DWIDTH 38 0
BBX 28 50 5 -1
BITMAP
00600200
01FC0780
03FF0F80
07FFFF00
0FFFFF00
1F0FFE00
1E03F800
06002000
00000000
00000000
00000000
00000000
00000000
00000000
FC0003F0
FC0003F0
FC0003F0
FC0003F0
FC0003F0
FC0003F0
FC0003F0
FC0003F0
FC0003F0
FC0003F0
FC0003F0
FC0003F0
FC0003F0
FC0003F0
FC0003F0
FC0003F0
FC0003F0
FC0003F0
FC0003F0
FC0003F0
FC0003F0
FC0003F0
FC0003F0
FE0003F0
FE0003F0
FE0003F0
7F0003F0
7F0003F0
7F8003F0
3FE003F0
3FFFFFF0
1FFFFFF0
0FFFFFF0
07FFFFF0
01FFFFC0
001FE000
ENDCHAR
STARTCHAR 016A
ENCODING 362
SWIDTH 675 0
DWIDTH 45 0
BBX 35 59 5 -1
BITMAP
00FFFFE000
00FFFFE000
00FFFFE000
00FFFFE000
00FFFFE000
0000000000
0000000000
0000000000
0000000000
0000000000
0000000000
0000000000
FE000007E0
FE000007E0
FE000007E0
FE000007E0
FE000007E0
FE000007E0
FE000007E0
FE000007E0
FE000007E0
FE000007E0
FE000007E0
FE000007E0
FE000007E0
FE000007E0
FE000007E0
FE000007E0
FE000007E0
FE000007E0
FE000007E0
FE000007E0
FE000007E0
FE000007E0
FE000007E0
FE000007E0
FE000007E0
FE000007E0
FE000007E0
FE000007E0
FE000007E0
FE000007E0
FE000007E0
7E000007E0
7E000007E0
7E00000FE0
7F00000FE0
7F00000FE0
3F80001FC0
3F80003FC0
3FC0003F80
1FF000FF80
0FFC03FF00
0FFFFFFE00
07FFFFFE00
03FFFFF800
00FFFFF000
003FFFC000
0007FE0000
ENDCHAR
STARTCHAR 016B
ENCODING 363
SWIDTH 570 0
DWIDTH 38 0
BBX 28 48 5 -1
BITMAP
0FFFFE00
0FFFFE00
0FFFFE00
0FFFFE00
00000000
00000000
00000000
00000000
00000000
00000000
00000000
00000000
FC0003F0
FC0003F0
FC0003F0
FC0003F0
FC0003F0
FC0003F0
FC0003F0
FC0003F0
FC0003F0
FC0003F0
FC0003F0
FC0003F0
FC0003F0
FC0003F0
FC0003F0
FC0003F0
FC0003F0
FC0003F0
FC0003F0
FC0003F0
FC0003F0
FC0003F0
FC0003F0
FE0003F0
FE0003F0
FE0003F0
7F0003F0
7F0003F0
7F8003F0
3FE003F0
3FFFFFF0
1FFFFFF0
0FFFFFF0
07FFFFF0
01FFFFC0
001FE000
ENDCHAR
STARTCHAR 016C
ENCODING 364
SWIDTH 675 0
DWIDTH 45 0
BBX 35 61 5 -1
BITMAP
007801E000
007803E000
007C03E000
003E07C000
003FFFC000
001FFF8000
000FFF0000
0007FE0000
0001F80000
0000000000
0000000000
0000000000
0000000000
0000000000
FE000007E0
FE000007E0
FE000007E0
FE000007E0
FE000007E0
FE000007E0
FE000007E0
FE000007E0
FE000007E0
FE000007E0
FE000007E0
FE000007E0
FE000007E0
FE000007E0
FE000007E0
FE000007E0
FE000007E0
FE000007E0
FE000007E0
FE000007E0
FE000007E0
FE000007E0
FE000007E0
FE000007E0
FE000007E0
FE000007E0
FE000007E0
FE000007E0
FE000007E0
FE000007E0
FE000007E0
7E000007E0
7E000007E0
7E00000FE0
7F00000FE0
7F00000FE0
3F80001FC0
3F80003FC0
3FC0003F80
1FF000FF80
0FFC03FF00
0FFFFFFE00
07FFFFFE00
03FFFFF800
00FFFFF000
003FFFC000
0007FE0000
ENDCHAR
STARTCHAR 016D
ENCODING 365
SWIDTH 570 0
DWIDTH 38 0
BBX 28 51 5 -1
BITMAP
07801E00
07801E00
07C03E00
07C07C00
03F0FC00
03FFF800
01FFF800
00FFF000
003FC000
00000000
00000000
00000000
00000000
00000000
00000000
FC0003F0
FC0003F0
FC0003F0
FC0003F0
FC0003F0
FC0003F0
FC0003F0
FC0003F0
FC0003F0
FC0003F0
FC0003F0
FC0003F0
FC0003F0
FC0003F0
FC0003F0
FC0003F0
FC0003F0
FC0003F0
FC0003F0
FC0003F0
FC0003F0
FC0003F0
FC0003F0
FE0003F0
FE0003F0
FE0003F0
7F0003F0
7F0003F0
7F8003F0
3FE003F0
3FFFFFF0
1FFFFFF0
0FFFFFF0
07FFFFF0
01FFFFC0
001FE000
ENDCHAR
STARTCHAR 016E
ENCODING 366
SWIDTH 675 0
DWIDTH 45 0
BBX 35 63 5 -1
BITMAP
0003F80000
0007FE0000
000FFF0000
000F0F0000
001E078000
001E078000
001C078000
001E078000
001E078000
000F0F0000
000FFF0000
0007FE0000
0001F80000
0000000000
0000000000
0000000000
FE000007E0
FE000007E0
FE000007E0
FE000007E0
FE000007E0
FE000007E0
FE000007E0
FE000007E0
FE000007E0
FE000007E0
FE000007E0
FE000007E0
FE000007E0
FE000007E0
FE000007E0
FE000007E0
FE000007E0
FE000007E0
FE000007E0
FE000007E0
FE000007E0
FE000007E0
FE000007E0
FE000007E0
FE000007E0
FE000007E0
FE000007E0
FE000007E0
FE000007E0
FE000007E0
FE000007E0
7E000007E0
7E000007E0
7E00000FE0
7F00000FE0
7F00000FE0
3F80001FC0
3F80003FC0
3FC0003F80
1FF000FF80
0FFC03FF00
0FFFFFFE00
07FFFFFE00
03FFFFF800
00FFFFF000
003FFFC000
0007FE0000
ENDCHAR
STARTCHAR 016F
ENCODING 367
SWIDTH 570 0
DWIDTH 38 0
BBX 28 53 5 -1
BITMAP
001F8000
003FC000
007FE000
00F1F000
01E07000
01E07800
01C07800
01C07800
01E07800
00E0F000
00FFF000
007FE000
003FC000
00060000
00000000
00000000
00000000
FC0003F0
FC0003F0
FC0003F0
FC0003F0
FC0003F0
FC0003F0
FC0003F0
FC0003F0
FC0003F0
FC0003F0
FC0003F0
FC0003F0
FC0003F0
FC0003F0
FC0003F0
FC0003F0
FC0003F0
FC0003F0
FC0003F0
FC0003F0
FC0003F0
FC0003F0
FC0003F0
FE0003F0
FE0003F0
FE0003F0
7F0003F0
7F0003F0
7F8003F0
3FE003F0
3FFFFFF0
1FFFFFF0
0FFFFFF0
07FFFFF0
01FFFFC0
001FE000
ENDCHAR
STARTCHAR 0170
ENCODING 368
SWIDTH 675 0
DWIDTH 45 0
BBX 35 63 5 -1
BITMAP
0000400800
0000E01C00
0001F03E00
0001F83F00
0003F07E00
0007E0FC00
000FC1F800
000FC1F800
001F83F000
003F07E000
003E07C000
001C038000
0008010000
0000000000
0000000000
0000000000
FE000007E0
FE000007E0
FE000007E0
FE000007E0
FE000007E0
FE000007E0
FE000007E0
FE000007E0
FE000007E0
FE000007E0
FE000007E0
FE000007E0
FE000007E0
FE000007E0
FE000007E0
FE000007E0
FE000007E0
FE000007E0
FE000007E0
FE000007E0
FE000007E0
FE000007E0
FE000007E0
FE000007E0
FE000007E0
FE000007E0
FE000007E0
FE000007E0
FE000007E0
FE000007E0
FE000007E0
7E000007E0
7E000007E0
7E00000FE0
7F00000FE0
7F00000FE0
3F80001FC0
3F80003FC0
3FC0003F80
1FF000FF80
0FFC03FF00
0FFFFFFE00
07FFFFFE00
03FFFFF800
00FFFFF000
003FFFC000
0007FE0000
ENDCHAR
STARTCHAR 0171
ENCODING 369
SWIDTH 570 0
DWIDTH 38 0
BBX 28 52 5 0
BITMAP
000C0180
000E01C0
001F03E0
003F87F0
007F0FE0
007E0FC0
00FC1F80
01F83F00
01F03E00
03E07C00
03C07800
00801000
00000000
00000000
00000000
00000000
FC0003F0
FC0003F0
FC0003F0
FC0003F0
FC0003F0
FC0003F0
FC0003F0
FC0003F0
FC0003F0
FC0003F0
FC0003F0
FC0003F0
FC0003F0
FC0003F0
FC0003F0
FC0003F0
FC0003F0
FC0003F0
FC0003F0
FC0003F0
FC0003F0
FC0003F0
FC0003F0
FE0003F0
FE0003F0
FE0003F0
7F0003F0
7F0003F0
7F8003F0
3FE003F0
3FFFFFF0
1FFFFFF0
0FFFFFF0
07FFFFF0
01FFFFC0
001FE000
ENDCHAR
STARTCHAR 0172
ENCODING 370
SWIDTH 675 0
DWIDTH 45 0
BBX 35 58 5 -12
BITMAP
FE000007E0
FE000007E0
FE000007E0
FE000007E0
FE000007E0
FE000007E0
FE000007E0
FE000007E0
FE000007E0
FE000007E0
FE000007E0
FE000007E0
FE000007E0
FE000007E0
FE000007E0
FE000007E0
FE000007E0
FE000007E0
FE000007E0
FE000007E0
FE000007E0
FE000007E0
FE000007E0
FE000007E0
FE000007E0
FE000007E0
FE000007E0
FE000007E0
FE000007E0
FE000007E0
FE000007E0
7E000007E0
7E000007E0
7E00000FE0
7F00000FE0
7F00000FE0
3F80001FC0
3F80003FC0
3FC0003F80
1FF000FF80
0FFC03FF00
0FFFFFFF00
07FFFFFE00
03FFFFF800
00FFFFF000
003FFFE000
0007FF8000
00003F0000
00007C0000
0000FC0000
0001F80000
0001F80000
0001F00000
0001F80000
0001FFC000
0001FFC000
0000FFC000
00007FC000
ENDCHAR
STARTCHAR 0173
ENCODING 371
SWIDTH 570 0
DWIDTH 38 0
BBX 28 47 5 -12
BITMAP
FC0003F0
FC0003F0
FC0003F0
FC0003F0
FC0003F0
FC0003F0
FC0003F0
FC0003F0
FC0003F0
FC0003F0
FC0003F0
FC0003F0
FC0003F0
FC0003F0
FC0003F0
FC0003F0
FC0003F0
FC0003F0
FC0003F0
FC0003F0
FC0003F0
FC0003F0
FC0003F0
FE0003F0
FE0003F0
FE0003F0
7F0003F0
7F0003F0
7F8003F0
3FE003F0
3FFFFFF0
1FFFFFF0
0FFFFFF0
07FFFFF0
01FFFFF0
001FE7C0
00001F80
00001F00
00003E00
00007E00
00007C00
0000FC00
0000FE00
0000FFF0
00007FF0
00007FF0
00001FF0
ENDCHAR
STARTCHAR 0174
ENCODING 372
SWIDTH 915 0
DWIDTH 61 0
BBX 58 61 2 1
BITMAP
0000000C00000000
0000001E00000000
0000003F00000000
0000007F80000000
000000FFC0000000
000001FFE0000000
000003F3F0000000
000007E1F8000000
00000FC0FC000000
00000F8078000000
0000070038000000
0000020010000000
0000000000000000
0000000000000000
0000000000000000
FE00000000001FC0
FE00000000001FC0
FE00000000001FC0
FE00000000001F80
7F00000000001F80
7F00003F00003F80
7F00003F00003F80
7F00003F80003F80
7F00007F80003F00
3F00007F80003F00
3F80007F80007F00
3F8000FFC0007F00
3F8000FFC0007F00
3F8000FFC0007E00
1F8001FFE0007E00
1FC001FFE000FE00
1FC001F3E000FE00
1FC003F3F000FE00
0FC003F3F000FC00
0FC003E1F000FC00
0FE007E1F801FC00
0FE007E1F801FC00
0FE007C0F801F800
07E00FC0FC01F800
07F00FC0FC01F800
07F00F807E03F800
07F01F807E03F000
03F01F807E03F000
03F83F003F03F000
03F83F003F07F000
03F83F003F07E000
01F87E001F87E000
01F87E001F87E000
01FC7C001FCFE000
01FCFC000FCFC000
00FCFC000FCFC000
00FEF80007EFC000
00FFF80007FF8000
007FF80007FF8000
007FF00003FF8000
007FF00003FF8000
003FE00001FF0000
003FE00001FF0000
003FE00001FF0000
001FC00000FE0000
001FC00000FE0000
ENDCHAR
STARTCHAR 0175
ENCODING 373
SWIDTH 765 0
DWIDTH 51 0
BBX 50 51 1 0
BITMAP
000000C0000000
000001E0000000
000003F0000000
000007F0000000
00000FF8000000
00001FFC000000
00003FFE000000
00007F3F000000
00007C1F800000
0000F80FC00000
00007007800000
00002001000000
00000000000000
00000000000000
00000000000000
00000000000000
FE0003F0001FC0
FE0003F0001F80
7E0003F0001F80
7F0003F0003F80
7F0003F8003F00
3F0007F8003F00
3F0007F8003F00
3F8007F8007F00
3F800FFC007E00
1F800FFC007E00
1F800FFC007E00
1FC00FFC00FE00
0FC01FFE00FC00
0FC01F7E00FC00
0FC01F3E00FC00
0FE01F3E01F800
07E03E3F01F800
07E03E1F01F800
07F03E1F03F000
03F07E1F83F000
03F07C0F83F000
03F87C0F87E000
01F8FC0FC7E000
01F8F807C7E000
00FCF807CFC000
00FDF807EFC000
00FDF003EFC000
007FF003FF8000
007FF003FF8000
007FE001FF0000
003FE001FF0000
003FC001FF0000
001FC000FE0000
001FC000FE0000
001F8000FC0000
ENDCHAR
STARTCHAR 0176
ENCODING 374
SWIDTH 585 0
DWIDTH 39 0
BBX 38 61 1 1
BITMAP
0000300000
0000780000
0000FC0000
0001FE0000
0003FF0000
0007FF8000
000FCFC000
001F87E000
003F03F000
003E01E000
001C00E000
0008004000
0000000000
0000000000
0000000000
FE000001FC
FF000003FC
7F000003F8
7F800007F0
3F800007F0
1FC0000FE0
1FC0000FE0
0FE0001FC0
0FE0001FC0
07F0003F80
07F0003F00
03F8007F00
01FC007E00
01FC00FE00
00FE01FC00
00FE01FC00
007F03F800
007F83F000
003F87F000
001FC7E000
001FCFC000
000FFFC000
0007FF8000
0007FF8000
0003FF0000
0003FE0000
0001FE0000
0000FC0000
0000FC0000
0000FC0000
0000FC0000
0000FC0000
0000FC0000
0000FC0000
0000FC0000
0000FC0000
0000FC0000
0000FC0000
0000FC0000
0000FC0000
0000FC0000
0000FC0000
0000FC0000
0000FC0000
0000FC0000
0000FC0000
ENDCHAR
STARTCHAR 0177
ENCODING 375
SWIDTH 495 0
DWIDTH 33 0
BBX 32 64 0 -13
BITMAP
00004000
0000E000
0001F000
0003F800
0007FC00
000FFE00
001FBF00
003F1F80
007E0FC0
007C07C0
00780380
00300180
00000000
00000000
00000000
00000000
7F00007F
7F00007F
3F00007E
3F80007E
3F80007E
3F8000FE
1F8000FC
1FC000FC
1FC000FC
0FC001FC
0FE001F8
0FE001F8
07E001F8
07F003F0
03F003F0
03F003F0
03F807E0
01F807E0
01F807E0
01FC07C0
00FC0FC0
00FE0FC0
007E0F80
007E1F80
003F1F80
003F1F00
001FBF00
001FBF00
001FFE00
000FFE00
000FFE00
0007FC00
0007FC00
0003F800
0003F800
0001F800
0003F000
0003F000
0007E000
000FE000
000FC000
003F8000
7FFF8000
7FFF0000
7FFE0000
FFF80000
FFE00000
0C000000
ENDCHAR
STARTCHAR 0178
ENCODING 376
SWIDTH 585 0
DWIDTH 39 0
BBX 38 59 1 0
BITMAP
003E01F000
007F03F800
007F03F800
007F07F800
007F07F800
007F03F800
003E01F000
0008000000
0000000000
0000000000
0000000000
0000000000
0000000000
FE000001FC
FF000003FC
7F000003F8
7F800007F0
3F800007F0
1FC0000FE0
1FC0000FE0
0FE0001FC0
0FE0001FC0
07F0003F80
07F0003F00
03F8007F00
01FC007E00
01FC00FE00
00FE01FC00
00FE01FC00
007F03F800
007F83F000
003F87F000
001FC7E000
001FCFC000
000FFFC000
0007FF8000
0007FF8000
0003FF0000
0003FE0000
0001FE0000
0000FC0000
0000FC0000
0000FC0000
0000FC0000
0000FC0000
0000FC0000
0000FC0000
0000FC0000
0000FC0000
0000FC0000
0000FC0000
0000FC0000
0000FC0000
0000FC0000
0000FC0000
0000FC0000
0000FC0000
0000FC0000
0000FC0000
ENDCHAR
STARTCHAR 0179
ENCODING 377
SWIDTH 570 0
DWIDTH 38 0
BBX 34 62 2 0
BITMAP
0000040000
00000E0000
00001F0000
00003F8000
00003F8000
00007F0000
0000FE0000
0001FC0000
0003F80000
0003F00000
0007E00000
0001C00000
0000800000
0000000000
0000000000
0000000000
7FFFFFFF80
7FFFFFFF80
7FFFFFFF80
7FFFFFFF80
7FFFFFFF80
0000007F80
000000FF00
000001FE00
000003FC00
000003F800
000007F000
00000FF000
00001FE000
00001FC000
00003F8000
00007F0000
0000FF0000
0000FE0000
0001FC0000
0003F80000
0007F80000
0007F00000
000FE00000
001FE00000
001FC00000
003F800000
007F000000
007F000000
00FE000000
01FC000000
01FC000000
03F8000000
07F0000000
07F0000000
0FE0000000
0FE0000000
1FC0000000
3F80000000
3F80000000
7F00000000
7FFFFFFFC0
FFFFFFFFC0
FFFFFFFFC0
FFFFFFFFC0
FFFFFFFFC0
FFFFFFFFC0
ENDCHAR
STARTCHAR 017A
ENCODING 378
SWIDTH 465 0
DWIDTH 31 0
BBX 27 52 2 0
BITMAP
00004000
0000E000
0000F000
0001F800
0003F800
0007F000
000FE000
001FC000
001F8000
003F0000
007E0000
003C0000
00180000
00000000
00000000
00000000
00000000
7FFFFFC0
7FFFFFC0
7FFFFFC0
7FFFFFC0
7FFFFFC0
7FFFFFC0
00003F80
00007F00
0000FE00
0001FC00
0003FC00
0003F800
0007F000
000FE000
001FC000
001FC000
003F8000
007F0000
00FE0000
00FE0000
01FC0000
03F80000
03F80000
07F00000
0FE00000
0FE00000
1FC00000
3F800000
3F800000
7F000000
7FFFFFE0
FFFFFFE0
FFFFFFE0
FFFFFFE0
FFFFFFE0
ENDCHAR
STARTCHAR 017B
ENCODING 379
SWIDTH 570 0
DWIDTH 38 0
BBX 34 59 2 0
BITMAP
0001F00000
0003F80000
0003F80000
0007F80000
0003F80000
0003F80000
0001F00000
0000400000
0000000000
0000000000
0000000000
0000000000
0000000000
7FFFFFFF80
7FFFFFFF80
7FFFFFFF80
7FFFFFFF80
7FFFFFFF80
0000007F80
000000FF00
000001FE00
000003FC00
000003F800
000007F000
00000FF000
00001FE000
00001FC000
00003F8000
00007F0000
0000FF0000
0000FE0000
0001FC0000
0003F80000
0007F80000
0007F00000
000FE00000
001FE00000
001FC00000
003F800000
007F000000
007F000000
00FE000000
01FC000000
01FC000000
03F8000000
07F0000000
07F0000000
0FE0000000
0FE0000000
1FC0000000
3F80000000
3F80000000
7F00000000
7FFFFFFFC0
FFFFFFFFC0
FFFFFFFFC0
FFFFFFFFC0
FFFFFFFFC0
FFFFFFFFC0
ENDCHAR
STARTCHAR 017C
ENCODING 380
SWIDTH 465 0
DWIDTH 31 0
BBX 27 49 2 0
BITMAP
001F0000
003F8000
003F8000
007F8000
007F8000
003F8000
003F8000
001E0000
00000000
00000000
00000000
00000000
00000000
00000000
7FFFFFC0
7FFFFFC0
7FFFFFC0
7FFFFFC0
7FFFFFC0
7FFFFFC0
00003F80
00007F00
0000FE00
0001FC00
0003FC00
0003F800
0007F000
000FE000
001FC000
001FC000
003F8000
007F0000
00FE0000
00FE0000
01FC0000
03F80000
03F80000
07F00000
0FE00000
0FE00000
1FC00000
3F800000
3F800000
7F000000
7FFFFFE0
FFFFFFE0
FFFFFFE0
FFFFFFE0
FFFFFFE0
ENDCHAR
STARTCHAR 017D
ENCODING 381
SWIDTH 570 0
DWIDTH 38 0
BBX 34 62 2 0
BITMAP
0000010000
0038038000
007C07C000
007E0FC000
003F1F8000
001FBF0000
000FFE0000
0007FC0000
0003F80000
0001F00000
0000E00000
0000C00000
0000400000
0000000000
0000000000
0000000000
7FFFFFFF80
7FFFFFFF80
7FFFFFFF80
7FFFFFFF80
7FFFFFFF80
0000007F80
000000FF00
000001FE00
000003FC00
000003F800
000007F000
00000FF000
00001FE000
00001FC000
00003F8000
00007F0000
0000FF0000
0000FE0000
0001FC0000
0003F80000
0007F80000
0007F00000
000FE00000
001FE00000
001FC00000
003F800000
007F000000
007F000000
00FE000000
01FC000000
01FC000000
03F8000000
07F0000000
07F0000000
0FE0000000
0FE0000000
1FC0000000
3F80000000
3F80000000
7F00000000
7FFFFFFFC0
FFFFFFFFC0
FFFFFFFFC0
FFFFFFFFC0
FFFFFFFFC0
FFFFFFFFC0
ENDCHAR
STARTCHAR 017E
ENCODING 382
SWIDTH 465 0
DWIDTH 31 0
BBX 27 51 2 1
BITMAP
03001800
07803C00
0FC07C00
07E1F800
03F3F000
01FFF000
00FFE000
007FC000
003F8000
001F0000
000E0000
00040000
00000000
00000000
00000000
00000000
7FFFFFC0
7FFFFFC0
7FFFFFC0
7FFFFFC0
7FFFFFC0
7FFFFFC0
00003F80
00007F00
0000FE00
0001FC00
0003FC00
0003F800
0007F000
000FE000
001FC000
001FC000
003F8000
007F0000
00FE0000
00FE0000
01FC0000
03F80000
03F80000
07F00000
0FE00000
0FE00000
1FC00000
3F800000
3F800000
7F000000
7FFFFFE0
FFFFFFE0
FFFFFFE0
FFFFFFE0
FFFFFFE0
ENDCHAR
STARTCHAR 017F
ENCODING 383
SWIDTH 270 0
DWIDTH 18 0
BBX 21 52 5 0
BITMAP
001F80
01FFF8
07FFF8
0FFFF8
1FFFF8
3FFFF0
3FC000
7F8000
7F0000
7E0000
7E0000
FE0000
FE0000
FE0000
FE0000
FE0000
FE0000
FE0000
FE0000
FE0000
FE0000
FE0000
FE0000
FE0000
FE0000
FE0000
FE0000
FE0000
FE0000
FE0000
FE0000
FE0000
FE0000
FE0000
FE0000
FE0000
FE0000
FE0000
FE0000
FE0000
FE0000
FE0000
FE0000
FE0000
FE0000
FE0000
FE0000
FE0000
FE0000
FE0000
FE0000
FE0000
ENDCHAR
STARTCHAR 0180
ENCODING 384
SWIDTH 585 0
DWIDTH 39 0
BBX 36 53 0 -1
BITMAP
0030000000
07F0000000
07F0000000
07F0000000
07F0000000
07F0000000
FFFFFE0000
FFFFFE0000
FFFFFE0000
FFFFFE0000
FFFFFE0000
07F0000000
07F0000000
07F0000000
07F0000000
07F0000000
07F0000000
07F1FF8000
07F7FFF000
07FFFFF800
07FFFFFE00
07FFFFFF00
07FF83FF00
07FC007F80
07F0003FC0
07F0001FC0
07F0000FE0
07F0000FE0
07F0000FE0
07F00007E0
07F00007F0
07F00007F0
07F00007F0
07F00007F0
07F00007F0
07F00007F0
07F00007F0
07F00007F0
07F00007F0
07F00007E0
07F00007E0
07F0000FE0
07F0000FE0
07F0001FC0
07F0003FC0
07F0007F80
07F001FF00
07FFFFFF00
07FFFFFE00
07FFFFF800
07FFFFF000
01FFFFC000
0007FC0000
ENDCHAR
STARTCHAR 0181
ENCODING 385
SWIDTH 735 0
DWIDTH 49 0
BBX 45 47 1 0
BITMAP
0000FFF00000
00FFFFFFC000
07FFFFFFF800
1FFFFFFFFC00
3FFFFFFFFF00
7FFFFFFFFF80
7FFFC001FF80
FE1FC0007FC0
FC1FC0001FE0
FC1FC0001FE0
F81FC0000FE0
F81FC0000FE0
F81FC00007E0
FC1FC0000FE0
001FC0000FE0
001FC0000FE0
001FC0000FC0
001FC0001FC0
001FC0003F80
001FC001FF80
001FFFFFFE00
001FFFFFFC00
001FFFFFF800
001FFFFFFE00
001FFFFFFF80
001FC00FFFC0
001FC0003FE0
001FC0000FF0
001FC00007F0
001FC00003F8
001FC00003F8
001FC00003F8
001FC00003F8
001FC00001F8
001FC00003F8
001FC00003F8
001FC00003F8
001FC00007F8
001FC00007F0
001FC0000FF0
001FC0003FE0
001FC001FFE0
001FFFFFFFC0
001FFFFFFF80
001FFFFFFE00
001FFFFFF800
000FFFFFC000
ENDCHAR
STARTCHAR 0182
ENCODING 386
SWIDTH 615 0
DWIDTH 41 0
BBX 33 46 6 0
BITMAP
FFFFFFF000
FFFFFFF000
FFFFFFF000
FFFFFFF000
FFFFFFF000
FC00000000
FC00000000
FC00000000
FC00000000
FC00000000
FC00000000
FC00000000
FC00000000
FC00000000
FC00000000
FC00000000
FC00000000
FFFFE00000
FFFFFE0000
FFFFFF8000
FFFFFFE000
FFFFFFF800
FC07FFFC00
FC000FFC00
FC0003FE00
FC0000FE00
FC0000FF00
FC00007F00
FC00007F00
FC00003F00
FC00003F80
FC00003F80
FC00003F80
FC00003F80
FC00007F00
FC00007F00
FC00007F00
FC0000FF00
FC0001FE00
FC0007FC00
FC00FFFC00
FFFFFFF800
FFFFFFF000
FFFFFFC000
FFFFFF0000
FFFFF80000
ENDCHAR
STARTCHAR 0183
ENCODING 387
SWIDTH 585 0
DWIDTH 39 0
BBX 31 52 5 -1
BITMAP
FFFFFFE0
FFFFFFE0
FFFFFFE0
FFFFFFE0
FFFFFFE0
FE000000
FE000000
FE000000
FE000000
FE000000
FE000000
FE000000
FE000000
FE000000
FE000000
FE000000
FE3FF000
FEFFFE00
FFFFFF00
FFFFFFC0
FFFFFFE0
FFF07FE0
FF800FF0
FE0007F8
FE0003F8
FE0001FC
FE0001FC
FE0001FC
FE0000FC
FE0000FE
FE0000FE
FE0000FE
FE0000FE
FE0000FE
FE0000FE
FE0000FE
FE0000FE
FE0000FE
FE0000FC
FE0000FC
FE0001FC
FE0001FC
FE0003F8
FE0007F8
FE000FF0
FE003FE0
FFFFFFE0
FFFFFFC0
FFFFFF00
FFFFFE00
3FFFF800
00FF8000
ENDCHAR
STARTCHAR 0184
ENCODING 388
SWIDTH 585 0
DWIDTH 39 0
BBX 35 53 1 -1
BITMAP
0020000000
01E0000000
0FE0000000
3FE0000000
FFE0000000
FFE0000000
7FE0000000
3FE0000000
1FE0000000
0FE0000000
0FE0000000
0FE0000000
0FE0000000
0FE0000000
0FE0000000
0FE0000000
0FE0000000
0FE7FF8000
0FFFFFE000
0FFFFFF800
0FFFFFFC00
0FFFFFFE00
0FFE03FE00
0FF000FF00
0FE0007F80
0FE0003F80
0FE0001FC0
0FE0001FC0
0FE0000FC0
0FE0000FC0
0FE0000FE0
0FE0000FE0
0FE0000FE0
0FE0000FE0
0FE0000FE0
0FE0000FE0
0FE0000FE0
0FE0000FE0
0FE0000FE0
0FE0000FC0
0FE0001FC0
0FE0001FC0
0FE0001FC0
0FE0003F80
0FE0007F80
0FE000FF00
0FE003FE00
0FFFFFFE00
0FFFFFFC00
0FFFFFF000
0FFFFFE000
03FFFF8000
000FF80000
ENDCHAR
STARTCHAR 0185
ENCODING 389
SWIDTH 615 0
DWIDTH 41 0
BBX 37 46 2 1
BITMAP
01C0000000
0FC0000000
3FC0000000
FFC0000000
FFC0000000
7FC0000000
3FC0000000
1FC0000000
0FC0000000
0FC0000000
0FC0000000
0FC0000000
0FC0000000
0FC0000000
0FC0000000
0FC0000000
0FCFC00000
0FFFFFC000
0FFFFFF800
0FFFFFFE00
0FFFFFFF00
0FFFFFFF80
0FC003FFC0
0FC0007FE0
0FC0001FE0
0FC0000FF0
0FC00007F0
0FC00007F0
0FC00003F8
0FC00003F8
0FC00003F8
0FC00003F8
0FC00003F8
0FC00003F8
0FC00003F8
0FC00007F0
0FC00007F0
0FC0000FF0
0FC0001FE0
0FC0007FE0
0FC007FFC0
0FFFFFFF80
0FFFFFFF00
0FFFFFFC00
0FFFFFF000
07FFFF8000
ENDCHAR
STARTCHAR 0186
ENCODING 390
SWIDTH 615 0
DWIDTH 41 0
BBX 35 48 2 -1
BITMAP
03FFF00000
3FFFFE0000
FFFFFF8000
FFFFFFE000
FFFFFFF000
7FE3FFF800
78001FFC00
400007FE00
000001FE00
000000FF00
0000007F80
0000007F80
0000003F80
0000001FC0
0000001FC0
0000001FC0
0000000FE0
0000000FE0
0000000FE0
0000000FE0
0000000FE0
00000007E0
00000007E0
00000007E0
00000007E0
00000007E0
0000000FE0
0000000FE0
0000000FE0
0000000FE0
0000000FE0
0000000FE0
0000001FC0
0000001FC0
0000003FC0
0000003F80
0000007F80
000000FF00
000001FF00
000003FE00
600007FC00
7C001FFC00
FFFFFFF800
FFFFFFE000
FFFFFFC000
FFFFFF8000
1FFFFC0000
00FFE00000
ENDCHAR
STARTCHAR 0187
ENCODING 391
SWIDTH 660 0
DWIDTH 44 0
BBX 44 53 4 -1
BITMAP
000000003FF0
000000007FE0
00000000FFE0
00000001FFE0
00000001FFE0
0000FFF3F800
0007FFFFF000
001FFFFFE000
007FFFFFE000
00FFFFFFC000
01FFF8FFC000
03FF0007C000
07FC0000C000
0FF800000000
0FF000000000
1FE000000000
1FC000000000
3F8000000000
3F8000000000
7F0000000000
7F0000000000
7F0000000000
FE0000000000
FE0000000000
FE0000000000
FE0000000000
FE0000000000
FE0000000000
FE0000000000
FE0000000000
FE0000000000
FE0000000000
FE0000000000
FE0000000000
FE0000000000
FE0000000000
7F0000000000
7F0000000000
7F0000000000
3F8000000000
3F8000000000
3FC000000000
1FE000000000
1FF000000000
0FF800000000
07FC0000C000
03FF8007E000
01FFFFFFE000
00FFFFFFE000
007FFFFFF000
001FFFFFE000
0007FFFF0000
0000FFF00000
ENDCHAR
STARTCHAR 0188
ENCODING 392
SWIDTH 495 0
DWIDTH 33 0
BBX 34 43 3 -1
BITMAP
0000001F80
000000FFC0
000001FFC0
000001FFC0
000003FF80
000007F000
000087E000
001FFFC000
007FFFC000
01FFFFC000
03FFFF8000
07FFFF8000
0FFC038000
1FF0000000
1FC0000000
3F80000000
3F80000000
3F00000000
7F00000000
7E00000000
7E00000000
7E00000000
FE00000000
FE00000000
FE00000000
FE00000000
FE00000000
7E00000000
7E00000000
7E00000000
7F00000000
7F00000000
3F80000000
3F80000000
3FC0000000
1FE0000000
0FF800C000
0FFFFFC000
07FFFFC000
01FFFFC000
00FFFFE000
003FFFC000
0003F80000
ENDCHAR
STARTCHAR 0189
ENCODING 393
SWIDTH 720 0
DWIDTH 48 0
BBX 44 47 1 0
BITMAP
0007F4000000
03FFFFE00000
03FFFFFC0000
03FFFFFF8000
03FFFFFFC000
03FFFFFFF000
03F000FFF800
03F0001FFC00
03F00007FE00
03F00001FE00
03F00000FF00
03F000007F80
03F000003F80
03F000003FC0
03F000001FC0
03F000001FC0
03F000000FE0
03F000000FE0
03F000000FE0
03F000000FE0
FFFFF8000FE0
FFFFF80007E0
FFFFF80007F0
FFFFF80007F0
FFFFF80007F0
03F0000007E0
03F0000007E0
03F000000FE0
03F000000FE0
03F000000FE0
03F000000FE0
03F000001FE0
03F000001FC0
03F000001FC0
03F000003FC0
03F000007F80
03F000007F80
03F00000FF00
03F00003FE00
03F00007FC00
03F0001FFC00
03F003FFF800
03FFFFFFE000
03FFFFFFC000
03FFFFFF0000
03FFFFFC0000
01FFFFC00000
ENDCHAR
STARTCHAR 018A
ENCODING 394
SWIDTH 810 0
DWIDTH 54 0
BBX 49 47 1 0
BITMAP
0000FFC0000000
00FFFFFF800000
07FFFFFFF00000
1FFFFFFFFC0000
3FFFFFFFFF0000
7FFFFFFFFFC000
7FFFC003FFE000
FE1FC0007FF000
FC1FC0001FF800
FC1FC00007F800
F81FC00003FC00
F81FC00001FE00
F81FC00001FE00
F81FC00000FF00
001FC000007F00
001FC000007F00
001FC000007F80
001FC000003F80
001FC000003F80
001FC000003F80
001FC000003F80
001FC000003F80
001FC000003F80
001FC000001F80
001FC000003F80
001FC000003F80
001FC000003F80
001FC000003F80
001FC000003F80
001FC000003F80
001FC000003F80
001FC000007F00
001FC000007F00
001FC00000FF00
001FC00000FE00
001FC00001FE00
001FC00003FC00
001FC00003FC00
001FC0000FF800
001FC0001FF000
001FC000FFE000
001FC00FFFC000
001FFFFFFF8000
001FFFFFFF0000
001FFFFFFC0000
001FFFFFF00000
0007FFFF000000
ENDCHAR
STARTCHAR 018B
ENCODING 395
SWIDTH 615 0
DWIDTH 41 0
BBX 33 46 3 0
BITMAP
0FFFFFFF80
0FFFFFFF80
0FFFFFFF80
0FFFFFFF80
0FFFFFFF80
0000003F80
0000003F80
0000003F80
0000003F80
0000003F80
0000003F80
0000003F80
0000003F80
0000003F80
0000003F80
0000003F80
0000003F80
0003FFFF80
003FFFFF80
01FFFFFF80
07FFFFFF80
0FFFFFFF80
1FFFF03F80
3FF0003F80
3FC0003F80
7F80003F80
7F00003F80
7F00003F80
FE00003F80
FE00003F80
FE00003F80
FE00003F80
FE00003F80
FE00003F80
FE00003F80
FF00003F80
7F00003F80
7F80003F80
3FC0003F80
3FF0003F80
1FFF003F80
0FFFFFFF80
07FFFFFF80
01FFFFFF80
007FFFFF80
000FFFFF00
ENDCHAR
STARTCHAR 018C
ENCODING 396
SWIDTH 585 0
DWIDTH 39 0
BBX 31 52 3 -1
BITMAP
0FFFFFFE
0FFFFFFE
0FFFFFFE
0FFFFFFE
0FFFFFFE
0000007E
0000007E
0000007E
0000007E
0000007E
0000007E
0000007E
0000007E
0000007E
0000007E
0000007E
001FF87E
007FFF7E
01FFFFFE
03FFFFFE
07FFFFFE
0FFC1FFE
1FF003FE
1FC000FE
3F80007E
3F80007E
7F00007E
7F00007E
7E00007E
7E00007E
7E00007E
FE00007E
FE00007E
FE00007E
FE00007E
FE00007E
7E00007E
7E00007E
7E00007E
7F00007E
7F00007E
3F80007E
3F80007E
1FC0007E
1FF0007E
0FF8007E
07FFFFFE
03FFFFFE
01FFFFFE
00FFFFFE
003FFFF8
0003FF00
ENDCHAR
STARTCHAR 018D
ENCODING 397
SWIDTH 570 0
DWIDTH 38 0
BBX 32 48 3 -12
BITMAP
00008000
003FFE00
00FFFF80
03FFFFC0
07FFFFF0
0FFFFFF8
1FF80FF8
1FE003FC
3F8001FE
3F8000FE
7F00007E
7F00007F
7E00003F
7E00003F
7E00003F
FE00003F
FE00003F
FE00003F
FE00003F
7E00003F
7E00003F
7F00007F
7F00007E
3F8000FE
3F8001FC
1FC003FC
1FF007F8
0FF80FF0
07FE1FE0
03FF7FC0
00FFFF80
007FFE00
001FFC00
0007FE00
0001FF00
00007F80
00003FC0
00000FC0
00000FE0
000007E0
000007E0
00000FC0
0E001FC0
0FFFFFC0
0FFFFF80
0FFFFF00
1FFFFE00
03FFF000
ENDCHAR
STARTCHAR 018E
ENCODING 398
SWIDTH 570 0
DWIDTH 38 0
BBX 30 46 2 0
BITMAP
3FFFFFFC
3FFFFFFC
3FFFFFFC
3FFFFFFC
3FFFFFFC
000000FC
000000FC
000000FC
000000FC
000000FC
000000FC
000000FC
000000FC
000000FC
000000FC
000000FC
000000FC
000000FC
000000FC
07FFFFFC
07FFFFFC
07FFFFFC
07FFFFFC
07FFFFFC
000000FC
000000FC
000000FC
000000FC
000000FC
000000FC
000000FC
000000FC
000000FC
000000FC
000000FC
000000FC
000000FC
000000FC
000000FC
000000FC
FFFFFFFC
FFFFFFFC
FFFFFFFC
FFFFFFFC
FFFFFFFC
FFFFFFFC
ENDCHAR
STARTCHAR 018F
ENCODING 399
SWIDTH 705 0
DWIDTH 47 0
BBX 39 48 4 -1
BITMAP
007FFE0000
03FFFFC000
1FFFFFF800
1FFFFFFC00
1FFFFFFE00
0FFC7FFF80
0F0001FFC0
0C00007FC0
0000001FE0
0000000FF0
00000007F0
00000007F8
00000003F8
00000003FC
00000001FC
00000001FC
00000001FC
00000000FE
00000000FE
00000000FE
00000000FE
00000000FE
FFFFFFFFFE
FFFFFFFFFE
FFFFFFFFFE
FFFFFFFFFE
FFFFFFFFFE
FFFFFFFFFE
FE000000FE
FE000000FE
FE000000FE
FE000000FC
FE000001FC
7E000001FC
7F000001F8
7F000003F8
7F000007F8
3F800007F0
3FC0000FF0
1FE0001FE0
1FF0007FC0
0FFC00FFC0
07FFFFFF80
03FFFFFF00
01FFFFFC00
007FFFF800
003FFFE000
0007FE0000
ENDCHAR
STARTCHAR 0190
ENCODING 400
SWIDTH 570 0
DWIDTH 38 0
BBX 33 48 3 -1
BITMAP
000FFFC000
007FFFF800
01FFFFFE00
03FFFFFE00
07FFFFFE00
0FFF87FC00
0FF8003C00
1FE0000400
1FC0000000
1FC0000000
1F80000000
3F80000000
3F80000000
1F80000000
1FC0000000
1FC0000000
0FE0000000
0FF0000000
07FC000000
03FF800000
01FFFF8000
007FFF8000
007FFF8000
01FFFF8000
07FFFF8000
0FFFC00000
1FF0000000
3FC0000000
3F80000000
7F00000000
7F00000000
7F00000000
FE00000000
FE00000000
FE00000000
FE00000000
7E00000000
7F00000000
7F00000000
7F80000000
3FC0000700
3FF8003F00
1FFFFFFF00
0FFFFFFF80
07FFFFFF80
01FFFFFF00
007FFFF800
0007FF8000
ENDCHAR
STARTCHAR 0191
ENCODING 401
SWIDTH 525 0
DWIDTH 35 0
BBX 36 58 -2 -12
BITMAP
00FFFFFFF0
00FFFFFFF0
00FFFFFFF0
00FFFFFFF0
00FFFFFFF0
00FC000000
00FC000000
00FC000000
00FC000000
00FC000000
00FC000000
00FC000000
00FC000000
00FC000000
00FC000000
00FC000000
00FC000000
00FC000000
00FC000000
00FFFFFF80
00FFFFFF80
00FFFFFF80
00FFFFFF80
00FFFFFF80
00FFFFFF80
00FC000000
00FC000000
00FC000000
00FC000000
00FC000000
00FC000000
00FC000000
00FC000000
00FC000000
00FC000000
00FC000000
00FC000000
00FC000000
00FC000000
00FC000000
00FC000000
00FC000000
00FC000000
00FC000000
00FC000000
00FC000000
00FC000000
00FC000000
00FC000000
00FC000000
01FC000000
01FC000000
03FC000000
7FF8000000
7FF8000000
FFF0000000
FFE0000000
FFC0000000
ENDCHAR
STARTCHAR 0192
ENCODING 402
SWIDTH 375 0
DWIDTH 25 0
BBX 31 64 -5 -12
BITMAP
000007E0
00007FFE
0001FFFE
0003FFFE
0007FFFE
000FFFFC
000FF000
001FE000
001FC000
001F8000
001F8000
003F8000
003F8000
003F8000
003F8000
003F8000
003F8000
003FFFFC
003FFFFC
003FFFFC
003FFFFC
003FFFFC
003FFFFC
003F8000
003F8000
003F8000
003F8000
003F8000
003F8000
003F8000
003F8000
003F8000
003F8000
003F8000
003F8000
003F8000
003F8000
003F8000
003F8000
003F8000
003F8000
003F8000
003F8000
003F8000
003F8000
003F8000
003F8000
003F8000
003F8000
003F8000
003F8000
003F8000
003F8000
003F0000
003F0000
003F0000
007F0000
007F0000
00FE0000
7FFE0000
7FFC0000
7FF80000
7FF00000
FFC00000
ENDCHAR
STARTCHAR 0193
ENCODING 403
SWIDTH 660 0
DWIDTH 44 0
BBX 44 53 4 -1
BITMAP
000000001FF0
000000007FF0
00000000FFF0
00000001FFE0
00000001FFE0
0000FFF1F800
0007FFFFF000
001FFFFFE000
007FFFFFE000
00FFFFFFE000
01FFF8FFC000
03FF0003C000
07FC00004000
0FF800000000
0FF000000000
1FE000000000
3FC000000000
3F8000000000
3F8000000000
7F0000000000
7F0000000000
7F0000000000
FE0000000000
FE0000000000
FE0000000000
FE0000000000
FE0000000000
FE0000000000
FE0000000000
FE000003F000
FE000003F000
FE000003F000
FE000003F000
FE000003F000
FE000003F000
FE000003F000
7F000003F000
7F000003F000
7F000003F000
3F800003F000
3F800003F000
3FC00003F000
1FE00003F000
1FF00003F000
0FF80003F000
07FE0003F000
03FF8003F000
01FFFFFFF000
00FFFFFFF000
007FFFFFF000
001FFFFFF000
0007FFFFC000
00007FF00000
ENDCHAR
STARTCHAR 0194
ENCODING 404
SWIDTH 645 0
DWIDTH 43 0
BBX 41 58 1 -12
BITMAP
FE0000001F80
FE0000003F80
7F0000003F80
7F0000007F00
3F0000007F00
3F8000007E00
1F800000FE00
1FC00000FC00
1FC00001FC00
0FE00001F800
0FE00003F800
07F00003F000
07F00007F000
03F80007E000
03F8000FE000
01FC000FE000
01FC001FC000
00FE001F8000
00FE003F8000
007F003F8000
007F007F0000
003F807F0000
003F80FE0000
001FC0FE0000
001FC1FC0000
000FE1FC0000
000FE3F80000
0007F3F00000
0007F7F00000
0003FFE00000
0003FFE00000
0001FFC00000
0001FFC00000
0000FF800000
00007F800000
00007F000000
00007F800000
0000FF800000
0001FFC00000
0001FFE00000
0003F7E00000
0003F7F00000
0007E3F00000
0007E1F80000
000FC1F80000
000F80FC0000
001F80FC0000
001F80FC0000
001F807C0000
001F807C0000
001F80FC0000
001FC0FC0000
000FC1FC0000
000FFFF80000
0007FFF80000
0007FFF00000
0001FFE00000
0000FF800000
ENDCHAR
STARTCHAR 0195
ENCODING 405
SWIDTH 885 0
DWIDTH 59 0
BBX 49 53 5 -1
BITMAP
06000000000000
FE000000000000
FE000000000000
FE000000000000
FE000000000000
FE000000000000
FE000000000000
FE000000000000
FE000000000000
FE000000000000
FE000000000000
FE000000000000
FE000000000000
FE000000000000
FE000000000000
FE000000000000
FE000000000000
FEFFF000001F80
FFFFFC00001F80
FFFFFF00001F80
FFFFFF80001F80
FFFFFF80001F80
FF80FFC0001F80
FE001FC0001F80
FE000FE0001F80
FE000FE0001F80
FE0007E0001F80
FE0007E0001F80
FE0007E0001F80
FE0007F0001F80
FE0007F0001F80
FE0007F0001F80
FE0007F0001F80
FE0007F0001F80
FE0007F0001F80
FE0007F0001F80
FE0007F0001F80
FE0007F0001F80
FE0007F0001F80
FE0003F0001F80
FE0003F0001F80
FE0003F0001F80
FE0003F0003F80
FE0003F8003F80
FE0003F8007F80
FE0001FC007F00
FE0001FF01FF00
FE0000FFFFFE00
FE00007FFFFC00
FE00007FFFF800
FE00001FFFF000
FE000007FFC000
000000007C0000
ENDCHAR
STARTCHAR 0196
ENCODING 406
SWIDTH 375 0
DWIDTH 25 0
BBX 18 47 6 -1
BITMAP
FC0000
FC0000
FC0000
FC0000
FC0000
FC0000
FC0000
FC0000
FC0000
FC0000
FC0000
FC0000
FC0000
FC0000
FC0000
FC0000
FC0000
FC0000
FC0000
FC0000
FC0000
FC0000
FC0000
FC0000
FC0000
FC0000
FC0000
FC0000
FC0000
FC0000
FC0000
FC0000
FC0000
FC0000
FC0000
FC0000
FC0000
FE0000
FE0000
FF0000
7F8000
7FFFC0
3FFFC0
3FFFC0
1FFFC0
07FFC0
01FF00
ENDCHAR
STARTCHAR 0197
ENCODING 407
SWIDTH 315 0
DWIDTH 21 0
BBX 20 46 1 0
BITMAP
01F800
01F800
01F800
01F800
01F800
01F800
01F800
01F800
01F800
01F800
01F800
01F800
01F800
01F800
01F800
01F800
01F800
01F800
01F800
FFFFF0
FFFFF0
FFFFF0
FFFFF0
FFFFF0
01F800
01F800
01F800
01F800
01F800
01F800
01F800
01F800
01F800
01F800
01F800
01F800
01F800
01F800
01F800
01F800
01F800
01F800
01F800
01F800
01F800
01F800
ENDCHAR
STARTCHAR 0198
ENCODING 408
SWIDTH 660 0
DWIDTH 44 0
BBX 37 47 6 0
BITMAP
0000003F80
FC0000FFE0
FC0001FFF8
FC0003FFF8
FC0007FFF0
FC000FFFF0
FC001FE060
FC003FC000
FC007F8000
FC00FF0000
FC01FE0000
FC03FC0000
FC03F80000
FC07F00000
FC0FE00000
FC1FC00000
FC3F800000
FC7F800000
FC7F000000
FCFE000000
FDFC000000
FFF8000000
FFF8000000
FFFE000000
FFFF000000
FDFF800000
FCFFC00000
FC3FE00000
FC1FF00000
FC0FF80000
FC03FC0000
FC01FE0000
FC00FF0000
FC007F8000
FC003FC000
FC001FE000
FC000FF000
FC0007F800
FC0003FC00
FC0001FE00
FC0000FF00
FC0000FF00
FC00007F80
FC00003FC0
FC00001FC0
FC00001FE0
FC00000FF0
ENDCHAR
STARTCHAR 0199
ENCODING 409
SWIDTH 510 0
DWIDTH 34 0
BBX 29 52 5 0
BITMAP
01F80000
0FFC0000
1FFC0000
3FFC0000
3FFC0000
7FC40000
7F000000
7E000000
7E000000
FE000000
FE000000
FE000000
FE000000
FE000000
FE000000
FE000000
FE000000
FE000FE0
FE001FC0
FE003FC0
FE007F80
FE007F00
FE00FE00
FE01FC00
FE03F800
FE07F000
FE0FE000
FE1FC000
FE3F8000
FE7F0000
FEFE0000
FFFC0000
FFF80000
FFFC0000
FFFE0000
FFFF0000
FEFF8000
FE7FC000
FE3FE000
FE0FF000
FE07F800
FE03F800
FE03FC00
FE01FE00
FE00FF00
FE007F80
FE003F80
FE001FC0
FE001FE0
FE000FE0
FE0007F0
FE0007F8
ENDCHAR
STARTCHAR 019A
ENCODING 410
SWIDTH 285 0
DWIDTH 19 0
BBX 17 53 1 -1
BITMAP
002000
07E000
07E000
07E000
07E000
07E000
07E000
07E000
07E000
07E000
07E000
07E000
07E000
07E000
07E000
07E000
07E000
07E000
07E000
07E000
07E000
07E000
07E000
FFFF80
FFFF80
FFFF80
FFFF80
FFFF80
07E000
07E000
07E000
07E000
07E000
07E000
07E000
07E000
07E000
07E000
07E000
07E000
07E000
07E000
07E000
07E000
07F000
07F000
03F800
03FF80
03FF00
01FF00
00FF00
007F00
000700
ENDCHAR
STARTCHAR 019B
ENCODING 411
SWIDTH 510 0
DWIDTH 34 0
BBX 32 52 1 0
BITMAP
1E000000
7FE00000
7FF00000
3FF80000
3FFC0000
23FE0380
00FF1F80
007FFF80
003FFFC0
003FFF00
01FFF800
0FFFC000
0FFFC000
0FFFE000
0787E000
0407F000
0003F000
0003F000
0007F800
0007F800
000FFC00
000FFC00
001FFC00
001FFE00
003F7E00
003F7E00
007E3F00
007E3F00
00FC3F00
00FC1F80
01F81F80
01F81FC0
01F80FC0
03F00FC0
03F00FE0
07E007E0
07E007E0
07E007F0
0FC007F0
0FC003F0
0FC003F0
1F8003F8
1F8001F8
1F8001F8
3F0001FC
3F0001FC
3F0000FC
7F0000FE
7E0000FE
7E00007E
FE00007E
FE00007F
ENDCHAR
STARTCHAR 019C
ENCODING 412
SWIDTH 975 0
DWIDTH 65 0
BBX 53 47 6 -1
BITMAP
FC0001FC0001F8
FC0001FC0001F8
FC0001FC0001F8
FC0001FC0001F8
FC0001FC0001F8
FC0001FC0001F8
FC0001FC0001F8
FC0001FC0001F8
FC0001FC0001F8
FC0001FC0001F8
FC0001FC0001F8
FC0001FC0001F8
FC0001FC0001F8
FC0001FC0001F8
FC0001FC0001F8
FC0001FC0001F8
FC0001FC0001F8
FC0001FC0001F8
FC0001FC0001F8
FC0001FC0001F8
FC0001FC0001F8
FC0001FC0001F8
FC0001FC0001F8
FC0001FC0001F8
FC0001FC0001F8
FC0001FC0001F8
FC0001FC0001F8
FC0001FC0001F8
FC0001FC0001F8
FC0001FC0001F8
FC0001FC0001F8
FC0001FC0001F8
FC0001FC0001F8
FE0000FC0001F8
FE0000FC0001F8
FE0000FE0001F8
FE0000FE0001F8
7F0000FE0001F8
7F0000FF0001F8
7F8001FF8001F8
3FE00FFFC001F8
3FFFFFFFFFFFF8
1FFFFFFFFFFFF8
0FFFFFEFFFFFF8
07FFFF87FFFFF8
01FFFE01FFFFF0
003FE0007FFC00
ENDCHAR
STARTCHAR 019D
ENCODING 413
SWIDTH 720 0
DWIDTH 48 0
BBX 45 58 -2 -12
BITMAP
00FC000003F8
00FC000003F8
00FE000003F8
00FF000003F8
00FF800003F8
00FFC00003F8
00FFE00003F8
00FFF00003F8
00FFF00003F8
00FFF80003F8
00FDFC0003F8
00FDFE0003F8
00FCFE0003F8
00FC7F0003F8
00FC3F8003F8
00FC1FC003F8
00FC1FC003F8
00FC0FE003F8
00FC07F003F8
00FC03F803F8
00FC03F803F8
00FC01FC03F8
00FC00FE03F8
00FC007F03F8
00FC007F03F8
00FC003F83F8
00FC001FC3F8
00FC001FC3F8
00FC000FE3F8
00FC0007F3F8
00FC0007F3F8
00FC0003FBF8
00FC0001FFF8
00FC0000FFF8
00FC0000FFF8
00FC00007FF8
00FC00007FF8
00FC00003FF8
00FC00001FF8
00FC00001FF8
00FC00000FF8
00FC000007F8
00FC000007F8
00FC000003F8
00FC000003F8
00FC000001F8
00FC00000000
00FC00000000
00FC00000000
00FC00000000
01FC00000000
01FC00000000
03F800000000
7FF800000000
7FF800000000
FFF000000000
FFE000000000
FFC000000000
ENDCHAR
STARTCHAR 019E
ENCODING 414
SWIDTH 570 0
DWIDTH 38 0
BBX 28 47 5 -12
BITMAP
0FFFF000
FFFFFC00
FFFFFF00
FFFFFF80
FFFFFFC0
FF007FC0
FE001FE0
FE000FE0
FE0007F0
FE0007F0
FE0007F0
FE0003F0
FE0003F0
FE0003F0
FE0003F0
FE0003F0
FE0003F0
FE0003F0
FE0003F0
FE0003F0
FE0003F0
FE0003F0
FE0003F0
FE0003F0
FE0003F0
FE0003F0
FE0003F0
FE0003F0
FE0003F0
FE0003F0
FE0003F0
FE0003F0
FE0003F0
FE0003F0
FE0003F0
000003F0
000003F0
000003F0
000003F0
000003F0
000003F0
000003F0
000003F0
000003F0
000003F0
000003F0
000003F0
ENDCHAR
STARTCHAR 019F
ENCODING 415
SWIDTH 765 0
DWIDTH 51 0
BBX 44 48 4 -1
BITMAP
0000FFF00000
0007FFFE0000
001FFFFF8000
007FFFFFE000
00FFFFFFF000
01FFF9FFF800
03FF000FFC00
07FC0003FE00
0FF00001FF00
0FE00000FF00
1FE000007F80
3FC000003F80
3F8000003FC0
3F8000001FC0
7F0000001FE0
7F0000000FE0
7F0000000FE0
FE0000000FE0
FE00000007F0
FE00000007F0
FE00000007F0
FFFFFFFFFFF0
FFFFFFFFFFF0
FFFFFFFFFFF0
FFFFFFFFFFF0
FFFFFFFFFFF0
FE00000007F0
FE00000007F0
FE00000007F0
FE00000007F0
FE0000000FE0
7F0000000FE0
7F0000000FE0
7F0000001FE0
3F8000001FC0
3F8000003FC0
1FC000003F80
1FE000007F80
0FF00000FF00
0FF80001FE00
07FC0007FE00
03FF801FFC00
01FFFFFFF800
00FFFFFFF000
003FFFFFC000
001FFFFF8000
0003FFFC0000
00007FE00000
ENDCHAR
STARTCHAR 01A0
ENCODING 416
SWIDTH 765 0
DWIDTH 51 0
BBX 44 54 4 -1
BITMAP
0000000003F0
0000000003F0
0000000003F0
0000000003F0
0000000003F0
0000000003F0
0000FFF007E0
0007FFFE07E0
001FFFFF8FE0
007FFFFFEFC0
00FFFFFFFF80
01FFF9FFFF80
03FF000FFF00
07FC0003FE00
0FF80001FF00
0FF00000FF00
1FE000007F80
3FC000003F80
3F8000003FC0
3F8000001FC0
7F0000001FE0
7F0000000FE0
7F0000000FE0
FE0000000FE0
FE00000007F0
FE00000007F0
FE00000007F0
FE00000007F0
FE00000007F0
FE00000007F0
FE00000007F0
FE00000007F0
FE00000007F0
FE00000007F0
FE00000007F0
FE00000007F0
FE0000000FE0
7F0000000FE0
7F0000000FE0
7F0000001FE0
3F8000001FC0
3F8000003FC0
1FC000003F80
1FE000007F80
0FF00000FF00
0FF80001FE00
07FE0007FE00
03FF801FFC00
01FFFFFFF800
00FFFFFFF000
003FFFFFC000
001FFFFF8000
0003FFFC0000
00007FE00000
ENDCHAR
STARTCHAR 01A1
ENCODING 417
SWIDTH 585 0
DWIDTH 39 0
BBX 36 43 3 -1
BITMAP
00000003F0
00000003F0
00000003F0
00000003F0
00000003F0
00000007E0
00008007E0
001FFC07E0
007FFF8FC0
01FFFFCFC0
03FFFFFF80
07FFFFFF80
0FF80FFF00
1FE003FE00
1FC001FC00
3F8000FE00
3F80007E00
7F00007F00
7F00007F00
7E00003F00
7E00003F80
7E00003F80
FE00003F80
FE00003F80
FE00003F80
FE00003F80
FE00003F80
7E00003F80
7E00003F80
7E00003F00
7F00003F00
7F00007F00
3F80007F00
3F8000FE00
1FC001FE00
1FE003FC00
0FF007F800
07FFFFF800
03FFFFF000
01FFFFE000
00FFFF8000
003FFE0000
0007F00000
ENDCHAR
STARTCHAR 01A2
ENCODING 418
SWIDTH 1020 0
DWIDTH 68 0
BBX 59 48 4 -1
BITMAP
0001FFE001FFC000
000FFFF807FFF800
003FFFFE1FFFFC00
007FFFFFBFFFFE00
00FFFFFFFFFFFF00
03FFFFFFFFFFFF80
03FF003FFE00FF80
07FC000FFC007F80
0FF00003FC003FC0
1FE00001FE001FC0
1FC00000FE001FC0
3FC00000FF001FC0
3F8000007F000FC0
7F8000007F000FC0
7F0000003F800FC0
7F0000003F800FC0
7F0000003F800FE0
FE0000001FC00FE0
FE0000001FC00FE0
FE0000001FC00FE0
FE0000001FC00FE0
FE0000001FC00FE0
FE0000001FC00FE0
FE0000001FC00FE0
FE0000001FC00FE0
FE0000001FC00FE0
FE0000001FC00FE0
FE0000001FC00FE0
FE0000001FC00FE0
FE0000001FC00FE0
FE0000001FC00FE0
7F0000003F800FE0
7F0000003F800FE0
7F0000003F800FE0
3F8000007F000FE0
3F8000007F000FE0
3FC00000FF000FE0
1FE00001FE000FE0
0FE00003FC000FE0
0FF80007FC000FE0
07FC000FF8000FE0
03FF003FF0000FE0
01FFFFFFE0000FE0
00FFFFFFC0000FE0
007FFFFF80000FE0
001FFFFE00000FE0
0007FFF800000FE0
00007FC000000000
ENDCHAR
ENDFONT
